<svg xmlns="http://www.w3.org/2000/svg" xmlns:xlink="http://www.w3.org/1999/xlink" xml:space="preserve" width="280mm" height="280mm" viewBox="0 0 280 280"><defs><linearGradient id="f"><stop offset="0" style="stop-color:#ffeb5e;stop-opacity:1"/><stop offset="1" style="stop-color:#ffcd3c;stop-opacity:1"/></linearGradient><linearGradient id="d"><stop offset="0" style="stop-color:#ff8e32;stop-opacity:1"/><stop offset="1" style="stop-color:#ff7232;stop-opacity:1"/></linearGradient><linearGradient id="e"><stop offset="0" style="stop-color:#ffaffc;stop-opacity:1"/><stop offset="1" style="stop-color:#f575ff;stop-opacity:1"/></linearGradient><linearGradient id="c"><stop offset="0" style="stop-color:#35b130;stop-opacity:1"/><stop offset=".881" style="stop-color:#137a38;stop-opacity:1"/><stop offset="1" style="stop-color:#ffcd3c;stop-opacity:1"/></linearGradient><linearGradient id="b"><stop offset="0" style="stop-color:#58ce46;stop-opacity:1"/><stop offset=".833" style="stop-color:#35b130;stop-opacity:1"/><stop offset="1" style="stop-color:#ff7332;stop-opacity:1"/></linearGradient><linearGradient id="a"><stop offset="0" style="stop-color:#34b02f;stop-opacity:1"/><stop offset=".934" style="stop-color:#6bde53;stop-opacity:1"/><stop offset="1" style="stop-color:#f575ff;stop-opacity:1"/></linearGradient><linearGradient xlink:href="#a" id="j" x1="52.993" x2="151.175" y1="222.301" y2="62.294" gradientUnits="userSpaceOnUse"/><linearGradient xlink:href="#b" id="k" x1="125.793" x2="198.091" y1="126.958" y2="76.717" gradientTransform="translate(-.59 .197)" gradientUnits="userSpaceOnUse"/><linearGradient xlink:href="#c" id="i" x1="90.968" x2="179.674" y1="88.872" y2="137.137" gradientUnits="userSpaceOnUse"/><linearGradient xlink:href="#d" id="h" x1="404.488" x2="404.488" y1="-5.01" y2="105.627" gradientTransform="rotate(46.555 220.56 -20.551)scale(.67614)" gradientUnits="userSpaceOnUse"/><linearGradient xlink:href="#e" id="g" x1="404.488" x2="404.488" y1="-5.01" y2="105.627" gradientTransform="rotate(23.421 171.768 -131.833)scale(.57066)" gradientUnits="userSpaceOnUse"/><linearGradient xlink:href="#f" id="l" x1="404.488" x2="404.488" y1="-5.01" y2="105.627" gradientTransform="rotate(118.804 168.237 84.911)scale(.51113)" gradientUnits="userSpaceOnUse"/></defs><g style="display:inline"><g style="opacity:1"><path d="M157.556.127s-26.923 21.944-28.378 37.78c-1.101 11.98 5.65 21.36 14.874 27.113-1.148 2.326-1.92 6.198-4.457 10.38-3.01 4.961-7.821 11.48-14.66 18.238-7.616 7.526-15.93 13.65-25.846 20.063-2.001 1.294-3.968 2.54-5.905 3.757 5.625-6.648 8.73-15.68 7.572-29.783-1.992-24.271-5.407-30.46.074-49.076-21.374 13.55-32.195 35.433-28.761 56.197 3.066 18.542.764 29.33-3.129 38.92a106 106 0 0 0-6.354 5.382c-4.176 3.841-8.19 8.176-11.849 13.24-5.165 7.149-8.673 14.792-10.59 22.543a10.88 10.88 0 0 0-5.95 9.699 10.88 10.88 0 0 0 4.354 8.705 57.14 57.14 0 0 0 8.187 25.595c2.955 4.862 6.606 9.74 11.374 14.317 5.278 5.067 11.093 8.945 16.742 11.584 5.472 2.556 10.133 3.62 11.89 3.202 1.073-.256 1.247-1.386 1.487-1.659-.05-.367.416-1.388-.282-2.2-1.157-1.347-5.201-2.993-10.119-5.477-5.106-2.579-10.457-5.715-15.507-10.066-4.506-3.884-8.098-8.175-10.66-12.62a53.7 53.7 0 0 1-4.224-9.24 52.4 52.4 0 0 1-2.556-11.262l.195.002a10.88 10.88 0 0 0 6.51-2.16c6.7 3.199 12.565 5.036 14.387 5.736 1.623.624 3.176-.23 4.002-1.582 3.042 12.963 12.432 20.428 26.066 21.433q-.031.392.028.81c.437 3.031 2.59 6.85 5.46 9.15a15.8 15.8 0 0 0-.328 3.39c.066 7.767 6.323 15.987 11.774 15.61 5.755-.396 8.727-4.705 9.657-14.353 1.001-10.372-4.299-13.626-10.318-13.957a9.36 9.36 0 0 0-4.044.686 97 97 0 0 0-2.598-1.626 63 63 0 0 0 4.71-.765q4.284-.858 7.942-2.015a4.6 4.6 0 0 0 .31 1.974c1.076 2.825 4.986 7.431 8.92 9.15.716 2.187 1.991 4.419 3.479 6.685 4.628 7.053 11.576 10.035 16.669 6.662s5.182-11.298 2.447-18.105c-3.03-7.54-12.383-11.949-18.984-6.548q-.121.1-.24.2c-2.259-.888-4.378-1.55-6.263-2.472 8.407-3.965 13.302-9.681 14.744-17.33 2.015 1.098 5.463 2.97 8.411 4.13a10.88 10.88 0 0 0 10.832 9.85 10.88 10.88 0 0 0 10.88-10.882 10.88 10.88 0 0 0-10.88-10.88 10.88 10.88 0 0 0-7.463 2.962c-2.062-.8-5.192-1.888-10.207-3.387a7 7 0 0 0-1.296-.263q-.355-3.55-1.425-7.523c2.994-4.864 6.735-9.448 7.297-11.973.56-2.526-7.484-14.126-11.88-13.471s-8.876 3.263-8.876 3.263l-2.537-3.076s.248-7.142-.187-8.793c-1.214-4.604-16.745-7.203-18.616-4.677-1.87 2.525-4.104 9.327-4.104 9.327s-4.493-5.394-6.851-6.411c-3.058-1.319-14.49 4.465-14.43 8.285.052 3.286 1.4 8.735 1.4 8.735q-2.404 2.271-4.545 5.601s-4.009-.048-6.535.887c-2.525.936-6.091 8.928-5.318 11.742.66 2.404 3.16 4.942 5.838 7.372a48 48 0 0 0 .236 5.626q-.075-.058-.152-.114c-4.15-2.974-5.832-3.8-13.057-8.375a10.88 10.88 0 0 0-9.033-10.134q.171-.563.355-1.123a72.6 72.6 0 0 1 5.513-9.717 75 75 0 0 1 8.137-10.027 77 77 0 0 1 6.101-5.693c9.984-8.354 22.488-14.495 36.843-17.74l.06-.014a117.3 117.3 0 0 1 21.356-2.768c7.354 6.048 7.409 15.703 15.07 20.622 8.197 5.263 17.431 8.448 23.582 16.408-1.135-13.48-2.774-23.683-11.694-30.587-4.287-3.317-9.224-5.337-15.133-6.275 2.37.158 4.735.391 7.084.704 7.418.986 13.373 2.596 17.693 4.182q.628.231 1.204.458c5.67 2.232 8.691 6.575 11.161 6.202q.144-.022.292-.072c-3.47 9.191-3.16 19.648 4.257 27.595 9.718 10.412 40.818 11.177 40.818 11.177-.157-3.06-.815-6.735-1.828-10.426 8.137-1.079 15.35-3.23 15.35-3.23s-2.209-6.455-5.74-13.331c3.433-1.09 6.655-2.429 9.175-3.852 0 0-17.306-25.852-31.305-28.48-11.645-2.186-21.286 4.357-27.1 13.37-1.562-2.283-7.185-2.878-13.058-4.714q-.637-.2-1.327-.407a115 115 0 0 0-18.872-4.014c-14.114-1.793-28.847-1.088-42.22 2.195l-.064.015c-6.915 1.702-13.473 4.003-19.538 6.91 3.555-2.44 7.153-4.78 10.954-7.264 3.807-1.995 8.707-4.8 13.522-6.877 3.905-1.684 8.468-3.602 13.983-5.663 9.391-3.51 17.158-5.82 26.686-8.618 9.409-2.762 16.205-4.82 23.595-7.8 4.575-1.846 8.027-3.51 10.924-4.913 4.565-2.21 9.386-3.31 11.497-5.126 10.318 8.72 24.14 13.09 37.643 6.716 17.037-8.043 30.544-46.918 30.544-46.918-3.919-1.036-8.814-1.69-13.873-1.901 1.923-10.687 2.122-20.643 2.122-20.643s-9.024.18-19.111 1.857c.012-4.765-.376-9.365-1.153-13.113 0 0-21.704 6.243-36.596 16.218.125-6.636-.209-11.432-.209-11.432-3.384.495-7.4 1.611-11.397 3.124-2.051-8.932-5.198-16.725-5.198-16.725s-6.944 3.132-14.217 7.778c-1.57-3.702-3.396-7.144-5.242-9.795zm23.133 66.412c1.651 4.143 4.02 8.058 6.87 11.586-1.95 1.704-4.23 4.715-7.635 6.868-2.477 1.566-5.864 3.387-10.099 5.196-6.864 2.932-13.78 4.97-23.045 7.566-9.459 2.65-17.647 4.94-27.17 8.477q-.557.207-1.103.413a148 148 0 0 0 10.248-9.12c7.293-7.135 12.296-13.582 16.061-18.575 3.296-4.372 6.686-7.355 7.951-9.8 9.297 3.179 19.69 3.096 27.922-2.61" style="font-variation-settings:&quot;wght&quot;900;baseline-shift:baseline;display:inline;overflow:visible;vector-effect:none;stroke-linecap:round;stroke-linejoin:round;stroke-dashoffset:1;paint-order:fill markers stroke;stop-color:#000;stop-opacity:1" transform="translate(-5.567 13.917)"/><path d="M159.193-3.521a4 4 0 0 0-4.164.548s-6.924 5.636-14.052 13.334c-7.129 7.699-14.864 17.192-15.782 27.18-1.137 12.38 5.241 22.455 13.994 28.947-.798 2.211-1.565 4.451-3.013 6.838-2.836 4.673-7.461 10.952-14.053 17.467-5.582 5.517-11.85 10.267-18.7 15.012 1.368-5.255 1.905-11.32 1.32-18.457-1.01-12.294-2.364-20.007-2.76-26.573-.398-6.565.04-12.07 2.683-21.046a4 4 0 0 0-5.978-4.508C76.184 49.486 64.394 72.904 68.123 95.449c2.884 17.442.906 27.025-2.598 35.92-1.956 1.567-3.865 3.145-5.648 4.785-4.34 3.993-8.545 8.53-12.383 13.842-5.13 7.099-8.678 14.705-10.789 22.455-3.977 2.754-6.508 7.212-6.508 12.13 0 4.047 1.727 7.831 4.596 10.614.52 5.215 1.604 10.233 3.299 14.883a61.5 61.5 0 0 0 5.228 10.879c3.098 5.097 6.966 10.27 12.022 15.125 5.6 5.377 11.763 9.495 17.82 12.324 2.938 1.372 5.668 2.356 8.031 2.965 2.364.61 4.079 1.074 6.477.502 1.781-.424 3.052-1.805 3.564-2.664.257-.43.399-.766.46-.9.06-.135.225-.119-.464.662a4 4 0 0 0 .963-3.2c.138.984-.001.936.02.803s.086-.476.113-.955c.055-.957-.167-2.735-1.344-4.103-1.554-1.809-3.013-2.337-4.884-3.278s-4.083-1.959-6.465-3.162c-4.945-2.497-9.988-5.466-14.7-9.525-4.198-3.618-7.493-7.58-9.804-11.588a49.7 49.7 0 0 1-3.91-8.55c-.74-2.134-1.281-4.377-1.725-6.665.786-.245 1.48-.686 2.217-1.059 6.155 2.775 11.634 4.623 12.828 5.082 1.03.397 2.055.453 3.053.354 4.197 10.675 13.342 17.508 25.06 19.309.834 2.919 2.46 5.658 4.735 7.955-.054.631-.19 1.228-.184 1.882.042 4.946 1.928 9.605 4.678 13.239s6.544 6.663 11.37 6.33c3.822-.264 7.49-2.225 9.677-5.457 2.168-3.204 3.162-7.273 3.666-12.381.368.605.709 1.228 1.097 1.82 2.676 4.078 6.09 7.154 9.993 8.748s8.531 1.502 12.228-.947c3.74-2.477 5.534-6.633 5.932-10.71.397-4.079-.407-8.304-1.98-12.22-1.946-4.84-5.787-8.574-10.423-10.367-2.062-.797-4.349-1.081-6.636-.924a25.7 25.7 0 0 0 4.943-7.773c.879.448 1.586.809 2.537 1.244 1.684 6.432 7.534 11.14 14.365 11.14 8.172 0 14.881-6.709 14.881-14.88s-6.71-14.881-14.88-14.881c-2.945 0-5.792.894-8.215 2.502a137 137 0 0 0-7.307-2.428c-.184-1.125-.376-2.253-.647-3.416 1.207-1.868 2.494-3.754 3.666-5.514 1.434-2.15 2.735-3.86 3.313-6.46.36-1.62.022-2.51-.256-3.397-.278-.886-.652-1.716-1.1-2.578-.895-1.725-2.1-3.553-3.498-5.31-1.397-1.759-2.958-3.428-4.722-4.766s-3.82-2.688-6.797-2.244c-2.582.384-4.944 1.23-6.785 2.021.014-.668.028-.772.03-1.64a70 70 0 0 0-.046-3.13c-.042-1.002-.028-1.73-.342-2.921-.816-3.095-3.077-4.475-5.197-5.565s-4.499-1.828-6.898-2.34-4.783-.783-6.952-.734c-1.084.025-2.112.12-3.18.404-1.067.285-2.35.687-3.47 2.198-.997 1.346-1.702 2.826-2.332 4.3-1.016-.996-2.147-1.953-3.826-2.677-2.573-1.11-4.32-.505-6.207.02-1.888.523-3.817 1.345-5.672 2.355-1.855 1.009-3.614 2.183-5.096 3.595s-3.086 3.086-3.039 6.051c.046 2.887.6 5.628 1.033 7.52a34 34 0 0 0-2.238 2.779c-1.557.06-3.606.275-5.863 1.111-2.084.772-2.943 1.99-3.844 3.221-.902 1.23-1.66 2.609-2.31 4.055s-1.185 2.941-1.526 4.435-.637 2.912-.107 4.84c.11.4.31.72.453 1.09-.121-.076-.143-.092-.268-.17-.91-4.129-3.355-7.71-6.959-9.777 1.108-2.116 2.159-4.225 3.647-6.428 2.41-3.57 5.007-6.687 7.705-9.492a73 73 0 0 1 5.785-5.399c9.464-7.918 21.373-13.79 35.156-16.906l.014-.004.045-.01.015-.004c6.053-1.364 12.406-2.179 18.823-2.52 2.247 2.252 3.806 5.024 5.48 8.375 1.918 3.84 4.238 8.367 9.066 11.467 8.73 5.605 17.297 8.65 22.579 15.487a4 4 0 0 0 7.15-2.782c-.574-6.816-1.262-13.01-3.111-18.666a31.8 31.8 0 0 0-4.938-9.41c.183.065.459.127.635.192q.585.214 1.117.423c2.238.881 4.065 2.232 5.86 3.567a31 31 0 0 0 2.269 1.527c-2.357 9.296-1.348 19.634 6.123 27.639 6.278 6.726 17.02 9.166 26.322 10.71 9.303 1.545 17.32 1.737 17.32 1.737a4 4 0 0 0 4.094-4.203c-.113-2.21-.504-4.613-1.007-7.064 6.363-1.156 11.68-2.555 11.68-2.555a4 4 0 0 0 2.64-5.127s-1.708-4.5-4.106-9.76c2.05-.811 4.01-1.679 5.723-2.646a4 4 0 0 0 1.356-5.707s-4.457-6.67-10.745-13.698c-6.287-7.027-14.1-14.79-23.144-16.488-11.943-2.242-22.175 3.575-28.824 11.872-.936-.35-1.88-.673-2.834-.944-2.548-.724-5.338-1.314-8.045-2.16q-.656-.204-1.367-.418a119 119 0 0 0-19.522-4.152c-9.763-1.24-19.766-1.219-29.5-.12 2.323-.95 4.265-1.815 7.033-2.849 9.253-3.458 16.892-5.732 26.413-8.527 9.424-2.767 16.378-4.869 23.964-7.928 4.703-1.896 8.27-3.616 11.172-5.022 2.02-.977 4.238-1.768 6.35-2.574 1.091-.416 2.152-.815 3.185-1.314 10.955 8.203 25.491 12.14 39.569 5.494 10.4-4.91 17.86-17.26 23.511-28.266 5.652-11.006 9.102-20.957 9.102-20.957a4 4 0 0 0-2.754-5.18c-3.111-.823-6.706-1.315-10.42-1.656 1.28-9.059 1.645-16.94 1.645-16.94a4 4 0 0 0-4.078-4.08s-6.98.332-15.211 1.39c-.168-3.351-.464-6.599-1.057-9.458a4 4 0 0 0-5.021-3.033s-16.859 4.755-31.623 13.022c-.058-1.367-.086-4.668-.086-4.668a4 4 0 0 0-4.57-3.68c-2.55.372-5.316 1.112-8.126 1.99-1.979-7.167-4.181-13.13-4.181-13.13A4 4 0 0 0 175.37-1.5s-5.028 2.457-10.814 5.814c-1.171-2.342-2.398-4.574-3.72-6.472l.714 2.11a4 4 0 0 0-2.358-3.473m-2.597 9.783a61 61 0 0 1 2.52 5.224 4 4 0 0 0 5.835 1.809 116 116 0 0 1 9.83-5.602c1.062 3.013 2.388 7.087 3.533 12.073a4 4 0 0 0 5.315 2.845 62 62 0 0 1 6.074-1.933c.078 1.965.188 2.676.117 6.426a4 4 0 0 0 6.225 3.398c11.573-7.752 25.615-12.435 31.092-14.178.26 2.43.438 5.009.431 7.738a4 4 0 0 0 4.657 3.958 131 131 0 0 1 14.22-1.579c-.208 3.693-.62 9.015-1.824 15.71a4 4 0 0 0 3.768 4.704c3.054.129 5.922.479 8.601.92a158 158 0 0 1-7.002 15.6c-5.361 10.442-13.172 21.552-19.81 24.686-11.91 5.623-23.878 1.853-33.354-6.155a4 4 0 0 0-5.19.024c-.216.186-1.678.96-3.646 1.71-.117.045-.295.125-.416.17 1.088-1.11 2.031-2.158 2.62-2.671a4 4 0 0 0 .478-5.528c-2.623-3.245-4.78-6.826-6.266-10.552a4 4 0 0 0-5.994-1.807c-6.951 4.819-15.935 4.99-24.35 2.113a4 4 0 0 0-4.845 1.948c-.229.441-2.16 2.703-3.242 3.94.786-2.067 1.303-3.729 1.666-4.464a4 4 0 0 0-1.471-5.162c-8.31-5.183-13.955-13.049-13.008-23.356.537-5.846 6.99-15.242 13.688-22.474a138 138 0 0 1 9.748-9.535M94.584 48.338c-.676 4.57-.84 8.717-.586 12.92.438 7.25 1.788 14.767 2.772 26.744 1.098 13.383-1.699 21.034-6.64 26.873a4 4 0 0 0 2.104 5.512l-.054.029a4 4 0 0 0-.332.195c-3.797 2.48-7.42 4.836-11.03 7.315a4 4 0 0 0-.314 5.853c-5.827 2.965-11.243 6.421-16.055 10.448a81 81 0 0 0-10.715 10.828c.088-.123.156-.25.245-.373 3.48-4.818 7.303-8.95 11.316-12.641a102 102 0 0 1 6.113-5.178 4 4 0 0 0 1.238-1.642c4.08-10.05 6.53-21.972 3.37-41.078-2.664-16.11 4.11-33.156 18.568-45.805m84.42 23.781a49 49 0 0 0 3.346 5.516c-1.445 1.474-2.873 2.908-4.563 3.976-2.27 1.435-5.482 3.168-9.533 4.899-6.587 2.814-13.314 4.804-22.553 7.392a768 768 0 0 0-11.11 3.202c5.715-5.977 10.224-11.51 13.419-15.747 2.265-3.004 4.673-5.158 6.578-7.666 8.02 2.118 16.707 2.164 24.416-1.572m-63.711 35.152a4 4 0 0 0 1.19 1.883c-3.349 1.316-6.613 2.615-9.266 3.752 2.715-1.863 5.557-3.704 8.076-5.635m85.633 14.166c1.169.014 2.369.131 3.597.362 4.956.93 12.794 7.406 18.659 13.96a132 132 0 0 1 7.224 8.86c-1.434.601-2.61 1.255-4.226 1.768a4 4 0 0 0-2.348 5.64c1.669 3.249 3.021 6.393 3.977 8.762-2.752.668-6.433 1.46-10.553 2.006a4 4 0 0 0-3.332 5.025 56 56 0 0 1 1.152 5.104 129 129 0 0 1-11.576-1.367c-8.677-1.441-18.345-4.59-21.785-8.276-6.26-6.707-6.525-15.273-3.438-23.453a4 4 0 0 0-5.035-5.2c.097-.032.228-.068.403-.095l.002-.002c.634-.095.848.124.511-.058-.337-.183-1.034-.67-1.91-1.32-.352-.263-.88-.613-1.295-.917.343.09.892.237 1.201.325 2.123.603 3.097 1.507 2.705.935a4 4 0 0 0 6.663-.09c4.55-7.053 11.222-12.063 19.404-11.969m-67.143 3.792a4 4 0 0 0 2.69 5.664c5.371.852 9.58 2.598 13.312 5.486 3.8 2.94 5.928 6.367 7.412 10.908.615 1.882 1.033 4.067 1.424 6.322-5.406-3.784-11.198-6.423-16.115-9.58-2.833-1.819-4.37-4.58-6.233-8.31-1.61-3.226-3.508-7.085-6.863-10.461 1.46-.003 2.914-.08 4.373-.03M107.08 144.33c1.307-.03 3.233.162 5.102.56 1.868.399 3.716 1.016 4.908 1.63s1.328 1.284 1.119.492c-.096-.365.05.418.084 1.218.034.801.045 1.803.041 2.762-.007 1.918-.068 3.653-.068 3.653a4 4 0 0 0 .912 2.685l2.537 3.076a4 4 0 0 0 5.1.91s4.193-2.278 7.45-2.763c-.778.116-.18-.028.784.703.963.731 2.201 1.997 3.295 3.373s2.07 2.88 2.662 4.02c.219.42.318.69.418.949-.146.279-.746 1.583-1.932 3.361-1.325 1.989-3.046 4.398-4.638 6.986a4 4 0 0 0-.456 3.135c.665 2.468 1.096 4.762 1.307 6.88a4 4 0 0 0 3.586 3.585c.13.013.311.043.545.113 4.944 1.478 7.975 2.536 9.906 3.285a4 4 0 0 0 4.19-.818 6.88 6.88 0 0 1 4.718-1.873c3.848 0 6.881 3.033 6.881 6.88s-3.033 6.882-6.88 6.882a6.83 6.83 0 0 1-6.85-6.229 4 4 0 0 0-2.518-3.344c-2.571-1.011-5.953-2.825-7.96-3.92a4 4 0 0 0-5.846 2.772c-1.204 6.386-4.913 10.865-12.52 14.453a4 4 0 0 0-2.039 3.193 4 4 0 0 0-3.799-.935q-3.422 1.084-7.521 1.906a59 59 0 0 1-4.412.719 4 4 0 0 0-1.58 7.392c.77.466 1.606.986 2.49 1.56a4 4 0 0 0 3.681.349 5.3 5.3 0 0 1 2.319-.397c2.356.13 4.017.77 5.049 1.906 1.03 1.137 1.939 3.198 1.507 7.672-.431 4.476-1.38 7.354-2.35 8.787-.969 1.434-1.668 1.826-3.6 1.96-.625.043-2.684-.851-4.442-3.174s-3.033-5.658-3.057-8.479c-.008-.922.08-1.767.242-2.535a4 4 0 0 0-1.414-3.945c-1.944-1.557-3.762-4.934-4.002-6.598.001.009.005.04.002.078a4 4 0 0 0-3.693-4.307c-12.32-.907-19.765-6.843-22.467-18.357a4 4 0 0 0-2.07-1.928 4 4 0 0 0 1.33-2.543 44 44 0 0 1-.215-5.162 4 4 0 0 0-1.312-3.017c-2.57-2.332-4.5-4.859-4.668-5.471.143.52.002-.114.191-.94.189-.825.56-1.912 1.02-2.933s1.017-1.993 1.47-2.611c.193-.264.367-.394.479-.485 1.406-.386 4.787-.6 4.787-.6a4 4 0 0 0 3.412-1.837c1.282-1.995 2.603-3.605 3.928-4.856a4 4 0 0 0 1.136-3.869s-1.033-4.863-1.2-7.342c.062-.115.156-.324.476-.629.74-.705 2.02-1.61 3.398-2.359 1.378-.75 2.874-1.365 3.988-1.674.524-.145.951-.131 1.184-.13.077.13 1.544 1.202 2.727 2.433a56 56 0 0 1 2.351 2.613 4 4 0 0 0 6.875-1.312s.527-1.603 1.274-3.502a32 32 0 0 1 1.904-3.979c.236-.031.37-.07.744-.078m-63.293 31.816a4 4 0 0 0 2.45 1.65 6.846 6.846 0 0 1 5.712 6.411 4 4 0 0 0 1.854 3.162c6.108 3.868 7.91 4.946 10.799 6.92-2.788-.986-6.508-2.314-11.291-4.598a4 4 0 0 0-4.116.403 6.9 6.9 0 0 1-4.234 1.365 4 4 0 0 0-2.639 1.137 4 4 0 0 0-1.37-2.51 6.87 6.87 0 0 1-2.755-5.506 6.86 6.86 0 0 1 3.762-6.135 4 4 0 0 0 1.828-2.299m78.375 39.608a4 4 0 0 0 .746 1.203c2.268 1.109 4.46 1.778 6.557 2.602a4 4 0 0 0 4.049-.672q.088-.075.185-.155c2.171-1.776 4.409-1.892 6.858-.945s4.798 3.19 5.882 5.889c1.162 2.891 1.68 6.032 1.444 8.46-.237 2.43-1.035 3.923-2.389 4.82-1.396.924-2.786 1.025-4.787.208s-4.376-2.755-6.328-5.73c-1.402-2.137-2.492-4.12-3.022-5.737a4 4 0 0 0-2.199-2.42c-1.211-.53-2.88-1.8-4.209-3.224s-2.353-3.103-2.574-3.684a.7.7 0 0 1-.059-.267 4 4 0 0 0-.154-.348" style="font-variation-settings:&quot;wght&quot;900;baseline-shift:baseline;display:inline;overflow:visible;vector-effect:none;stroke-linecap:round;stroke-linejoin:round;stroke-dashoffset:1;paint-order:fill markers stroke;stop-color:#000;stop-opacity:1" transform="translate(-5.567 13.917)"/></g></g><g style="display:inline"><path d="M124.802 126.398c7.828 6.015 7.721 15.974 15.543 20.997 8.197 5.262 17.432 8.447 23.582 16.407-1.134-13.48-2.774-23.682-11.695-30.586-6.966-5.392-15.65-7.356-27.43-6.818" style="font-variation-settings:&quot;wght&quot;900;fill:#34b02f;fill-opacity:1;stroke:#000;stroke-width:0;stroke-linecap:round;stroke-linejoin:round;stroke-dashoffset:1;paint-order:fill markers stroke" transform="translate(-5.567 13.917)"/><path d="M177.015 2.145s-19.972 9.009-27.65 19.132l13.529 16.056m14.121-35.188s8.204 20.316 6.754 32.938l-20.875 2.25" style="display:inline;fill:#f780fe;fill-opacity:1;stroke:none;stroke-width:2.28265;stroke-linecap:round;stroke-linejoin:round;stroke-dasharray:none;stroke-dashoffset:1;stroke-opacity:1;paint-order:markers stroke fill" transform="translate(-5.567 13.917)"/><path d="M167.37 26.896c-.581-8.244-5.134-20.046-9.814-26.769 0 0-26.923 21.944-28.378 37.78-1.312 14.278 8.53 24.866 20.42 30.017m17.772-41.028c6.412-5.215 18.136-9.966 26.24-11.15 0 0 2.408 34.65-8.148 46.542-9.519 10.724-23.974 10.786-35.864 5.636" style="fill:url(#g);fill-opacity:1;stroke:none;stroke-width:2.28265;stroke-linecap:round;stroke-linejoin:round;stroke-dasharray:none;stroke-dashoffset:1;stroke-opacity:1;paint-order:markers stroke fill" transform="translate(-5.567 13.917)"/><path d="M250.679 22.216s-25.955.519-39.033 7.974l7.266 23.792m31.767-31.766s-.52 25.954-7.975 39.032l-23.792-7.266" style="fill:#fd7132;fill-opacity:1;stroke:none;stroke-width:2.70458;stroke-linecap:round;stroke-linejoin:round;stroke-dasharray:none;stroke-dashoffset:1;stroke-opacity:1;paint-order:markers stroke fill" transform="translate(-5.567 13.917)"/><path d="M228.648 44.694c3.204-9.253 3.737-24.232 1.767-33.735 0 0-39.55 11.377-48.506 27.953-8.076 14.947-2.281 31.065 8.276 42.212m38.463-36.43c9.413-2.697 24.4-2.416 33.781.066 0 0-13.506 38.874-30.543 46.918-15.364 7.253-31.143.593-41.7-10.554" style="fill:url(#h);fill-opacity:1;stroke:none;stroke-width:2.70458;stroke-linecap:round;stroke-linejoin:round;stroke-dasharray:none;stroke-dashoffset:1;stroke-opacity:1;paint-order:markers stroke fill" transform="translate(-5.567 13.917)"/><path d="M42.9 184.518c1.425-5.198 4.29-13.227 9.878-21.504a75 75 0 0 1 8.137-10.026 77 77 0 0 1 6.101-5.694c9.985-8.354 22.488-14.495 36.843-17.74l.06-.013c12.802-2.886 26.777-3.69 40.265-1.897 7.418.987 13.373 2.597 17.692 4.183q.629.23 1.204.457c5.67 2.232 8.692 6.575 11.162 6.203 1.271-.192 2.79-2.181 3.364-2.602.153-.695 1.346-2.919.789-4.223-1.128-2.64-7.07-3.194-13.292-5.139q-.637-.198-1.327-.407a115 115 0 0 0-18.872-4.013c-14.114-1.793-28.847-1.088-42.22 2.194l-.064.016c-14.996 3.691-28.311 10.197-38.568 19.603a66 66 0 0 0-6.12 6.406 64.4 64.4 0 0 0-7.516 11.283c-4.803 9.138-6.616 17.688-7.516 22.913" style="opacity:1;fill:url(#i);fill-opacity:1;fill-rule:nonzero;stroke:none;stroke-width:4;stroke-linecap:round;stroke-linejoin:round;stroke-dasharray:none;stroke-dashoffset:1;paint-order:markers stroke fill" transform="translate(-5.567 13.917)"/><path d="M101.203 232.238c-.067-7.977 5.408-13.013 11.113-12.7 6.019.33 11.319 3.585 10.318 13.957-.93 9.648-3.902 13.957-9.657 14.353-5.451.376-11.708-7.843-11.774-15.61" style="opacity:1;fill:#2f88ff;fill-opacity:1;stroke:none;stroke-width:.587904;stroke-linecap:square;stroke-dashoffset:1;stroke-opacity:1;paint-order:markers stroke fill" transform="translate(-5.567 13.917)"/><path d="M96.07 219.698c.579 4.01 4.158 9.398 8.431 10.822 5.976 1.99 9.683-6.297 5.348-9.249-3.201-2.18-6-3.747-7.55-4.656-3.442-2.016-6.658.103-6.228 3.083M50.938 192.987c6.969 3.393 13.157 5.327 15.037 6.05 3.47 1.334 6.623-4.095 3.025-6.673-4.303-3.084-5.952-3.858-13.88-8.898z" style="opacity:1;fill:#2a3242;fill-opacity:1;stroke:none;stroke-width:.587904;stroke-linecap:square;stroke-dashoffset:1;stroke-opacity:1;paint-order:markers stroke fill" transform="translate(-5.567 13.917)"/><path d="M68.916 186.851c-.35 24.487 16.171 36.049 41.468 30.981 24.366-4.88 33.489-16.931 27.876-37.791 2.994-4.865 6.735-9.448 7.297-11.974.56-2.526-7.484-14.125-11.88-13.47s-8.876 3.262-8.876 3.262l-2.537-3.075s.248-7.142-.187-8.794c-1.214-4.603-16.744-7.202-18.615-4.677s-4.105 9.327-4.105 9.327-4.493-5.394-6.851-6.41c-3.058-1.32-14.49 4.464-14.43 8.284.052 3.286 1.4 8.735 1.4 8.735q-2.406 2.272-4.545 5.602s-4.009-.048-6.534.887c-2.526.935-6.092 8.928-5.32 11.741.662 2.404 3.162 4.942 5.84 7.372" style="display:inline;opacity:1;fill:#2f88ff;fill-opacity:1;stroke:none;stroke-width:.587904;stroke-linecap:square;stroke-dashoffset:1;stroke-opacity:1;paint-order:markers stroke fill" transform="translate(-5.567 13.917)"/><path d="M133.09 189.251a2 2 0 0 0-.229.008l-18.056 1.825a1.75 1.75 0 0 0-1.395.97l-2.88 5.87-9.323 1.632-6.149-6.601a1.75 1.75 0 0 0-1.566-.535l-12.142 2.013a1.75 1.75 0 0 0-1.442 1.446l-1.047 6.441-3.619.438-1.875-4.391a1.75 1.75 0 0 0-1.908-1.037l-1.452.25c.776 3.255 1.954 6.16 3.5 8.701a1.75 1.75 0 0 0 .852.11l6.229-.754a1.75 1.75 0 0 0 1.518-1.458l1.056-6.497 9.977-1.655 6.154 6.61a1.75 1.75 0 0 0 1.582.53l11.137-1.949a1.75 1.75 0 0 0 1.269-.953l2.842-5.797 17.09-1.726a1.75 1.75 0 0 0 1.566-1.918 1.75 1.75 0 0 0-1.689-1.573z" style="display:inline;opacity:1;fill:#fff;fill-opacity:1;stroke:none;stroke-width:.587904;stroke-linecap:square;stroke-dashoffset:1;stroke-opacity:1;paint-order:markers stroke fill" transform="translate(-5.567 13.917)"/><path d="M55.96 184.58a10.88 10.88 0 0 1-10.882 10.88 10.88 10.88 0 0 1-10.88-10.88 10.88 10.88 0 0 1 10.88-10.881 10.88 10.88 0 0 1 10.881 10.88M169.532 199.132a10.88 10.88 0 0 1-10.881 10.881 10.88 10.88 0 0 1-10.881-10.881 10.88 10.88 0 0 1 10.88-10.881 10.88 10.88 0 0 1 10.882 10.881" style="opacity:1;fill:#2f88ff;stroke-width:.59514;stroke-linecap:square;stroke-dashoffset:1;paint-order:markers stroke fill" transform="translate(-5.567 13.917)"/><path d="M131.167 215.635c6.6-5.4 15.954-.991 18.984 6.549 2.735 6.807 2.646 14.731-2.447 18.104-5.094 3.374-12.04.392-16.67-6.66-4.166-6.35-6.67-12.427.133-17.993" style="opacity:1;fill:#2f88ff;fill-opacity:1;stroke:none;stroke-width:.587904;stroke-linecap:square;stroke-dashoffset:1;stroke-opacity:1;paint-order:markers stroke fill" transform="translate(-5.567 13.917)"/><path d="M140.98 187.826c7.443 2.224 10.731 3.545 12.546 4.36 3.015 1.354 1.518 9.9-3.158 8.808-3.868-.902-10.487-4.74-12.234-5.65-4.841-2.52-3.053-9.281 2.847-7.518M118.637 217.792c1.447 3.801 8.027 10.829 12.891 9.705 4.296-.992 6.962-8.162 2.028-10.527-3.3-1.582-6.397-2.362-9.027-3.674-4.397-2.192-7.196 1.072-5.892 4.496" style="opacity:1;fill:#2a3242;fill-opacity:1;stroke:none;stroke-width:.587904;stroke-linecap:square;stroke-dashoffset:1;stroke-opacity:1;paint-order:markers stroke fill" transform="translate(-5.567 13.917)"/><path d="M85.918 181.27a1.75 1.75 0 0 0-1.79 1.709l-.062 2.769a1.75 1.75 0 0 0 1.71 1.79 1.75 1.75 0 0 0 1.788-1.712l.065-2.767a1.75 1.75 0 0 0-1.711-1.79" style="baseline-shift:baseline;display:inline;overflow:visible;opacity:1;vector-effect:none;fill:#fff;stroke-linecap:round;stroke-linejoin:round;stroke-dashoffset:1;paint-order:markers stroke fill;stop-color:#000;stop-opacity:1" transform="translate(-5.567 13.917)"/><path d="M114.945 176.381a10.35 10.35 0 0 1-10.35 10.35 10.35 10.35 0 0 1-10.349-10.35 10.35 10.35 0 0 1 10.35-10.349 10.35 10.35 0 0 1 10.35 10.35" style="display:inline;opacity:1;fill:#fff;stroke-width:3.7508;stroke-linecap:round;stroke-linejoin:round;stroke-dashoffset:1;paint-order:markers stroke fill" transform="translate(-11.534 3.854)scale(1.05705)"/><path d="M101.166 166.619a10.35 10.35 0 0 0-6.92 9.762 10.35 10.35 0 0 0 6.92 9.763 10.35 10.35 0 0 0 6.922-9.763 10.35 10.35 0 0 0-6.922-9.762" style="display:inline;opacity:1;fill:#000;fill-opacity:1;stroke:none;stroke-width:3.7508;stroke-linecap:round;stroke-linejoin:round;stroke-dasharray:none;stroke-dashoffset:1;stroke-opacity:1;paint-order:markers stroke fill" transform="translate(-11.534 3.854)scale(1.05705)"/><path d="M114.945 176.381a10.35 10.35 0 0 1-10.35 10.35 10.35 10.35 0 0 1-10.349-10.35 10.35 10.35 0 0 1 10.35-10.349 10.35 10.35 0 0 1 10.35 10.35" style="display:inline;opacity:1;fill:#fff;stroke-width:3.7508;stroke-linecap:round;stroke-linejoin:round;stroke-dashoffset:1;paint-order:markers stroke fill" transform="matrix(.48758 .03418 -.14394 .94526 42.946 24.916)"/><path d="M101.167 166.617a10.35 10.35 58.283 0 0-6.92 9.765 10.35 10.35 58.283 0 0 6.92 9.742 10.35 10.35 58.283 0 0 6.92-9.743 10.35 10.35 58.283 0 0-6.92-9.764" style="display:inline;opacity:1;fill:#000;fill-opacity:1;stroke:none;stroke-width:3.7508;stroke-linecap:round;stroke-linejoin:round;stroke-dasharray:none;stroke-dashoffset:1;stroke-opacity:1;paint-order:markers stroke fill" transform="matrix(.48758 .03418 -.14394 .94526 42.946 24.916)"/><path d="M88.231 246.324c-.05-.367.416-1.388-.282-2.2-1.157-1.347-5.201-2.993-10.12-5.477-5.105-2.579-10.456-5.715-15.505-10.066-4.507-3.884-8.099-8.176-10.661-12.62a53.7 53.7 0 0 1-4.224-9.24c-2.653-7.658-3.67-16.324-2.237-25.435 1.351-8.586 4.834-17.215 10.662-25.232 3.387-4.658 7.114-8.668 11.036-12.251 3.019-2.76 6.304-5.436 10.01-8.184 8.084-5.996 15.913-10.744 25.358-17.1 10.025-6.746 18.445-13.129 26.487-20.995 7.293-7.134 12.296-13.581 16.061-18.575 4.058-5.381 8.257-8.658 8.46-11.417.14-1.894-2.569-3.158-3.084-3.776-.808-.067-3.38-1.539-4.829-.472-2.143 1.579-2.405 6.574-5.768 12.116-3.01 4.961-7.821 11.479-14.66 18.238-7.615 7.526-15.93 13.65-25.846 20.063-9.188 5.942-17.656 10.858-25.908 16.825-3.885 2.81-7.387 5.62-10.595 8.572-4.177 3.841-8.19 8.176-11.849 13.24-6.376 8.823-10.225 18.4-11.676 28.002-1.539 10.189-.306 19.874 2.789 28.37a57.5 57.5 0 0 0 4.888 10.17c2.955 4.862 6.607 9.74 11.374 14.317 5.278 5.067 11.093 8.945 16.742 11.584 5.472 2.556 10.133 3.62 11.89 3.201 1.073-.255 1.247-1.385 1.487-1.658" style="opacity:1;fill:url(#j);fill-opacity:1;fill-rule:nonzero;stroke:none;stroke-width:4;stroke-linecap:round;stroke-linejoin:round;stroke-dasharray:none;stroke-dashoffset:1;stroke-opacity:1;paint-order:markers stroke fill" transform="translate(-5.567 13.917)"/><path d="M86.751 124.63c.17.301.088 1.705 1.008 1.793 2.562.244 11.314-5.683 19.799-9.342 3.905-1.684 8.468-3.602 13.983-5.663 9.391-3.509 17.158-5.82 26.686-8.617 9.409-2.762 16.205-4.82 23.595-7.8 4.575-1.846 8.027-3.51 10.924-4.913 5.49-2.66 11.352-3.71 12.423-6.335.596-1.462-1.115-3.65-1.344-4.37-.635-.42-2.271-2.643-3.762-2.566-2.636.135-5.204 5.056-10.138 8.176-2.478 1.566-5.864 3.387-10.1 5.196-6.864 2.932-13.78 4.97-23.045 7.566-9.46 2.65-17.647 4.94-27.17 8.477-5.576 2.07-10.4 4.136-14.261 5.956-8.487 4-18.385 8.175-19.606 10.649-.41.83.841 1.495 1.008 1.793" style="opacity:1;fill:url(#k);fill-opacity:1;fill-rule:nonzero;stroke:none;stroke-width:4;stroke-linecap:round;stroke-linejoin:round;stroke-dasharray:none;stroke-dashoffset:1;stroke-opacity:1;paint-order:markers stroke fill" transform="translate(-5.567 13.917)"/><path d="M233.132 163.53s-6.356-18.566-14.738-26.263L202.94 147.98m30.192 15.55s-18.806 5.608-29.94 3.254l-.252-18.804" style="fill:#ffcd3c;fill-opacity:1;stroke:none;stroke-width:2.04452;stroke-linecap:round;stroke-linejoin:round;stroke-dasharray:none;stroke-dashoffset:1;stroke-opacity:1;paint-order:markers stroke fill" transform="translate(-5.567 13.917)"/><path d="M211.87 152.85c7.4.175 18.308-2.894 24.696-6.502 0 0-17.306-25.852-31.304-28.48-12.623-2.37-22.892 5.516-28.484 15.686m35.093 19.296c4.111 6.156 7.363 17.01 7.738 24.336 0 0-31.1-.764-40.818-11.177-8.763-9.389-7.605-22.284-2.013-32.455" style="fill:url(#l);fill-opacity:1;stroke:none;stroke-width:2.04452;stroke-linecap:round;stroke-linejoin:round;stroke-dasharray:none;stroke-dashoffset:1;stroke-opacity:1;paint-order:markers stroke fill" transform="translate(-5.567 13.917)"/><path d="M100.83 38.6C79.456 52.147 68.635 74.031 72.068 94.795c3.07 18.557.762 29.347-3.137 38.943 18.537-9.495 34.208-17.042 31.825-46.064-1.992-24.27-5.407-30.46.074-49.076" style="font-variation-settings:&quot;wght&quot;900;fill:#6add52;fill-opacity:1;stroke:#000;stroke-width:0;stroke-linecap:round;stroke-linejoin:round;stroke-dashoffset:1;paint-order:fill markers stroke" transform="translate(-5.567 13.917)"/></g></svg>