<?xml version="1.0" encoding="UTF-8" standalone="no"?>
<!-- Created with Inkscape (http://www.inkscape.org/) -->

<svg
   width="100.62653mm"
   height="65.27906mm"
   viewBox="0 0 100.62653 65.27906"
   version="1.1"
   id="svg1"
   xml:space="preserve"
   inkscape:version="1.3 (0e150ed6c4, 2023-07-21)"
   sodipodi:docname="logo.svg"
   xmlns:inkscape="http://www.inkscape.org/namespaces/inkscape"
   xmlns:sodipodi="http://sodipodi.sourceforge.net/DTD/sodipodi-0.dtd"
   xmlns="http://www.w3.org/2000/svg"
   xmlns:svg="http://www.w3.org/2000/svg"><sodipodi:namedview
     id="namedview1"
     pagecolor="#ffffff"
     bordercolor="#000000"
     borderopacity="0.25"
     inkscape:showpageshadow="2"
     inkscape:pageopacity="0.0"
     inkscape:pagecheckerboard="0"
     inkscape:deskcolor="#d1d1d1"
     inkscape:document-units="mm"
     showguides="true"
     inkscape:zoom="0.7313903"
     inkscape:cx="72.464729"
     inkscape:cy="242.00485"
     inkscape:window-width="1920"
     inkscape:window-height="1017"
     inkscape:window-x="-8"
     inkscape:window-y="-8"
     inkscape:window-maximized="1"
     inkscape:current-layer="layer1" /><defs
     id="defs1" /><g
     inkscape:label="Capa 1"
     inkscape:groupmode="layer"
     id="layer1"
     transform="translate(-47.106335,-161.89883)"><path
       style="display:inline;fill:#ff597a;fill-opacity:1;stroke-width:0.99639"
       d="m 138.73372,222.56047 c 0.49963,-0.62295 0.45049,-0.68383 -1.23793,-1.53371 -1.40804,-0.70875 -4.3627,-3.90164 -5.09367,-5.50437 -0.33602,-0.73676 -0.87044,-2.81711 -1.18762,-4.62301 -0.61721,-3.51432 -1.43865,-6.38882 -2.51834,-8.81259 -0.67066,-1.50556 -0.67066,-1.50556 4.17775,-6.39386 0.49597,-1.01946 7.78745,-8.81794 7.97431,-8.54066 1.11153,1.64933 0.36847,0.29249 1.49819,2.14147 1.55515,2.54525 3.29886,4.94199 4.17937,8.194 1.88788,6.97254 1.59084,12.51602 -1.09991,17.48313 -0.90256,1.66611 -1.85837,3.15367 -4.27476,5.56983 -1.66159,1.66143 -2.66148,2.32412 -2.41739,2.01977 z m -65.462128,-2.51759 c -0.006,-0.0447 -0.036,-1.38143 -0.0661,-2.97062 -0.0496,-2.61626 -0.12264,-3.00399 -0.7723,-4.10113 -0.75461,-1.27436 -1.97917,-2.44333 -3.30108,-3.1512 -0.71928,-0.38517 -0.854,-0.68873 -1.51556,-3.41479 -1.32149,-5.44542 -2.64963,-7.41161 -5.57718,-8.25654 -1.552659,-0.44811 -2.926689,-0.3617 -4.477529,0.28161 -1.41305,0.58615 -1.85976,1.30693 -2.00595,3.23663 -0.13229,1.74625 -0.13229,1.74625 -1.22919,1.66067 -0.60329,-0.0471 -1.53461,0.0345 -2.06959,0.18106 -0.74482,0.20417 -0.91424,0.19345 -0.7232,-0.0458 0.13722,-0.17182 0.33143,-1.46293 0.43158,-2.86915 0.32723,-4.59447 2.05955,-9.58821 4.66621,-13.4512 3.64081,-5.39556 6.716529,-8.30701 12.393319,-11.73137 6.9499,-4.19234 13.38113,-5.53733 22.975081,-5.86798 5.85998,-0.20197 10.527277,0.44425 8.084407,-0.0286 -1.398147,-0.27065 -9.004277,7.29564 -15.137338,14.85455 -4.54017,5.5957 -6.46904,8.98994 -7.31438,12.87115 -0.94927,4.35836 0.0302,9.6327 2.52148,13.57735 0.58641,0.92852 1.07441,1.75928 1.0662,1.84527 -0.3837,4.02186 -7.86368,7.9897 -7.94884,7.38007 z m 1.31236,-21.18602 c 0.47267,-0.87683 -0.29603,-1.44549 -3.22403,-2.38501 -2.78063,-0.89223 -3.5056,-0.91824 -3.80772,-0.13661 -0.2645,0.68432 0.57104,1.24823 3.15902,2.13204 2.8654,0.97855 3.51975,1.04437 3.87273,0.38958 z m 2.25697,-4.48382 c 0.0813,-0.13066 0.079,-0.4158 -0.005,-0.63365 -0.17423,-0.45078 -5.68775,-3.59147 -6.30486,-3.59147 -0.48318,0 -1.00509,0.87064 -0.81567,1.36068 0.15632,0.40444 1.62939,1.34973 4.18273,2.68413 1.78116,0.93084 2.45027,0.97184 2.94301,0.18031 z m 33.238758,-8.01042 c -0.36102,-0.43187 -0.84386,-0.58872 3.80406,-5.58064 3.15851,-3.39225 4.06663,-4.88616 4.74833,-6.43924 0.23681,-0.53951 0.51743,-0.98494 0.93729,-0.84061 0.36104,0.12409 1.46598,0.80235 3.05629,1.72294 0.88202,0.76439 -0.363,0.40286 -2.30601,2.65646 -0.8218,0.96673 -2.13071,1.93731 -3.18118,3.77568 -4.26362,7.46153 -6.4463,5.43808 -7.05878,4.70541 z"
       id="path8-5"
       sodipodi:nodetypes="sssssssssssssssssssssssssssssssssssssssssssssssssscsss"
       inkscape:export-filename="..\Web Assets\nokorpo_logo.svg"
       inkscape:export-xdpi="96"
       inkscape:export-ydpi="96" /><path
       style="display:inline;fill:#000000;fill-opacity:1;stroke:#000000;stroke-width:0.5;stroke-dasharray:none;stroke-opacity:1"
       d="m 59.173563,226.51688 c -1.40562,-0.5119 -4.5013,-2.59605 -5.36303,-3.61061 -1.08798,-1.28096 -1.42969,-2.34662 -1.42969,-4.45864 0,-1.92498 0,-1.92498 -1.88617,-3.60154 -2.19967,-1.95522 -3.13432,-3.63225 -3.13833,-5.63104 -0.006,-3.15238 3.55085,-6.15379 6.97692,-5.8869 1.09029,0.085 1.09029,0.085 1.22258,-1.66131 0.14619,-1.9297 0.5929,-2.65048 2.00595,-3.23663 1.55084,-0.64331 2.92487,-0.72972 4.477529,-0.28161 2.92756,0.84493 4.25569,2.81112 5.57718,8.25654 0.66156,2.72606 0.79629,3.02962 1.51556,3.41479 1.32191,0.70787 2.54648,1.87684 3.30108,3.1512 0.65047,1.0985 0.72231,1.48162 0.76904,4.10113 0.0364,2.04176 0.15047,2.89483 0.35907,2.8144 6.3287,-2.44004 7.65918,-6.59954 7.65918,-7.22385 0,-0.0864 -0.4798,-0.91675 -1.06621,-1.84527 -2.49124,-3.94465 -3.47075,-9.21899 -2.52148,-13.57735 0.84534,-3.88121 2.77421,-7.27545 7.31438,-12.87115 8.722501,-10.75036 17.393008,-20.1748 19.587228,-21.29042 2.89043,-1.4696 5.63468,-1.22941 9.70823,0.8497 4.06975,2.07716 5.67651,4.04448 5.68151,6.75564 0.005,2.56541 -1.29541,4.70214 -5.81425,9.55541 -4.76522,5.11791 -4.42274,5.71076 -3.98672,6.14364 0.20466,0.20319 1.2071,0.7426 1.44603,0.65157 0.42576,-0.1622 3.89338,-4.39865 8.23976,-9.08039 4.20676,-4.53135 6.30724,-6.66727 9.23716,-8.26918 1.33481,-0.7298 2.0892,-1.09948 4.0327,-1.18211 1.86887,-0.0794 2.96894,0.16576 4.29372,0.60502 3.8673,1.28231 7.93092,6.48628 7.98204,10.222 0.0429,3.13145 -1.76156,5.54038 -11.64722,15.54937 -5.66623,5.7369 -5.66623,5.7369 -5.00336,7.22498 1.07201,2.40654 1.89473,5.28872 2.51055,8.7951 0.31718,1.8059 0.8516,3.88625 1.18762,4.62301 0.77649,1.70254 3.79544,4.89498 5.32339,5.62932 0.64414,0.30957 1.19273,0.70755 1.31499,0.79391 0.36716,0.25937 -1.79648,1.71978 -2.95397,2.09903 -0.50556,0.16564 -1.1926,0.23305 -1.52676,0.14979 -0.33416,-0.0833 -1.48872,-1.0697 -2.56569,-2.19206 -2.66032,-2.77246 -3.7758,-5.01034 -4.48689,-9.00159 -1.1625,-6.52492 -2.04009,-9.66595 -3.17654,-11.3693 -0.72392,-1.08504 -0.78623,-1.3083 -0.4744,-1.69987 1.77548,-2.22947 6.49858,-7.41499 10.65787,-11.70133 5.51638,-5.68488 7.16523,-7.9013 6.87443,-9.24069 -0.52859,-2.4345 -3.43479,-5.6281 -5.74015,-6.30779 -2.29332,-0.67613 -3.64591,-0.52686 -6.22342,0.68681 -2.14758,1.01122 -2.45957,1.65921 -6.53706,5.74569 -2.4011,2.40637 -5.72968,5.84946 -7.39685,7.6513 -1.66717,1.80184 -3.17632,3.36566 -3.35367,3.47516 -0.28738,0.17742 -6.0933,-2.66139 -6.65734,-3.22134 -0.23914,-0.23739 2.03623,-3.07495 6.62144,-8.25741 4.00627,-4.52812 4.96997,-5.96608 4.96997,-7.41572 0,-2.16563 -2.3521,-4.40201 -5.74166,-5.45917 -1.28473,-0.40068 -1.53498,-0.40308 -2.98959,-0.0285 -0.87313,0.22485 -2.06375,0.71947 -2.64584,1.09917 -1.62149,1.0577 -12.404617,12.11313 -15.027827,15.40733 -1.28031,1.6078 -2.92535,3.66295 -3.65565,4.567 -2.324091,2.87702 -4.629341,6.51943 -5.353301,8.45852 -2.20464,5.90493 -1.29716,11.40644 2.5894,15.69809 0.66372,0.73289 1.20676,1.4523 1.20676,1.59869 0,0.95472 -3.17266,5.97586 -6.57353,8.33703 -3.14494,2.18349 -4.51047,1.15965 -6.2174,2.31264 -0.95709,0.6465 -6.49746,3.45813 -7.3553,3.4972 -1.93768,0.0882 -4.599379,0.24149 -6.133969,-0.31743 z m 5.456059,-1.96077 c 2.36485,-0.72516 4.77902,-2.37392 5.65915,-3.86492 0.55132,-0.93399 0.73045,-1.63863 0.82388,-3.24086 0.25527,-4.37789 -1.84353,-5.93112 -5.95574,-4.40758 -2.08397,0.77211 -3.25229,1.95255 -3.24717,3.28088 0.005,1.30167 0.49072,2.2379 1.38077,2.66159 0.59032,0.28102 0.86873,0.27012 1.67822,-0.0656 1.50528,-0.62442 1.96419,-0.53725 1.96419,0.37309 0,0.42662 -0.13147,1.06215 -0.29216,1.41228 -0.27635,0.60215 -0.38734,0.62957 -2.05052,0.50658 -0.9671,-0.0715 -2.12581,-0.29761 -2.57492,-0.50242 -1.603859,-0.73145 -2.658429,-3.90462 -1.977949,-5.95163 0.41544,-1.24969 1.828649,-2.43926 4.178249,-3.51702 2.27573,-1.04388 2.26912,-1.0174 1.30444,-5.22618 -0.69268,-3.02211 -1.2809,-4.18552 -2.54317,-5.03004 -1.5945,-1.06679 -4.888569,-0.5717 -5.089159,0.76489 -0.17373,1.15763 0.32588,3.39581 1.37986,6.18158 0.58038,1.53401 0.9836,2.85906 0.89605,2.94456 -0.0875,0.0855 -1.18989,-0.93033 -2.44964,-2.2574 -3.31299,-3.49002 -4.32798,-3.8281 -6.59601,-2.19698 -1.46577,1.05414 -2.01735,2.31461 -1.64242,3.75318 0.23453,0.89985 0.7594,1.56217 2.67683,3.37778 2.38508,2.25845 2.38508,2.25845 2.20328,4.09016 -0.15604,1.57218 -0.10241,1.98623 0.37852,2.92213 1.04851,2.04044 5.03374,4.44091 7.474499,4.50221 0.38485,0.01 1.47427,-0.21993 2.42092,-0.51022 z m 36.890338,-9.7243 c -1.580037,-0.26685 -3.205147,-1.19995 -4.485597,-2.57554 -0.91746,-0.98561 -1.04803,-1.0431 -1.85034,-0.81466 -2.22784,0.63433 -5.88357,-0.20383 -7.59869,-1.74217 -2.147981,-1.92658 -2.954491,-5.81593 -1.911301,-9.21711 1.393471,-4.54325 4.382841,-7.55672 7.817141,-7.88016 1.80474,-0.16997 3.38353,0.63276 4.73058,2.40527 1.08426,1.4267 1.09438,1.42941 2.842427,0.76054 2.99518,-1.14608 6.32678,-0.34654 8.0857,1.94044 2.10045,2.73106 2.79892,8.37626 1.45308,11.74429 -1.46387,3.66341 -5.40877,5.99964 -9.083,5.3791 z m 3.69331,-2.05627 c 3.78464,-1.93646 5.56619,-5.84285 4.58596,-10.05561 -1.15889,-4.98058 -5.21177,-6.99572 -9.69258,-4.81927 -0.878757,0.42684 -1.565077,0.62591 -1.617697,0.46921 -0.75198,-2.2397 -2.23095,-3.61259 -4.20894,-3.90706 -4.30438,-0.64084 -8.465921,6.3917 -6.96252,11.7659 0.80514,2.87816 4.18333,4.35151 7.39669,3.22594 0.61867,-0.21671 1.18941,-0.39402 1.26831,-0.39402 0.0789,0 0.92713,0.83213 1.88497,1.84919 1.12105,1.19035 2.11857,1.98707 2.799837,2.23624 1.31015,0.47915 3.18381,0.32644 4.54597,-0.37052 z m -0.61391,-4.17861 c -0.1657,-0.10614 -0.42913,-0.65471 -0.58539,-1.21905 -0.71688,-2.5889 -2.8779,-3.29513 -4.802037,-1.5693 -0.8775,0.78704 -1.12821,0.89458 -1.45597,0.62452 -0.63029,-0.51932 -0.46416,-1.29744 0.47636,-2.23117 0.82943,-0.82345 2.512877,-1.52193 3.182317,-1.32038 0.17105,0.0515 0.63623,0.16432 1.03375,0.25071 0.8837,0.19206 2.47504,1.54143 2.99493,2.53953 0.52581,1.00947 0.50505,2.76092 -0.0352,2.96672 -0.50287,0.19158 -0.43974,0.19483 -0.80881,-0.0416 z m -10.889847,-3.28091 c -0.15164,-0.18139 -0.35944,-0.661 -0.46177,-1.06579 -0.10233,-0.40478 -0.46111,-0.91489 -0.79728,-1.13357 -0.64913,-0.42227 -1.28083,-0.24913 -2.29538,0.62911 -0.36806,0.3186 -0.53565,0.33259 -0.85293,0.0712 -0.34816,-0.28686 -0.34893,-0.41356 -0.006,-1.07101 0.92194,-1.77 2.92681,-2.10707 4.47998,-0.75319 1.11161,0.96897 1.72963,2.62924 1.21007,3.25076 -0.40809,0.48816 -0.90515,0.51642 -1.27622,0.0726 z"
       id="path7-5"
       sodipodi:nodetypes="ssssscsssssssssssssscssssssscssssssssssssssssssssssssssssssssssssssssscssssssssssssssssscssssssssssssssssssssssssssssssssssscsssscsscc" /></g></svg>
