<?xml version="1.0" encoding="UTF-8" standalone="no"?>
<svg
   width="350"
   height="350"
   version="1.1"
   id="svg1"
   sodipodi:docname="services.svg"
   inkscape:version="1.3 (0e150ed6c4, 2023-07-21)"
   xml:space="preserve"
   xmlns:inkscape="http://www.inkscape.org/namespaces/inkscape"
   xmlns:sodipodi="http://sodipodi.sourceforge.net/DTD/sodipodi-0.dtd"
   xmlns="http://www.w3.org/2000/svg"
   xmlns:svg="http://www.w3.org/2000/svg"><defs
     id="defs1" /><sodipodi:namedview
     id="namedview1"
     pagecolor="#505050"
     bordercolor="#eeeeee"
     borderopacity="1"
     inkscape:showpageshadow="0"
     inkscape:pageopacity="0"
     inkscape:pagecheckerboard="0"
     inkscape:deskcolor="#505050"
     inkscape:zoom="1.41"
     inkscape:cx="186.17021"
     inkscape:cy="208.51064"
     inkscape:window-width="1920"
     inkscape:window-height="1017"
     inkscape:window-x="-8"
     inkscape:window-y="-8"
     inkscape:window-maximized="1"
     inkscape:current-layer="svg1" /><rect
     style="fill:#20282e;fill-opacity:1;stroke-width:7;stroke-linecap:round;paint-order:stroke fill markers"
     id="rect2"
     width="350"
     height="350"
     x="0"
     y="0" /><path
     d="m 87.653652,214.35257 c -7.755638,0 -13.820331,2.44184 -18.199993,7.32506 -4.383043,4.88541 -6.570375,11.22624 -6.570375,19.03274 0,9.16565 2.239032,16.11396 6.717054,20.84671 4.485996,4.73223 10.375739,7.09558 17.677739,7.09558 3.926796,0 7.411999,-0.33853 10.457363,-1.01888 3.04844,-0.67767 5.07473,-1.37298 6.08302,-2.07668 l 0.30237,-23.63361 c 0,-1.37333 -3.62492,-1.99761 -7.690574,-2.06717 -4.065909,-0.0629 -8.719106,0.78497 -8.719106,0.78497 v 7.93603 h 4.679293 l -0.05194,3.53744 c 0,1.31048 -1.299176,1.96839 -3.890059,1.96839 -2.594197,0 -4.885463,-1.09791 -6.873195,-3.28873 -1.992168,-2.1935 -2.982953,-5.40032 -2.982953,-9.62521 0,-4.23381 0.968072,-7.35462 2.906715,-9.3691 1.934628,-2.01221 4.470976,-3.02193 7.590037,-3.02193 1.310462,0 2.667177,0.21137 4.078022,0.64285 1.411476,0.42745 2.353776,0.82807 2.834801,1.20341 0.476954,0.38599 0.930521,0.56921 1.359312,0.56921 0.426798,0 1.11819,-0.49977 2.074091,-1.50925 0.957306,-1.00676 1.814786,-2.5324 2.571426,-4.56668 0.75327,-2.04498 1.13061,-3.61256 1.13061,-4.72436 0,-1.1031 -0.0249,-1.86334 -0.0737,-2.26471 -1.05763,-1.15728 -3.00963,-2.07532 -5.856674,-2.75767 -2.841721,-0.68035 -6.028022,-1.01799 -9.552446,-1.01799 z m 46.336268,0 c -7.12516,0 -12.94203,2.29115 -17.44768,6.86965 -4.50473,4.58436 -6.75668,11.31673 -6.75668,20.20794 0,8.88649 2.22699,15.64612 6.67862,20.27833 4.45791,4.62855 10.22493,6.94299 17.29803,6.94299 7.07607,0 12.85035,-2.22508 17.33352,-6.67625 4.48333,-4.46063 6.72297,-11.25818 6.72297,-20.3972 0,-9.13194 -2.18906,-15.95959 -6.57393,-20.46405 -4.377,-4.51279 -10.13088,-6.762 -17.25485,-6.762 z m 100.16734,0 c -7.12752,0 -12.94084,2.29115 -17.45062,6.86965 -4.5041,4.58436 -6.75609,11.31673 -6.75609,20.20794 0,8.88649 2.22767,15.64612 6.68512,20.27833 4.45395,4.62855 10.21723,6.94299 17.2927,6.94299 7.07311,0 12.85212,-2.22508 17.33352,-6.67625 4.48269,-4.46063 6.72297,-11.25818 6.72297,-20.3972 0,-9.13194 -2.18894,-15.95959 -6.57037,-20.46405 -4.38233,-4.51279 -10.13207,-6.762 -17.25723,-6.762 z m -66.27156,0.67578 c -1.01013,0 -1.82715,0.36841 -2.45533,1.09424 -0.63213,0.73718 -0.94525,1.7311 -0.94525,2.99072 v 45.31128 c 0,2.31794 1.28664,3.47332 3.8528,3.47332 h 12.91186 c 15.81054,0 23.71878,-9.26263 23.71878,-27.79265 0,-8.66173 -2.07858,-15.00262 -6.23621,-19.02978 -4.15023,-4.02846 -10.22966,-6.04754 -18.23371,-6.04754 z m 94.22922,0 c -0.85693,0 -1.46122,1.16344 -1.81243,3.47936 -0.15117,1.10713 -0.22352,2.24295 -0.22352,3.39621 0,1.15995 0.0723,2.29108 0.22352,3.3962 0.35121,2.32197 0.95555,3.47765 1.81243,3.47765 h 9.06156 v 37.91703 c 0,1.00078 2.49614,1.50836 7.47884,1.50836 4.98707,0 7.47706,-0.5076 7.47706,-1.50836 v -37.91703 h 8.8368 c 0.85559,0 1.45762,-1.15568 1.8142,-3.47765 0.14784,-1.10512 0.22439,-2.2362 0.22439,-3.3962 0,-1.15326 -0.0765,-2.28908 -0.22439,-3.39621 -0.35655,-2.31593 -0.95861,-3.47936 -1.8142,-3.47936 z m -128.32018,13.82566 c 2.41895,0 4.44596,1.08163 6.08007,3.24373 1.63629,2.16474 2.45704,5.26475 2.45704,9.29161 0,4.03048 -0.79473,7.12633 -2.38082,9.28926 -1.58607,2.17078 -3.6517,3.25236 -6.1936,3.25236 -2.54341,0 -4.59318,-1.06892 -6.15401,-3.21427 -1.56337,-2.13867 -2.34354,-5.20745 -2.34354,-9.21651 0,-4.00037 0.82063,-7.10918 2.45355,-9.32415 1.64162,-2.2129 3.66549,-3.32257 6.08125,-3.32257 z m 100.16734,0 c 2.41896,0 4.4433,1.08163 6.08008,3.24373 1.63629,2.16474 2.45532,5.26475 2.45532,9.29161 0,4.03048 -0.79402,7.12633 -2.38081,9.28926 -1.58407,2.17078 -3.65099,3.25236 -6.19362,3.25236 -2.5434,0 -4.59518,-1.06892 -6.154,-3.21427 -1.5587,-2.13867 -2.34094,-5.20745 -2.34094,-9.21651 0,-4.00037 0.81697,-7.10918 2.44923,-9.32415 1.63897,-2.2129 3.66826,-3.32257 6.0848,-3.32257 z m -54.98025,0.52329 h 0.75545 c 3.22237,0 5.57734,0.73682 7.06423,2.1971 1.47974,1.45631 2.22397,4.59163 2.22397,9.40282 0,4.8091 -0.7114,8.24239 -2.15033,10.30476 -1.43555,2.06439 -3.53508,3.09989 -6.30719,3.09989 -0.75325,0 -1.20772,-0.13912 -1.3576,-0.41672 -0.15118,-0.27896 -0.22871,-0.94377 -0.22871,-1.99874 z"
     fill="#ffffff"
     stroke-width="1.33333"
     id="path1-2" /><g
     id="g1"
     transform="translate(96.411426,-48.213784)"><path
       d="m 127.74532,199.21816 c 0,0 -0.15488,-0.95022 -0.24542,-0.94167 l -17.24256,1.66363 c -1.37199,0.13247 -2.43753,1.22662 -2.53381,2.60146 l -0.4737,6.78934 -13.339351,0.95166 -0.907335,-6.15313 c -0.20206,-1.36865 -1.397219,-2.40036 -2.780662,-2.40036 H 72.023916 c -1.382934,0 -2.578126,1.03171 -2.780197,2.40036 l -0.907841,6.15313 -13.339352,-0.95166 -0.473703,-6.78934 c -0.09627,-1.37531 -1.161821,-2.46946 -2.533802,-2.60197 l -17.250992,-1.66316 c -0.08911,-0.009 -0.154401,0.9426 -0.243516,0.9426 l -0.02334,3.73139 14.610086,2.35605 0.478464,6.85 c 0.09674,1.38677 1.215668,2.50806 2.603365,2.60766 l 18.371313,1.31051 c 0.06958,0.005 0.1382,0.008 0.206823,0.008 1.380575,0 2.573829,-1.03222 2.775899,-2.40083 l 0.933543,-6.33135 h 13.34567 l 0.933546,6.33135 c 0.201575,1.36819 1.396292,2.40037 2.778765,2.40037 0.06767,0 0.135338,-0.002 0.201581,-0.007 l 18.373842,-1.31051 c 1.38723,-0.0996 2.50662,-1.22093 2.60336,-2.60766 l 0.47796,-6.85001 14.60376,-2.36653 z"
       fill="#ffffff"
       stroke-width="1.33333"
       id="path2" /><g
       stroke-width="2.96679"
       id="g5"
       transform="matrix(0.33706509,0,0,0.33706509,25.475561,128.42691)"><path
         d="m 133.04062,7.4975 c -14.39812,3.200906 -28.64156,7.656188 -41.995308,14.3775 0.305391,11.790937 1.067625,23.08875 2.612907,34.564687 -5.185875,3.3225 -10.635938,6.174094 -15.48,10.063125 -4.9215,3.786188 -9.94875,7.409719 -14.404688,11.837813 C 54.87075,72.452094 45.449156,66.918125 35.742281,62.032812 25.278844,73.294062 15.494156,85.44875 7.5019687,99.049063 13.514906,108.77656 19.792594,117.89375 26.570719,126.54594 h 0.188597 V 210.02 c 0.15269,9.4e-4 0.306487,0.008 0.457762,0.0219 l 51.174375,4.93284 c 2.680594,0.25873 4.781063,2.41688 4.967625,5.10319 l 1.578375,22.59 44.639067,3.186 3.07434,-20.85 c 0.39868,-2.70319 2.71856,-4.70578 5.45287,-4.70578 h 53.99063 c 2.73291,0 5.05237,2.00259 5.451,4.70578 l 3.07434,20.85 44.64094,-3.186 1.5765,-22.59 c 0.18804,-2.68622 2.28703,-4.84303 4.96763,-5.10319 l 51.15375,-4.93284 c 0.15127,-0.0142 0.30324,-0.0204 0.45592,-0.0219 v -6.66141 l 0.0219,-0.007 v -76.80562 h 0.18859 c 6.77925,-8.65256 13.05282,-17.77031 19.06875,-27.496876 -7.98946,-13.60125 -17.77875,-25.755938 -28.24218,-37.01625 -9.70407,4.88475 -19.13063,10.418437 -28.03313,16.307812 -4.4549,-4.428094 -9.4725,-8.051531 -14.40093,-11.837812 -4.84238,-3.889407 -10.30032,-6.741 -15.47626,-10.063125 1.54107,-11.475938 2.30429,-22.77375 2.61113,-34.564688 C 225.79766,15.153219 211.55516,10.697656 197.14954,7.4970312 191.39816,17.163594 186.1386,27.629844 181.55797,37.863594 176.1261,36.955916 170.66891,36.619437 165.20516,36.554375 v -0.0073 c -0.0382,0 -0.0737,0.0073 -0.1062,0.0073 -0.0338,0 -0.0704,-0.0073 -0.10437,-0.0073 v 0.0073 c -5.47434,0.065 -10.9275,0.401531 -16.36031,1.309219 -4.57791,-10.232813 -9.83344,-20.7 -15.59344,-30.3665628 z M 26.671875,221.06 c 0.02125,4.9455 0.08423,10.36313 0.08423,11.44219 0,48.59812 61.65,71.95687 138.243745,72.22594 h 0.1886 c 76.59469,-0.26864 138.225,-23.62782 138.225,-72.22594 0,-1.09856 0.0671,-6.49388 0.0897,-11.44219 l -45.9975,4.43663 -1.58569,22.71093 c -0.19087,2.73713 -2.36785,4.91578 -5.10497,5.11228 l -54.51094,3.88913 c -0.1329,0.01 -0.26585,0.0146 -0.39733,0.0146 -2.70891,0 -5.04544,-1.98928 -5.44556,-4.70943 l -3.12563,-21.19782 h -44.47781 l -3.12562,21.19782 c -0.41991,2.85309 -2.97,4.90547 -5.84288,4.69481 l -54.510932,-3.88913 c -2.737125,-0.19651 -4.914094,-2.37515 -5.104969,-5.11228 L 72.689428,225.49663 26.673178,221.06 Z"
         fill="#478cbf"
         id="path3"
         style="stroke-width:2.96679" /><path
         d="m 92.552813,129.60687 c -17.025001,0 -30.835313,13.79626 -30.835313,30.82407 0,17.03906 13.809375,30.84187 30.835312,30.84187 17.033438,0 30.839998,-13.80281 30.839998,-30.84187 0,-17.02782 -13.80656,-30.82407 -30.839997,-30.82407 z m 145.087497,0 c -17.03625,0 -30.84187,13.79626 -30.84187,30.82407 0,17.03906 13.80562,30.84187 30.84187,30.84187 17.02406,0 30.83156,-13.80281 30.83156,-30.84187 0,-17.02782 -13.8075,-30.82407 -30.83156,-30.82407 z M 165.09,147.64438 c -5.48278,0 -9.92625,4.04493 -9.92625,9.02156 v 28.39031 c 0,4.98084 4.44337,9.02156 9.92625,9.02156 5.48287,0 9.9375,-4.04072 9.9375,-9.02156 v -28.39031 c 0,-4.97663 -4.45434,-9.02156 -9.9375,-9.02156 z"
         fill="#ffffff"
         id="path4"
         style="stroke-width:2.96679" /><path
         d="m 95.503125,141.79437 c -11.305312,0 -20.469375,9.16913 -20.469375,20.47125 0,11.30213 9.164438,20.46188 20.469375,20.46188 11.310935,0 20.471255,-9.15994 20.471255,-20.46188 0,-11.30193 -9.16069,-20.47125 -20.471255,-20.47125 z m 139.181255,0 c -11.30251,0 -20.46001,9.16913 -20.46001,20.47125 0,11.30213 9.15816,20.46188 20.46001,20.46188 11.31375,0 20.46937,-9.15994 20.46937,-20.46188 0,-11.30193 -9.156,-20.47125 -20.46937,-20.47125 z"
         fill="#414042"
         id="path5"
         style="stroke-width:2.96679" /></g></g></svg>
