<?xml version="1.0" encoding="UTF-8" standalone="no"?>
<!-- Created with Inkscape (http://www.inkscape.org/) -->

<svg
   width="98.92794"
   height="98.928856"
   id="svg3070"
   version="1.1"
   inkscape:version="1.3 (0e150ed6c4, 2023-07-21)"
   sodipodi:docname="email.svg"
   xml:space="preserve"
   xmlns:inkscape="http://www.inkscape.org/namespaces/inkscape"
   xmlns:sodipodi="http://sodipodi.sourceforge.net/DTD/sodipodi-0.dtd"
   xmlns:xlink="http://www.w3.org/1999/xlink"
   xmlns="http://www.w3.org/2000/svg"
   xmlns:svg="http://www.w3.org/2000/svg"
   xmlns:rdf="http://www.w3.org/1999/02/22-rdf-syntax-ns#"
   xmlns:cc="http://creativecommons.org/ns#"
   xmlns:dc="http://purl.org/dc/elements/1.1/"><defs
     id="defs3072"><linearGradient
       id="b"><stop
         offset="0"
         stop-color="#3771c8"
         id="stop2" /><stop
         stop-color="#3771c8"
         offset=".128"
         id="stop4" /><stop
         offset="1"
         stop-color="#60f"
         stop-opacity="0"
         id="stop6" /></linearGradient><linearGradient
       id="a"><stop
         offset="0"
         stop-color="#fd5"
         id="stop9" /><stop
         offset=".1"
         stop-color="#fd5"
         id="stop11" /><stop
         offset=".5"
         stop-color="#ff543e"
         id="stop13" /><stop
         offset="1"
         stop-color="#c837ab"
         id="stop15" /></linearGradient><radialGradient
       id="c"
       cx="158.429"
       cy="578.08801"
       r="65"
       xlink:href="#a"
       gradientUnits="userSpaceOnUse"
       gradientTransform="matrix(0,-1.98198,1.8439,0,-1031.402,454.004)"
       fx="158.429"
       fy="578.08801" /><radialGradient
       id="d"
       cx="147.694"
       cy="473.45499"
       r="65"
       xlink:href="#b"
       gradientUnits="userSpaceOnUse"
       gradientTransform="matrix(0.17394,0.86872,-3.5818,0.71718,1648.348,-458.493)"
       fx="147.694"
       fy="473.45499" /></defs><sodipodi:namedview
     id="base"
     pagecolor="#ffffff"
     bordercolor="#666666"
     borderopacity="1.0"
     inkscape:pageopacity="0.0"
     inkscape:pageshadow="2"
     inkscape:zoom="3.7675165"
     inkscape:cx="55.739637"
     inkscape:cy="62.375308"
     inkscape:document-units="px"
     inkscape:current-layer="layer1"
     showgrid="false"
     fit-margin-top="0"
     fit-margin-left="0"
     fit-margin-right="0"
     fit-margin-bottom="0"
     inkscape:window-width="1920"
     inkscape:window-height="1017"
     inkscape:window-x="-8"
     inkscape:window-y="-8"
     inkscape:window-maximized="1"
     inkscape:showpageshadow="0"
     inkscape:pagecheckerboard="0"
     inkscape:deskcolor="#d1d1d1" /><metadata
     id="metadata3075"><rdf:RDF><cc:Work
         rdf:about=""><dc:format>image/svg+xml</dc:format><dc:type
           rdf:resource="http://purl.org/dc/dcmitype/StillImage" /></cc:Work></rdf:RDF></metadata><g
     inkscape:label="Layer 1"
     inkscape:groupmode="layer"
     id="layer1"
     transform="translate(-269.61371,-391.28104)"><path
       id="rect1"
       style="opacity:1;fill:#ff597a;fill-opacity:1;stroke-width:3.77953;stroke-linecap:round;stroke-linejoin:round;stroke-dasharray:15.1181, 15.1181;paint-order:stroke fill markers"
       d="m 291.86371,391.28104 c -12.32601,0 -22.25,9.92399 -22.25,22.25 v 54.42969 c 0,12.32601 9.92399,22.25 22.25,22.25 h 54.42969 c 12.32601,0 22.24804,-9.92399 22.24804,-22.25 v -54.42969 c 0,-12.32601 -9.92203,-22.25 -22.24804,-22.25 z m 58.07215,24.11083 c 1.41218,0.0244 2.75683,0.6088 3.73813,1.62463 2.04338,2.11559 1.98471,5.48714 -0.13105,7.53034 l -17.8315,17.222 17.82109,17.11176 c 2.12167,2.03739 2.18966,5.40907 0.15187,7.53033 -2.03739,2.12167 -5.40908,2.18966 -7.53035,0.15186 l -18.10816,-17.39258 -5.265,5.08402 c -2.04867,1.9782 -5.29106,1.99469 -7.35976,0.0375 l -5.51462,-5.21716 -18.2101,17.48827 c -2.12127,2.03779 -5.49295,1.9698 -7.53034,-0.15186 -2.03723,-2.12183 -1.96831,-5.49353 0.15394,-7.53033 l 17.84191,-17.13256 -17.60269,-16.65411 c -2.13631,-2.02143 -2.22944,-5.39194 -0.20801,-7.52825 2.02143,-2.13631 5.39194,-2.22944 7.52825,-0.20802 l 27.16537,25.69884 27.09882,-26.17105 c 1.016,-0.98103 2.38008,-1.51828 3.7922,-1.49358 z"
       sodipodi:nodetypes="ssssssssscccccccccccccccccccccc" /></g></svg>
