<?xml version="1.0" encoding="UTF-8" standalone="no"?>
<svg
   width="79"
   height="79"
   viewBox="0 0 79 79"
   fill="#209060"
   version="1.1"
   id="svg1"
   sodipodi:docname="steam.svg"
   xml:space="preserve"
   inkscape:version="1.3 (0e150ed6c4, 2023-07-21)"
   xmlns:inkscape="http://www.inkscape.org/namespaces/inkscape"
   xmlns:sodipodi="http://sodipodi.sourceforge.net/DTD/sodipodi-0.dtd"
   xmlns="http://www.w3.org/2000/svg"
   xmlns:svg="http://www.w3.org/2000/svg"><sodipodi:namedview
     id="namedview1"
     pagecolor="#505050"
     bordercolor="#eeeeee"
     borderopacity="1"
     inkscape:showpageshadow="0"
     inkscape:pageopacity="0"
     inkscape:pagecheckerboard="0"
     inkscape:deskcolor="#505050"
     inkscape:zoom="6.4087146"
     inkscape:cx="47.747484"
     inkscape:cy="35.264482"
     inkscape:window-width="1440"
     inkscape:window-height="837"
     inkscape:window-x="1912"
     inkscape:window-y="166"
     inkscape:window-maximized="1"
     inkscape:current-layer="svg1" /><defs
     id="defs1"><linearGradient
       id="A"
       x2="32.010761"
       x1="32.010761"
       y2="63.965492"
       y1="0"
       gradientTransform="scale(0.99946079,1.0005395)"
       gradientUnits="userSpaceOnUse"><stop
         stop-color="#111d2e"
         offset="0%"
         id="stop1" /><stop
         stop-color="#051839"
         offset="21.2%"
         id="stop2" /><stop
         stop-color="#0a1b48"
         offset="40.7%"
         id="stop3" /><stop
         stop-color="#132e62"
         offset="58.1%"
         id="stop4" /><stop
         stop-color="#144b7e"
         offset="73.8%"
         id="stop5" /><stop
         stop-color="#136497"
         offset="87.3%"
         id="stop6" /><stop
         stop-color="#1387b8"
         offset="100%"
         id="stop7" /></linearGradient><linearGradient
       id="A-4"
       x2="32.010761"
       x1="32.010761"
       y2="63.965492"
       y1="0"
       gradientTransform="scale(0.99946079,1.0005395)"
       gradientUnits="userSpaceOnUse"><stop
         stop-color="#111d2e"
         offset="0%"
         id="stop1-8" /><stop
         stop-color="#051839"
         offset="21.2%"
         id="stop2-6" /><stop
         stop-color="#0a1b48"
         offset="40.7%"
         id="stop3-1" /><stop
         stop-color="#132e62"
         offset="58.1%"
         id="stop4-3" /><stop
         stop-color="#144b7e"
         offset="73.8%"
         id="stop5-0" /><stop
         stop-color="#136497"
         offset="87.3%"
         id="stop6-2" /><stop
         stop-color="#1387b8"
         offset="100%"
         id="stop7-6" /></linearGradient></defs><g
     id="use1"
     style="fill:#ff597a;fill-opacity:1"
     transform="matrix(1.234375,0,0,1.234375,-1.5366955e-4,0)"><g
       id="g4"
       style="fill:#ff597a;fill-opacity:1"><path
         id="path3"
         style="fill:#ff597a;stroke:none;fill-opacity:1"
         d="M 31.958985 0 C 15.001002 0 1.1246044 13.192434 0.028605504 29.873418 C 0.033193995 29.88111 0.036687676 29.88789 0.041263732 29.89557 L 0.041263732 29.892405 L 17.237466 36.97943 A 8.14 8.14 0 0 1 18.734302 36.18038 C 19.9423 35.68338 21.214721 35.459405 22.482719 35.517405 L 30.313416 24.142405 L 30.310251 23.985759 L 30.300757 23.985759 C 30.300757 17.271766 35.752245 11.811709 42.454238 11.811709 C 49.169232 11.825709 54.609302 17.271766 54.609302 23.985759 C 54.609302 30.699753 49.159232 36.164557 42.454238 36.164557 L 42.180504 36.15981 L 30.987466 44.164557 A 8.89 8.89 0 0 1 30.30234 47.821203 A 8.88 8.88 0 0 1 18.699492 52.602848 C 15.937494 51.452849 14.057402 49.060276 13.457403 46.332278 L 1.3482258 41.335443 C 5.3446778 54.45052 17.537074 64 31.958985 64 C 49.631968 64 63.958985 49.672982 63.958985 32 C 63.958985 14.327018 49.631968 0 31.958985 0 z M 42.465314 15.876582 A 8.12 8.12 0 0 0 34.367213 23.987342 A 8.12 8.12 0 0 0 42.465314 32.099684 A 8.12 8.12 0 0 0 50.56658 23.987342 A 8.12 8.12 0 0 0 42.465314 15.876582 z M 42.477973 17.879747 C 45.832969 17.879747 48.561833 20.609687 48.561833 23.974684 A 6.09 6.09 0 0 1 42.477973 30.066456 A 6.09 6.09 0 0 1 36.397276 23.974684 A 6.09 6.09 0 0 1 42.477973 17.879747 z M 22.174175 37.544304 C 21.318676 37.537179 20.47425 37.692089 19.685251 37.992089 L 23.786517 39.686709 A 5.05 5.05 0 0 1 26.501707 46.287975 A 5.04 5.04 0 0 1 19.909935 49.006329 L 15.952656 47.367089 A 6.84 6.84 0 0 0 19.47639 50.72943 C 22.963387 52.182429 26.976506 50.534807 28.430504 47.03481 L 28.422593 47.03481 C 29.124592 45.348812 29.128086 43.482555 28.432087 41.789557 C 27.736087 40.096559 26.435882 38.77262 24.735884 38.06962 C 23.896885 37.721121 23.029674 37.551429 22.174175 37.544304 z " /></g></g></svg>
