<?xml version="1.0" encoding="UTF-8" standalone="no"?>
<!-- Created with Inkscape (http://www.inkscape.org/) -->

<svg
   width="780"
   height="780"
   viewBox="0 0 206.37499 206.375"
   version="1.1"
   id="svg1"
   inkscape:version="1.4.3 (0d15f75042, 2025-12-25)"
   sodipodi:docname="icon_docs.svg"
   xmlns:inkscape="http://www.inkscape.org/namespaces/inkscape"
   xmlns:sodipodi="http://sodipodi.sourceforge.net/DTD/sodipodi-0.dtd"
   xmlns="http://www.w3.org/2000/svg"
   xmlns:svg="http://www.w3.org/2000/svg">
  <sodipodi:namedview
     id="namedview1"
     pagecolor="#ffffff"
     bordercolor="#000000"
     borderopacity="0.25"
     inkscape:showpageshadow="2"
     inkscape:pageopacity="0.0"
     inkscape:pagecheckerboard="0"
     inkscape:deskcolor="#d1d1d1"
     inkscape:document-units="mm"
     inkscape:zoom="0.25417602"
     inkscape:cx="938.32613"
     inkscape:cy="580.30651"
     inkscape:window-width="1920"
     inkscape:window-height="1052"
     inkscape:window-x="0"
     inkscape:window-y="0"
     inkscape:window-maximized="1"
     inkscape:current-layer="g5" />
  <defs
     id="defs1">
    <inkscape:path-effect
       effect="roughen"
       id="path-effect142-9"
       is_visible="true"
       lpeversion="1.2"
       global_randomize="0.4;1"
       displace_x="0.7;1"
       displace_y="0.4;1"
       method="size"
       max_segment_size="1.52604"
       segments="2"
       handles="along"
       shift_nodes="true"
       fixed_displacement="false"
       spray_tool_friendly="false" />
    <inkscape:path-effect
       effect="roughen"
       id="path-effect132"
       is_visible="true"
       lpeversion="1.2"
       global_randomize="0.4;1"
       displace_x="0.5;1"
       displace_y="0.5;1"
       method="size"
       max_segment_size="1.14722"
       segments="2"
       handles="along"
       shift_nodes="true"
       fixed_displacement="false"
       spray_tool_friendly="false" />
  </defs>
  <g
     inkscape:label="Capa 1"
     inkscape:groupmode="layer"
     id="layer1"
     transform="translate(70.908165,-57.408918)">
    <g
       id="g5"
       transform="translate(-9285.429,-11.265324)">
      <g
         id="g1"
         inkscape:export-filename="D:\AaProjects\Nokorpo\Art\Gato\2D\Web Assets\read_docs.png"
         inkscape:export-xdpi="23.962503"
         inkscape:export-ydpi="23.962503"
         transform="matrix(2.1153943,0,0,2.1153943,-10277.825,-76.59886)">
        <path
           style="fill:#ff597a;fill-opacity:1;stroke:none;stroke-width:3.17499;stroke-linecap:round;stroke-linejoin:round;stroke-dasharray:none;stroke-opacity:1;paint-order:stroke fill markers"
           d="m 9295.8389,73.178081 c -18.194,-1.264501 -54.2117,1.582641 -81.3176,2.373961 v 72.066708 c 5.3669,6.22924 55.9838,-0.90435 83.9757,-1.35654 -0.886,-24.36137 3.2005,-73.649589 -2.6581,-73.084129 z"
           id="path130"
           sodipodi:nodetypes="ccccc" />
        <path
           style="fill:#e2e2e2;fill-opacity:1;stroke:#000000;stroke-width:5.29167;stroke-linecap:round;stroke-linejoin:round;stroke-dasharray:none;stroke-opacity:1;paint-order:stroke fill markers"
           d="m 9263.3338,124.69257 c 0,0 -12.5663,4.70832 -10.5955,5.5747 1.9712,0.86638 16.0632,6.45339 16.0632,6.45339 l 8.1378,-5.587 -3.6367,-8.34277 z"
           id="path132" />
        <path
           style="fill:#fffcf9;fill-opacity:1;stroke:#000000;stroke-width:4.23333;stroke-linecap:round;stroke-linejoin:round;stroke-dasharray:none;stroke-opacity:1;paint-order:markers stroke fill"
           d="m 9254.9821,88.922225 c 0,0 -0.436,-0.110796 -0.8532,-0.160558 -0.4493,-0.10351 -0.8135,-0.06623 -1.2741,-0.06893 -0.4732,-0.0028 -1.0296,-0.03178 -1.2043,0.07298 -0.026,0.0155 -0.093,-0.04481 -0.1491,-0.117449 -0.077,-0.09674 -0.1194,-0.172707 -0.1961,-0.307907 -0.086,-0.151217 -0.1521,-0.319303 -0.2639,-0.541198 -0.083,-0.209703 -0.2794,-0.549235 -0.4202,-0.842606 -0.1635,-0.323442 -0.2045,-0.529399 -0.3504,-0.838826 -0.1036,-0.321446 -0.3364,-0.715274 -0.521,-1.106642 -0.1765,-0.374927 -0.3319,-0.75201 -0.5267,-1.160542 -0.167,-0.398843 -0.4016,-0.845977 -0.6166,-1.287296 -0.2065,-0.431113 -0.4234,-0.87441 -0.6478,-1.3218 -0.2186,-0.446448 -0.4967,-1.01654 -0.7321,-1.469041 -0.2586,-0.533283 -0.4717,-0.901017 -0.695,-1.312188 -0.2663,-0.495752 -0.412,-0.843851 -0.6483,-1.255818 -0.2015,-0.442027 -0.5101,-0.876271 -0.7703,-1.296126 -0.2533,-0.410974 -0.5106,-0.810631 -0.7698,-1.19174 -0.2552,-0.378712 -0.5106,-0.738725 -0.7706,-1.078855 -0.2516,-0.335379 -0.3523,-0.651589 -0.6119,-0.942588 -0.1149,-0.310712 -0.603,-0.742394 -0.9016,-0.989943 -0.2631,-0.336476 -0.4704,-0.355483 -0.7074,-0.482488 -0.2488,-0.133739 -0.517,-0.235291 -0.7665,-0.299911 -0.2404,-0.06224 -0.3753,-0.05556 -0.5878,-0.05626 0,0 -0.016,-0.01302 -0.042,-0.0091 -0.029,-0.01047 -0.066,0.0022 -0.1163,0.01247 -0.051,0.0021 -0.1259,-0.0039 -0.1989,0.01512 -0.084,-0.0097 -0.1742,0.01296 -0.2647,0.04235 -0.1109,-1.5e-5 -0.1973,-0.006 -0.3037,0.03604 -0.1247,-0.02443 -0.2525,0.08676 -0.3854,0.1507 -0.1362,0.04689 -0.2599,0.124704 -0.3972,0.203214 -0.1415,0.07479 -0.302,0.06902 -0.4501,0.168827 -0.1798,0.0087 -0.214,0.262217 -0.3822,0.39707 -0.059,0.169828 -0.3162,0.306754 -0.4917,0.472411 -0.1321,0.170505 -0.2699,0.345389 -0.4309,0.520803 -0.1125,0.20957 -0.2173,0.374091 -0.379,0.576914 -0.065,0.224099 -0.3784,0.378213 -0.548,0.624393 -0.2027,0.174996 -0.291,0.512008 -0.4525,0.784657 -0.1194,0.282198 -0.3436,0.402209 -0.4953,0.699775 -0.2005,0.187004 -0.3202,0.690562 -0.479,1.064927 -0.131,0.346348 -0.204,0.692518 -0.3371,1.066456 -0.059,0.384866 -0.2953,0.752052 -0.4207,1.176273 -0.1534,0.391983 -0.1931,0.908646 -0.305,1.378339 -0.057,0.492071 -0.2303,0.910267 -0.3247,1.408713 -0.1171,0.49298 -0.1939,1.046382 -0.2732,1.609645 -0.086,0.554027 -0.1923,1.026524 -0.2503,1.637967 -0.1053,0.524222 -0.1373,1.271145 -0.17,1.980086 -0.06,0.628766 -0.084,1.292262 -0.085,2.034052 -0.037,0.649926 9e-4,1.461741 0.034,2.281713 0.019,0.725076 0.075,1.494431 0.1415,2.364447 0.059,0.724252 0.1481,1.740596 0.2468,2.697854 0.096,0.934098 0.2127,1.957987 0.3325,2.884644 0,0 0.1353,0.08809 0.094,0.193219 0.1152,0.14163 -0.042,0.283969 -0.122,0.492236 -0.012,0.211605 -0.1856,0.265085 -0.2879,0.541975 -0.1333,0.13726 -0.2495,0.66739 -0.386,1.06514 -0.1217,0.33571 -0.2045,0.73968 -0.3283,1.13075 -0.087,0.41535 -0.2524,0.78939 -0.3742,1.21207 -0.1297,0.42521 -0.1643,0.9022 -0.2789,1.3577 -0.033,0.47772 -0.2217,0.91593 -0.3206,1.37981 -0.098,0.4665 -0.1021,0.9536 -0.1768,1.41734 0.012,0.4819 -0.1411,0.91473 -0.1871,1.361 -0.05,0.44631 -0.1039,0.84304 -0.1086,1.26597 -0.034,0.39015 0.067,0.88506 0.1246,1.28679 0.102,0.40198 0.1416,0.74584 0.2481,1.06941 0.1112,0.3381 0.2746,0.65484 0.4758,0.92306 0,0 -0.048,0.0301 -0.2231,0.0197 -0.1354,0.0249 -0.3525,0.007 -0.6908,-0.0134 -0.2384,0.0139 -0.7876,-0.14223 -1.2466,-0.17091 -0.4433,-0.12132 -0.8442,-0.0422 -1.3119,-0.0682 -0.4785,-0.0177 -1.0302,-0.10431 -1.5497,-0.13096 -0.5352,-0.0757 -0.911,-0.0329 -1.4121,-0.0536 -0.4358,-0.006 -0.9784,2e-5 -1.4865,-0.0175 -0.3926,0.0257 -0.9824,-0.0986 -1.4145,-0.11652 -0.39,-0.0777 -0.7501,-0.0298 -1.0328,-0.0241 -0.2853,0.006 -0.4289,0.0368 -0.5541,0.0406 -0.2022,0.006 -0.4526,0.0585 -0.7123,0.17277 -0.2676,0.10079 -0.5415,0.14143 -0.8104,0.34205 -0.2977,0.0823 -0.5703,0.49132 -0.8128,0.79111 -0.2152,0.27908 -0.3736,0.59452 -0.503,0.90944 -0.088,0.32219 -0.2095,0.57323 -0.2079,0.88887 -0.011,0.28103 0.064,0.62071 0.2489,0.94308 0.1633,0.28342 0.5822,0.68129 0.9954,0.97735 0.4158,0.29793 0.8335,0.50268 1.5187,0.73107 0,0 0.067,-0.0195 0.225,-0.0116 0.1429,-0.0159 0.3989,0.0185 0.699,0.0329 0.2907,0.0127 0.6475,0.0308 1.0439,0.0488 0.4009,0.0182 0.8713,0.0428 1.3458,0.0627 0.5011,0.025 0.9261,-0.0516 1.4441,-0.0322 0.5043,-0.0708 1.1076,-0.0115 1.6814,0.009 0.5576,-0.033 1.2412,0.0803 1.8031,0.0997 0.6365,0.0576 1.0324,-0.0934 1.5302,-0.0804 0.535,-0.11344 1.059,0.0107 1.5466,0.0244 0.4848,-0.005 0.9403,0.0261 1.3493,0.0343 0.4082,0.008 0.8836,0.0571 1.1897,0.0519 0.3853,0.0407 0.4637,-0.0454 0.612,-0.0767 0.1846,-0.039 0.3782,-0.0306 0.405,-0.0932 l 0.4129,0.74088 0.419,0.61096 c 0,0.0155 -0.1393,-0.005 -0.3261,0.0513 -0.2211,-0.003 -0.3209,0.14274 -0.6447,0.23128 -0.2341,0.11224 -0.7181,0.24475 -1.2046,0.37435 -0.3805,0.15224 -0.944,0.2697 -1.4713,0.41014 -0.49,0.14988 -1.0031,0.2916 -1.5346,0.43642 -0.5005,0.16053 -1.0555,0.31266 -1.5748,0.46066 -0.4931,0.16401 -1.0046,0.29486 -1.4597,0.43499 -0.4463,0.14275 -0.7612,0.2973 -1.112,0.42441 -0.2678,0.15817 -0.6016,0.27951 -0.837,0.38894 -0.2128,0.0989 -0.3368,0.16482 -0.356,0.25118 -0.034,0.15504 0.06,0.3969 0,0.6576 0.096,0.28083 -0.075,0.58886 -0.1124,0.90037 0,0.32656 -0.028,0.62094 -0,0.9158 0.051,0.31984 0.088,0.58059 0.2275,0.83285 0.1445,0.2676 0.3797,0.4811 0.7385,0.64611 0.3455,0.15891 0.8605,0.31747 1.4593,0.31747 0.2929,0 0.6316,-0.0215 0.9823,-0.0798 0.3612,-0.0476 0.6907,-0.22823 1.0807,-0.33325 0.3642,-0.19245 0.8024,-0.24203 1.2251,-0.38409 0.4174,-0.1508 0.8515,-0.30078 1.2862,-0.46757 0.4336,-0.1694 0.85,-0.39515 1.2836,-0.57704 0.4107,-0.2333 0.8637,-0.36795 1.2818,-0.55293 0.4179,-0.18489 0.8369,-0.35929 1.2236,-0.5375 0.3975,-0.16765 0.7317,-0.36906 1.0695,-0.53078 0.3249,-0.18396 0.6926,-0.29073 0.9736,-0.4268 0.3071,-0.10664 0.5451,-0.2231 0.7396,-0.32428 0.2323,-0.0735 0.4052,-0.15179 0.5024,-0.21732 0.1015,-0.0684 0.086,-0.15149 0.086,-0.15149 0,0 0.1653,0.0259 0.2076,0.0409 0.1591,0.0234 0.055,0.0284 0.076,0.0357 0.089,0.0399 0.1468,0.0383 0.2674,0.0784 0.1061,0.0226 0.2633,0.0835 0.435,0.13748 0.1538,0.0453 0.3353,0.10285 0.534,0.16175 0.1923,0.0559 0.4195,0.13109 0.6499,0.19519 0.2367,0.0746 0.4572,0.11869 0.7129,0.18509 0.2568,0.0601 0.5357,0.1141 0.8305,0.18481 0.2887,0.0467 0.5799,0.0742 0.9046,0.14545 0.3071,0.005 0.6825,0.14747 1.0437,0.21932 0.3506,0.0708 0.6986,0.1307 1.07,0.19672 0.3691,0.0608 0.746,0.0909 1.1456,0.15291 0.3871,0.0221 0.8086,0.11115 1.2358,0.16736 0.412,0.0443 0.9669,0.12378 1.4111,0.17126 0.5154,0.0594 0.8118,0.0594 1.2319,0.0942 0.4558,0.0149 0.9905,0.1115 1.469,0.13775 0.5165,0.0658 0.8853,-0.035 1.3563,-0.0233 0.4675,-0.0664 1.1425,0.0622 1.6621,0.0592 0.5929,0.0416 0.944,-0.0111 1.4195,-0.0294 0.524,-0.0182 1.043,-0.0501 1.5711,-0.0907 0.5313,-0.0411 1.0749,-0.0912 1.6146,-0.15504 0.5457,-0.062 1.0784,-0.14066 1.6236,-0.22915 0.5462,-0.0903 1.1166,-0.1739 1.671,-0.28964 0.5674,-0.0979 1.1015,-0.24171 1.6542,-0.38711 0.5573,-0.14293 1.1067,-0.49163 1.6669,-0.66876 0.5547,-0.17538 1.1184,-0.18062 1.6831,-0.38488 0,0 0.056,-0.0141 0.2171,0.0434 0.1366,0.0145 0.4341,0.1644 0.7446,0.27549 0.3052,0.11809 0.6851,0.25474 1.0648,0.38979 0.4312,0.16335 0.7728,0.26552 1.208,0.41885 0.4509,0.15011 0.9432,0.29974 1.4456,0.47492 0.4927,0.13986 1.008,0.29471 1.5192,0.47185 0.5025,0.11747 0.9979,0.32383 1.4874,0.49435 0.4652,0.13883 1.025,0.35048 1.4608,0.50203 0.4691,0.15543 0.7802,0.27112 1.1014,0.37937 0.3489,0.11793 0.6576,0.23182 0.8807,0.29601 0.2275,0.0655 0.4815,0.10771 0.5678,0.10771 0.155,0 0.339,-0.0542 0.5706,-0.10104 0.2086,-0.0834 0.4885,-0.1277 0.7375,-0.24223 0.2401,-0.11701 0.5057,-0.25418 0.7022,-0.45116 0.2265,-0.1927 0.4033,-0.4308 0.488,-0.7404 0.1355,-0.30091 0.2257,-0.69479 0.1174,-1.15719 -0.105,-0.44861 -0.3566,-0.93928 -0.681,-1.53702 0,0 -0.035,-0.004 -0.1772,-0.0607 -0.1077,-0.0324 -0.2911,-0.10644 -0.5744,-0.21552 -0.1992,-0.0678 -0.6548,-0.27461 -1.0452,-0.42005 -0.3764,-0.16449 -0.6468,-0.25918 -1.0562,-0.40419 -0.3619,-0.14799 -0.9682,-0.40919 -1.4712,-0.57419 -0.4968,-0.23619 -0.9583,-0.33066 -1.4325,-0.46369 -0.521,-0.17682 -0.9617,-0.25827 -1.4427,-0.36889 -0.4952,-0.1139 -0.9086,-0.21012 -1.3776,-0.31435 l 0.8235,-0.69027 0.8507,-0.65027 c -0,-0.001 0.038,-0.13829 0.177,-0.13767 0.1098,-0.13653 0.3617,0.003 0.6357,0.007 0.2568,0.003 0.5916,0.0321 0.9392,0.039 0.3678,0.0287 0.7464,0.0343 1.1531,0.042 0.4348,0.0279 0.8235,-0.0171 1.2768,-0.01 0.4456,-0.025 0.9725,0.027 1.4657,0.0347 0.4938,0.0191 0.9617,0.0122 1.4386,0.0181 0.4805,0.004 0.9983,0.0374 1.4548,0.041 0.4846,0.0299 0.9378,0.004 1.3295,9.2e-4 0.4631,-0.002 0.7061,-0.0765 1.0116,-0.0845 0.3278,-0.009 0.6535,0.0561 0.8999,0.0463 0.4307,-0.0172 0.8541,-0.092 1.1799,-0.26369 0.3679,-0.14012 0.6279,-0.40546 0.833,-0.68589 0.2409,-0.27887 0.4285,-0.56748 0.4968,-0.91211 0.1515,-0.31414 0.047,-0.76317 -0.055,-1.13686 -0.1005,-0.36436 -0.2602,-0.71881 -0.4928,-1.0155 -0.2401,-0.30617 -0.5527,-0.6137 -0.9427,-0.83414 0,0 -0.067,-0.006 -0.1808,-0.005 -0.1191,-0.006 -0.2369,0.0194 -0.4463,0.0212 -0.1809,0.0186 -0.4729,0.0153 -0.7864,0.0169 -0.2818,0.013 -0.6475,-0.12188 -1.0195,-0.12148 -0.3687,-0.12409 -0.7304,0.0176 -1.1464,0.0208 -0.3989,0.0183 -0.8769,0.004 -1.3431,0.008 -0.4571,7.3e-4 -0.9681,-0.0841 -1.4475,-0.0817 -0.5095,-0.0886 -0.9524,-0.0456 -1.4259,-0.0377 -0.4962,-0.0466 -0.9706,0.026 -1.4483,0.0408 -0.4788,0.0174 -0.9602,0.0235 -1.4199,0.0287 -0.4587,0.005 -0.9191,-0.0168 -1.3428,-0.0356 0,0 0.01,-0.0438 0.011,-0.13107 0.01,-0.0857 0.017,-0.21429 0.021,-0.38122 0.012,-0.16413 0.015,-0.36943 0.014,-0.60696 0.01,-0.23548 0.01,-0.50239 4e-4,-0.80156 0,-0.29526 0.044,-0.58787 0.021,-0.94215 0.044,-0.32419 -0.06,-0.81221 -0.1042,-1.22773 -0.044,-0.43551 -0.096,-0.78706 -0.1576,-1.20175 -0.069,-0.4373 -0.131,-0.87371 -0.2217,-1.33374 -0.081,-0.45712 -0.2247,-0.97608 -0.3474,-1.46087 -0.1458,-0.50459 -0.2532,-0.94709 -0.4023,-1.42516 -0.155,-0.49405 -0.315,-0.98034 -0.5055,-1.47505 -0.1819,-0.48912 -0.4234,-1.03923 -0.6597,-1.53381 -0.2337,-0.48914 -0.4609,-0.92475 -0.7391,-1.40177 0,0 0,-0.0324 0.011,-0.0957 0.01,-0.063 -0,-0.18438 0.01,-0.306712 -0.01,-0.143468 0.024,-0.259888 0.039,-0.425696 0.015,-0.177049 0.046,-0.366521 0.064,-0.593159 0.031,-0.217737 0.036,-0.484281 0.055,-0.760897 0.018,-0.272941 0.068,-0.562449 0.086,-0.875622 0.049,-0.310875 0.1484,-0.63768 0.1634,-0.988585 0.1291,-0.342689 0.1161,-0.708361 0.1262,-1.093572 0.098,-0.373581 0.095,-0.74697 0.098,-1.163137 0.081,-0.382457 0.011,-0.859016 0.01,-1.310333 0,-0.431521 -0.021,-0.943035 -0.037,-1.400614 -0.02,-0.492942 0.079,-0.843068 0.052,-1.293382 0.087,-0.446799 -0.081,-1.098252 -0.1242,-1.594701 -0.056,-0.561631 -0.025,-0.846831 -0.076,-1.291795 -2e-4,-0.463763 0,-0.999559 -0.076,-1.502257 0.049,-0.492113 -0.1422,-0.980701 -0.2378,-1.474637 -0.077,-0.477404 -0.1661,-0.974069 -0.2829,-1.457221 -0.082,-0.476169 -0.243,-0.956962 -0.3825,-1.426036 -0.1368,-0.462601 -0.2898,-1.008814 -0.4511,-1.455786 -0.1537,-0.507925 -0.1243,-0.82363 -0.2966,-1.222111 -0.01,-0.448377 -0.4363,-0.934061 -0.6681,-1.356672 -0.2346,-0.421981 -0.3728,-0.712341 -0.608,-1.062523 -0.1951,-0.342689 -0.5351,-0.751413 -0.8222,-1.092362 -0.2763,-0.329236 -0.5465,-0.615929 -0.8372,-0.895117 -0.2942,-0.282746 -0.574,-0.528051 -0.8887,-0.768548 -0.2981,-0.23092 -0.6449,-0.466991 -0.9918,-0.670842 -0.3447,-0.202499 -0.5712,-0.383818 -0.9304,-0.537197 0,0 -0.04,-0.05183 -0.069,-0.05731 -0.049,-0.05207 -0.061,-0.01322 -0.1053,-0.01741 -0.059,-0.0089 -0.1326,-0.04729 -0.2198,-0.04535 -0.089,-0.0363 -0.1978,-0.02922 -0.3109,-0.01258 -0.1234,-0.02226 -0.2406,0.02199 -0.3763,0.05977 -0.1417,0.01819 -0.2683,0.09138 -0.4273,0.157886 -0.1435,0.06967 -0.3342,0.145035 -0.515,0.247309 -0.1781,0.09391 -0.3008,0.220982 -0.4927,0.358496 -0.1433,0.149263 -0.2903,0.340267 -0.5085,0.53228 -0.099,0.222996 -0.4515,0.385467 -0.688,0.631975 -0.228,0.207919 -0.4658,0.463087 -0.702,0.749187 -0.2511,0.261195 -0.3646,0.626377 -0.613,0.974411 -0.1392,0.379823 -0.435,0.766983 -0.7036,1.192248 -0.1823,0.439545 -0.4768,0.901131 -0.755,1.390542 -0.2162,0.516165 -0.4229,1.022021 -0.7116,1.581281 -0.1595,0.590572 -0.6221,1.167028 -0.938,1.824873 -0.327,0.627386 -0.5777,1.374856 -0.8903,2.115322 -0.265,0.776325 -0.6333,1.525568 -0.9474,2.357299 -0.3191,0.844948 -0.5323,1.749885 -0.8146,2.710781 z"
           id="path1-1-0"
           sodipodi:nodetypes="cscccscccssccscccsccccc"
           inkscape:export-filename="background_pattern.png"
           inkscape:export-xdpi="96"
           inkscape:export-ydpi="96"
           inkscape:path-effect="#path-effect132"
           inkscape:original-d="m 9254.8824,88.911788 c 0,0 -2.6871,-0.41341 -3.2041,-0.10334 -0.5167,0.31006 -7.4173,-17.96907 -11.7822,-17.98339 0,0 -10.6452,1.13686 -7.1313,28.31867 0,0 -4.4442,10.955422 -1.6536,14.676122 0,0 -9.6325,-0.55778 -10.9554,-0.51678 -1.6181,0.0501 -5.7877,3.92742 -0.2066,5.78776 0,0 14.4693,0.72347 14.7794,0 l 0.9302,1.5503 c 0,0 -10.4388,2.37712 -10.6455,3.30728 -0.2066,0.9302 -1.1369,4.2375 2.3773,4.2375 3.5139,0 11.7822,-4.54756 11.7822,-4.54756 0,0 14.5727,5.37436 29.1454,0.10338 0,0 10.6453,3.82408 11.5755,3.82408 0.9303,0 3.9275,-0.6202 1.9638,-4.2375 0,0 -4.8575,-1.96371 -8.5783,-2.79053 l 1.7571,-1.34358 c 0,0 9.1982,0.10335 11.7821,0 2.5839,-0.10337 3.4108,-3.41066 1.0335,-4.75424 0,0 -7.338,0 -11.9888,-0.2067 0,0 0.5167,-7.75147 -3.1007,-13.95264 0,0 2.7906,-23.874522 -7.1313,-28.111982 0,0 -5.3745,-1.5503 -10.7487,16.74315 z" />
        <path
           d="m 9271.1748,100.28062 c -5.4797,0 -9.9219,4.44217 -9.9219,9.92186 0,5.47969 4.4422,9.92188 9.9219,9.92188 5.4797,0 9.9219,-4.44219 9.9219,-9.92188 0,-5.47969 -4.4422,-9.92186 -9.9219,-9.92186 z m -27.7611,0.7276 c -5.4797,0 -9.9219,4.44219 -9.9219,9.92187 0,5.47967 4.4422,9.92187 9.9219,9.92187 5.4797,0 9.9219,-4.4422 9.9219,-9.92187 0,-5.47968 -4.4422,-9.92187 -9.9219,-9.92187 z m 16.6266,9.76934 c -2.8709,-1.39689 -5.2299,0.1301 -5.2299,0.1301 l -0.1892,1.94324 c 2.9904,-1.01948 5.5232,-0.14624 5.5232,-0.14624 z"
           style="fill:#fffcf9;fill-opacity:1;stroke:#000000;stroke-width:3.175;stroke-linecap:round;stroke-linejoin:round;stroke-dasharray:none;stroke-opacity:1;paint-order:markers stroke fill"
           id="path8-4-5"
           sodipodi:nodetypes="ssssssssssccccc" />
        <path
           style="fill:#000000;fill-opacity:1;stroke:#000000;stroke-width:5.292;stroke-linecap:round;stroke-linejoin:round;stroke-dasharray:none;stroke-opacity:1;paint-order:markers stroke fill"
           d="m 9247.4493,110.51116 0.1661,5.40091"
           id="path22-0-8-3" />
        <path
           style="fill:#000000;fill-opacity:1;stroke:#000000;stroke-width:5.292;stroke-linecap:round;stroke-linejoin:round;stroke-dasharray:none;stroke-opacity:1;paint-order:markers stroke fill"
           d="m 9266.9625,115.91209 -0.083,-5.40095"
           id="path23-3-5-8" />
        <g
           id="g127"
           transform="matrix(0.70054659,0,0,0.6924964,2780.3786,37.844677)"
           style="fill:#59afff;fill-opacity:1;stroke-width:6.07792;stroke-dasharray:none">
          <path
             style="fill:#59afff;fill-opacity:1;stroke:#000000;stroke-width:6.07792;stroke-linecap:round;stroke-linejoin:round;stroke-dasharray:none;stroke-opacity:1;paint-order:stroke fill markers"
             d="m 9265.8275,133.73965 c -0.8141,-0.1317 -15.5889,-1e-5 -15.5889,-1e-5 0,0 -13.6727,-7.58669 -28.555,-7.19158 l 3.951,40.77555 c 9.3508,0.2634 26.1914,7.3753 26.1914,7.3753 l 14.0015,-0.1317 c 7.8063,-3.46815 9.8876,-8.87664 20.7603,-10.53892 l 5.516,-39.2149 c -8.1655,-1.58042 -26.2763,8.92626 -26.2763,8.92626 z"
             id="path123"
             sodipodi:nodetypes="ccccccccc" />
          <path
             style="fill:#000000;fill-opacity:1;stroke:#000000;stroke-width:3.7987;stroke-linecap:round;stroke-linejoin:round;stroke-dasharray:none;stroke-opacity:1;paint-order:stroke fill markers"
             d="m 9250.8035,132.7243 1.52,41.9422"
             id="path126"
             sodipodi:nodetypes="cc" />
          <path
             style="fill:#000000;fill-opacity:1;stroke:#000000;stroke-width:3.7987;stroke-linecap:round;stroke-linejoin:round;stroke-dasharray:none;stroke-opacity:1;paint-order:stroke fill markers"
             d="m 9264.0542,133.62965 -0.1624,41.74444"
             id="path127"
             sodipodi:nodetypes="cc" />
        </g>
        <path
           style="fill:#fffcf9;fill-opacity:1;stroke:none;stroke-width:3.175;stroke-linecap:round;stroke-linejoin:round;stroke-dasharray:none;stroke-opacity:1;paint-order:stroke fill markers"
           d="m 9280.8033,135.74543 c 0,0 -0.248,-0.56564 -0.072,-1.39531 0.1083,-0.50981 0.2182,-0.76736 0.5729,-1.48315 0.2577,-0.52004 -0.8714,-0.53391 -1.4745,-0.37937 -0.922,0.23621 -1.4874,1.14767 -1.6349,2.31513 -0.1705,1.35038 1.2074,2.50049 1.1016,3.8613 -0.2144,2.75898 -3.2303,6.3032 -3.5451,9.04695 -0.1033,0.89947 -0.076,2.16836 0.5421,2.63982 0.5886,0.44874 1.473,-0.0474 2.0124,-0.58502 1.7964,-1.79051 1.6165,-7.56126 3.1827,-9.66545 0.6301,-0.84658 1.907,-1.13501 2.3733,-2.13512 0.6379,-1.36818 1.0822,-2.74243 0.3517,-4.03467 -0.2741,-0.48434 -1.2126,-1.17964 -1.6256,-0.88998 -0.6496,0.45551 -0.1302,1.9262 -0.5103,2.7296 -0.2274,0.4812 -1.2741,-0.0247 -1.2741,-0.0247 z"
           id="path129"
           sodipodi:nodetypes="ssssssssssssssss" />
        <path
           style="fill:#fffcf9;fill-opacity:1;stroke:#000000;stroke-width:4.23333;stroke-linecap:round;stroke-linejoin:round;stroke-dasharray:none;stroke-opacity:1;paint-order:stroke fill markers"
           d="m 9228.0589,132.21011 c 3.6802,-3.67911 8.6921,-6.50068 15.5342,-1.3492 6.842,5.15148 7.7279,12.52136 5.1518,17.04895 -2.5758,4.52758 -17.1367,5.11176 -22.0533,-0.36796 -3.4229,-3.81492 -2.2569,-11.70861 1.3673,-15.33179 z"
           id="path131"
           sodipodi:nodetypes="sssss" />
        <path
           style="fill:#fffcf9;fill-opacity:1;stroke:#000000;stroke-width:4.23333;stroke-linecap:round;stroke-linejoin:round;stroke-dasharray:none;stroke-opacity:1;paint-order:stroke fill markers"
           d="m 9287.9981,137.85559 c 3.158,-3.14939 7.4588,-5.56471 13.3301,-1.15494 5.8712,4.40976 6.6314,10.71852 4.4208,14.59422 -2.2103,3.8757 -14.7052,4.37577 -18.9242,-0.31498 -2.9372,-3.26564 -1.9367,-10.02279 1.1733,-13.1243 z"
           id="path131-6"
           sodipodi:nodetypes="sssss" />
      </g>
    </g>
  </g>
</svg>
