<?xml version="1.0" encoding="UTF-8" standalone="no"?>
<!-- Created with Inkscape (http://www.inkscape.org/) -->

<svg
   width="780"
   height="780"
   viewBox="0 0 206.37499 206.375"
   version="1.1"
   id="svg1"
   inkscape:version="1.4.3 (0d15f75042, 2025-12-25)"
   sodipodi:docname="icon_play.svg"
   xmlns:inkscape="http://www.inkscape.org/namespaces/inkscape"
   xmlns:sodipodi="http://sodipodi.sourceforge.net/DTD/sodipodi-0.dtd"
   xmlns="http://www.w3.org/2000/svg"
   xmlns:svg="http://www.w3.org/2000/svg">
  <sodipodi:namedview
     id="namedview1"
     pagecolor="#ffffff"
     bordercolor="#000000"
     borderopacity="0.25"
     inkscape:showpageshadow="2"
     inkscape:pageopacity="0.0"
     inkscape:pagecheckerboard="0"
     inkscape:deskcolor="#d1d1d1"
     inkscape:document-units="mm"
     inkscape:zoom="0.25417602"
     inkscape:cx="710.1378"
     inkscape:cy="1044.5517"
     inkscape:window-width="1920"
     inkscape:window-height="1052"
     inkscape:window-x="0"
     inkscape:window-y="0"
     inkscape:window-maximized="1"
     inkscape:current-layer="g5" />
  <defs
     id="defs1">
    <inkscape:path-effect
       effect="roughen"
       id="path-effect142-9"
       is_visible="true"
       lpeversion="1.2"
       global_randomize="0.4;1"
       displace_x="0.7;1"
       displace_y="0.4;1"
       method="size"
       max_segment_size="1.52604"
       segments="2"
       handles="along"
       shift_nodes="true"
       fixed_displacement="false"
       spray_tool_friendly="false" />
    <inkscape:path-effect
       effect="roughen"
       id="path-effect132"
       is_visible="true"
       lpeversion="1.2"
       global_randomize="0.4;1"
       displace_x="0.5;1"
       displace_y="0.5;1"
       method="size"
       max_segment_size="1.14722"
       segments="2"
       handles="along"
       shift_nodes="true"
       fixed_displacement="false"
       spray_tool_friendly="false" />
    <inkscape:path-effect
       effect="roughen"
       id="path-effect142-9-7"
       is_visible="true"
       lpeversion="1.2"
       global_randomize="0.4;1"
       displace_x="0.7;1"
       displace_y="0.4;1"
       method="size"
       max_segment_size="1.52604"
       segments="2"
       handles="along"
       shift_nodes="true"
       fixed_displacement="false"
       spray_tool_friendly="false" />
  </defs>
  <g
     inkscape:label="Capa 1"
     inkscape:groupmode="layer"
     id="layer1"
     transform="translate(70.908165,-57.408918)">
    <g
       id="g5"
       transform="translate(-9285.429,-11.265324)">
      <g
         id="g4"
         inkscape:export-filename="D:\AaProjects\Nokorpo\Art\Gato\2D\Web Assets\play_demos.png"
         inkscape:export-xdpi="23.962503"
         inkscape:export-ydpi="23.962503"
         transform="matrix(2.1153943,0,0,2.1153943,-10738.051,-67.815476)">
        <path
           style="fill:#ff597a;fill-opacity:1;stroke:none;stroke-width:3.27958;stroke-linecap:round;stroke-linejoin:round;stroke-dasharray:none;stroke-opacity:1;paint-order:stroke fill markers"
           d="m 9300.6868,75.066718 c -0.3382,-0.02274 -0.7493,-0.09388 -1.099,-0.11406 -0.3847,-0.0627 -0.5067,-0.01922 -0.8486,-0.0361 -0.2512,-0.0025 -0.873,-0.07337 -1.3007,-0.09057 -0.3977,-0.04861 -0.7577,-0.0513 -1.1263,-0.06352 -0.4058,-0.03585 -0.7493,-0.02535 -1.1297,-0.03544 -0.3945,-0.01228 -0.7449,-0.0057 -1.1465,-0.01389 -0.3732,0.0055 -0.8902,-0.06316 -1.3173,-0.06927 -0.4468,-0.05311 -0.7123,0.0084 -1.1161,0.0047 -0.3659,0.01463 -0.9017,-0.0067 -1.3604,-0.0085 -0.4302,-0.0014 -0.8218,0.01167 -1.2612,0.01202 -0.4095,0.0143 -0.9059,0.003 -1.3685,0.0054 -0.4436,0.0036 -0.8957,0.0061 -1.3534,0.01022 -0.4506,0.0047 -0.9795,-0.08467 -1.4456,-0.07873 -0.5037,-0.08824 -0.9418,-0.04373 -1.3933,-0.03643 -0.5043,-0.04853 -0.8393,0.01779 -1.3013,0.02681 -0.428,0.01203 -1.0052,0.0231 -1.5157,0.03479 -0.4821,0.01364 -0.9703,0.02574 -1.4635,0.03851 -0.4874,0.01539 -0.9771,0.03159 -1.4773,0.04591 -0.4886,0.01962 -0.7692,0.03683 -1.2777,0.05269 -0.3434,0.02545 -1.1975,-0.07122 -1.7876,-0.05126 -0.5302,-0.09151 -0.986,0.04012 -1.4926,0.05844 -0.502,0.02436 -1.0368,0.04279 -1.5633,0.063 -0.5144,0.02445 -0.9056,0.07391 -1.4331,0.09521 -0.4289,0.0562 -1.1476,0.03524 -1.724,0.05958 -0.5312,0.01076 -1.0587,0.03852 -1.5911,0.06184 -0.5334,0.01674 -1.0856,0.02451 -1.6227,0.04881 -0.5489,0.0014 -1.094,0.0252 -1.6291,0.05015 -0.5604,0.0014 -1.076,-0.0062 -1.6103,0.01943 -0.5527,-0.03024 -1.0986,0.04178 -1.6421,0.06862 -0.5575,0.01619 -1.0893,0.05066 -1.6333,0.07824 -0.5526,0.0245 -1.1251,-0.02297 -1.6749,0.0056 -0.5721,-0.05071 -0.9341,0.08446 -1.4794,0.113532 -0.4499,0.05978 -1.1726,0.08213 -1.7786,0.115142 -0.5305,0.04817 -1.0668,0.08993 -1.635,0.121326 -0.5108,0.05985 -1.0099,0.073 -1.5894,0.10526 -0.4586,0.04266 -1.2652,0.01663 -1.8726,0.05053 -0.5946,-0.02068 -1.0309,0.07522 -1.5729,0.105694 -0.5234,0.047 -1.1968,-0.04875 -1.7728,-0.01629 -0.5915,-0.08277 -1.0753,0.0703 -1.621,0.101623 -0.5477,0.04084 -1.0197,0.06683 -1.5832,0.09957 -0.4858,0.03637 -1.2253,0.04244 -1.8187,0.07715 -0.5834,0.0052 -1.0163,0.09287 -1.5604,0.12496 -0.5064,0.06316 -1.1859,0.05047 -1.7647,0.08443 -0.5731,0.01422 -1.1013,0.05788 -1.6459,0.08974 -0.5599,0.02603 -1.1604,-0.03283 -1.7083,-9.49e-4 -0.5947,-0.06604 -1.1045,0.02103 -1.6345,0.05275 -0.5771,-0.0093 -1.1223,-0.01515 -1.6554,0.01792 -0.5825,-0.04699 -1.0817,0.0068 -1.6091,0.04159 -0.5589,-0.02474 -1.087,-0.04439 -1.6209,-0.0065 -0.5516,-0.07861 -1.0822,0.02529 -1.617,0.06803 -0.5413,-0.01123 -1.0664,0.0915 -1.598,0.138609 -0.5279,0.05013 -0.8431,0.121667 -1.3711,0.170245 -0.3691,0.08008 -1.0981,0.116875 -1.6987,0.167198 -0.4534,0.05514 -1.1197,-0.05257 -1.6732,-0.01332 -0.5388,-0.104343 -1.0337,0.07996 -1.5419,0.13021 -0.5202,0.04576 -0.9721,0.126982 -1.4708,0.171807 -0.5156,0.04635 -1.0791,0.05587 -1.5727,0.06982 l 0.1143,1.527026 -3e-4,1.48894 0.1192,1.522978 -0.01,1.488773 -0.046,1.47302 0.062,1.563237 0.014,1.500244 0.036,1.516879 0.061,1.517555 0.1364,1.507397 -0.06,1.405106 0,1.591039 -0.049,1.460455 0.1433,1.559922 0.1352,1.531175 -0.019,1.42722 -0.036,1.54516 0.069,1.5231 -0.032,1.494 -0.028,1.40886 -0.013,1.62028 0.029,1.51928 -0.041,1.45806 -0.051,1.51367 0.1322,1.56976 -0.046,1.45605 -0.054,1.50823 -0.028,1.52432 -0.018,1.50839 0.022,1.51149 -0.084,1.43155 -0.03,1.53564 0.1334,1.5812 -0.042,1.37955 -0.039,1.59323 -0.035,1.52151 0.1215,1.54346 -0.069,1.46212 0.069,1.55611 -0.071,1.46843 -0.078,1.39058 -0.1091,1.58123 0.1304,1.56055 0.036,1.53064 -0.068,1.50132 -0.05,1.50417 -0.09,1.50849 -0.1267,1.48979 0,1.51216 c 0.094,0.10789 0.3434,0.23446 0.4779,0.33698 0.2403,0.10177 0.375,0.16051 0.5046,0.23763 0.2869,0.0818 0.4954,0.17573 0.6559,0.25263 0.3632,0.089 0.3687,0.16732 0.5415,0.23658 0.2784,0.11347 0.4967,0.1907 0.7543,0.27492 0.2996,0.10166 0.5389,0.16439 0.8406,0.24603 0.3039,0.0784 0.6334,0.14288 0.9859,0.22245 0.3352,0.0545 0.7857,0.18326 1.1723,0.25697 0.421,0.0954 0.7449,0.14161 1.1294,0.2048 0.4192,0.0741 0.7746,0.0601 1.2049,0.12102 0.4087,-0.005 0.9115,0.11743 1.3929,0.17587 0.4584,0.0489 0.9394,0.10819 1.4302,0.15965 0.4859,0.0492 0.9566,0.059 1.4699,0.10543 0.4902,0.006 1.0579,0.0922 1.6052,0.1348 0.5338,0.0415 1.0971,0.0885 1.6529,0.12556 0.5671,0.0443 1.0837,0.0552 1.6528,0.0875 0.5582,0.0172 1.2239,0.0846 1.8264,0.11335 0.6252,0.048 1.2134,0.0761 1.8073,0.0998 0.6436,0.0466 1.2836,0.0778 1.8923,0.0975 0.6851,0.0518 1.1987,0.036 1.8084,0.0515 0.6389,0.0156 1.4885,0.045 2.1418,0.0573 0.7878,0.0254 1.2087,0.0337 1.8046,0.0416 0.6844,0.0218 1.2926,0.001 1.9562,0.006 0.6603,-0.009 1.3602,0.004 2.0495,0.006 0.6786,-0.002 1.3706,-0.001 2.062,-0.004 0.6884,-0.004 1.4024,0.003 2.0981,-0.004 0.7081,0.004 1.3725,-0.0207 2.0656,-0.0306 0.6944,-0.0163 1.3981,-0.0407 2.1029,-0.0541 0.6973,-0.0325 1.377,-0.0828 2.0833,-0.0996 0.681,-0.0712 1.4364,-0.034 2.1511,-0.0543 0.7086,-0.0182 1.3946,-0.046 2.0949,-0.069 0.6972,-0.0278 1.3865,-0.0802 2.0892,-0.10633 0.6842,-0.0587 1.3976,-0.0632 2.1007,-0.0924 0.6858,-0.0382 1.5537,-0.0468 2.2489,-0.0787 0.7937,-0.0165 1.2669,-0.0784 1.8996,-0.11012 0.6781,-0.0529 1.4502,-0.0375 2.1277,-0.0745 0.7308,-0.003 1.2407,-0.13521 1.8799,-0.1731 0.63,-0.10355 1.534,-0.0467 2.2043,-0.0896 0.772,-0.003 1.1945,-0.076 1.78,-0.11623 0.6471,-0.0426 1.274,-0.0894 1.9,-0.13588 0.6288,-0.0468 1.2613,-0.0933 1.8743,-0.14227 0.621,-0.0475 1.2105,-0.0999 1.8033,-0.15098 0.5963,-0.0527 1.212,-0.0907 1.7908,-0.14444 0.5969,-0.0396 1.1358,-0.10474 1.6868,-0.15992 0.5626,-0.0536 1.101,-0.26009 1.638,-0.31823 0.5297,-0.20505 1.0607,-0.1153 1.5732,-0.174 0.5178,-0.0582 0.976,-0.15511 1.4679,-0.21512 0.4621,-0.0983 1.0249,-0.11154 1.5051,-0.17395 0.4849,-0.0475 0.9876,-0.0957 1.4218,-0.15642 0.4961,-0.0339 0.8019,-0.12747 1.1916,-0.18709 0.403,-0.0746 0.8101,-0.15759 1.1991,-0.22334 0.374,-0.0941 0.7472,-0.17975 1.1042,-0.24628 0.342,-0.11451 0.6632,-0.15757 0.9874,-0.2235 0.2984,-0.0928 0.7385,-0.12243 1.037,-0.18924 0.3519,-0.0465 0.5179,-0.11468 0.7469,-0.17429 0.266,-0.0635 0.5312,-0.11369 0.7456,-0.18246 0.2551,-0.0482 0.5724,-0.1147 0.741,-0.18877 0.3297,-0.0444 0.2284,-0.1741 0.3166,-0.25239 0.1112,-0.0986 0.2251,-0.17597 0.345,-0.2713 -0.019,-0.49941 0,-1.00391 -0.011,-1.52315 0.024,-0.516 0.04,-1.03814 0.029,-1.57801 0.057,-0.52868 0.1753,-1.08608 0.1679,-1.64624 0.188,-0.55003 0.1186,-1.09322 0.1143,-1.6676 0.1273,-0.54977 0.053,-1.14877 0.051,-1.74538 0.058,-0.57108 0.1152,-1.15987 0.1161,-1.76657 0.1179,-0.57711 -0.036,-1.25444 -0.033,-1.87729 -0.036,-0.63067 0.127,-1.2031 0.1317,-1.81687 0.125,-0.61721 -0.041,-1.32493 -0.035,-1.96065 -0.046,-0.67938 -0.024,-1.25692 -0.016,-1.87612 -0.029,-0.66278 0.049,-1.26821 0.057,-1.90783 0.042,-0.64943 0.1517,-1.29655 0.1614,-1.95269 0.1433,-0.65122 0.01,-1.32998 0.02,-1.9929 -2e-4,-0.66922 0.038,-1.30863 0.048,-1.97016 0.028,-0.65932 -0.029,-1.44809 -0.019,-2.11909 -0.041,-0.74174 0.019,-1.26565 0.028,-1.89877 0.01,-0.67026 0.056,-1.32163 0.067,-1.99111 0.046,-0.6581 0.054,-1.33489 0.064,-2.00939 0.043,-0.65813 -0.016,-1.37357 -0.01,-2.04545 -0.026,-0.68423 0.036,-1.30578 0.044,-1.96052 0.027,-0.65715 0.012,-1.33252 0.018,-1.99409 0,-0.65993 0.068,-1.29236 0.073,-1.94444 0.061,-0.63873 0.1085,-1.31521 0.1117,-1.9677 0.1024,-0.64504 -0.038,-1.34164 -0.038,-1.97936 -0.043,-0.67279 0.018,-1.22803 0.016,-1.83831 0.016,-0.62357 0.054,-1.22994 0.05,-1.84914 0.055,-0.60068 0.037,-1.242342 0.03,-1.855895 0.04,-0.603038 0.097,-1.172834 0.086,-1.766234 0.1021,-0.570462 -0.034,-1.222126 -0.049,-1.811895 -0.025,-0.590641 -0.037,-1.175831 -0.056,-1.731406 -0.025,-0.589058 -0.042,-1.156341 -0.064,-1.687837 -0.025,-0.590034 -0.054,-1.04013 -0.08,-1.544493 -0.036,-0.530239 0,-1.026831 -0.03,-1.531922 0.025,-0.500178 -0.037,-1.007333 -0.073,-1.499263 -0.01,-0.481791 -0.082,-1.070525 -0.1231,-1.538866 -0.045,-0.530001 -0.04,-0.838643 -0.083,-1.248231 -0.01,-0.435956 -0.097,-0.885474 -0.1489,-1.307548 -0.052,-0.419156 -0.1619,-0.893701 -0.219,-1.28425 -0.1093,-0.436101 -0.1203,-0.758447 -0.1776,-1.097234 -0.071,-0.392728 -0.1166,-0.68223 -0.18,-1.00366 -0.063,-0.335838 -0.1427,-0.664427 -0.2145,-0.971166 -0.078,-0.309446 -0.1743,-0.614192 -0.2508,-0.887821 -0.1036,-0.286154 -0.1466,-0.516882 -0.2256,-0.75244 -0.078,-0.244369 -0.1566,-0.472417 -0.2444,-0.68345 -0.078,-0.211878 -0.1706,-0.408635 -0.266,-0.586159 -0.086,-0.177713 -0.1767,-0.335375 -0.2802,-0.47661 -0.086,-0.139941 -0.1209,-0.234873 -0.2359,-0.339096 -0.032,-0.08201 -0.2794,-0.253883 -0.4345,-0.325483 -0.1169,-0.09448 -0.2337,-0.08483 -0.3479,-0.09902 -0.1241,-0.01542 -0.2266,-0.0033 -0.3427,0.0076 z"
           id="path130-3"
           sodipodi:nodetypes="ccccc"
           transform="matrix(-0.96067184,0,0,0.97560433,18374.454,1.5712839)"
           inkscape:original-d="m 9300.6724,75.060558 c -19.2753,-1.296121 -57.4335,1.622216 -86.1503,2.433324 v 73.868788 c 5.6858,6.385 83.0097,3.34871 88.9664,-1.39046 -0.9387,-24.97055 3.3907,-75.491252 -2.8161,-74.911652 z"
           inkscape:path-effect="#path-effect142-9-7" />
        <path
           style="fill:#fffcf9;fill-opacity:1;stroke:#000000;stroke-width:4.23333;stroke-linecap:round;stroke-linejoin:round;stroke-dasharray:none;stroke-opacity:1;paint-order:markers stroke fill"
           d="m 9464.2822,106.08062 c 0,0 14.292,-8.72472 32.9047,0.16618 0,0 5.9919,1.88321 7.6446,1.57877 3.1575,-0.58163 1.6618,3.73917 1.6618,3.73917 0,0 -1.3295,4.40391 -5.7335,5.98267 0,0 1.3295,6.48122 0.4985,8.14306 -0.8308,1.66188 -2.4927,4.81939 -2.4927,4.81939 0,0 2.0773,-0.91403 3.2407,-0.58166 1.1633,0.33237 2.9083,2.16043 1.3295,5.65031 -1.5788,3.48988 -5.8997,2.49277 -7.1461,2.24351 l -1.1631,1.66185 c 0,0 0.4153,3.57298 -14.3751,2.65895 0,0 -8.8911,0.16619 -11.3837,-0.24926 -2.4929,-0.41548 -3.573,-2.4928 -2.9914,-3.32372 l -0.6646,-0.58164 c 0,0 -6.3151,1.74493 -7.8108,-2.57588 -1.4957,-4.3208 0.997,-5.06864 0.997,-5.06864 0,0 0.1664,-1.41259 4.5701,0.33236 3e-4,3.8e-4 -2.9295,-4.86573 -2.908,-6.73049 0,0 -0.1665,-3.48991 0.4984,-6.31506 0,0 -7.8594,-2.88808 -5.3178,-9.72181 0,0 0.422,-1.26067 4.9024,-0.99714 0,0 2.9912,-0.41545 3.7391,-0.83092 z"
           id="path21-0-0"
           sodipodi:nodetypes="ccsccscsscccsccsccccccc" />
        <path
           style="fill:#000000;fill-opacity:1;stroke:#000000;stroke-width:5.292;stroke-linecap:round;stroke-linejoin:round;stroke-dasharray:none;stroke-opacity:1;paint-order:markers stroke fill"
           d="m 9470.5974,120.87112 0.083,5.40101"
           id="path22-3-8" />
        <path
           style="fill:#000000;fill-opacity:1;stroke:#000000;stroke-width:5.292;stroke-linecap:round;stroke-linejoin:round;stroke-dasharray:none;stroke-opacity:1;paint-order:markers stroke fill"
           d="m 9490.1066,120.87112 0.083,5.40101"
           id="path23-4-72" />
        <path
           sodipodi:type="star"
           style="fill:#59afff;fill-opacity:1;stroke:#000000;stroke-width:4.23333;stroke-linecap:round;stroke-linejoin:round;stroke-dasharray:none;stroke-opacity:1;paint-order:markers stroke fill"
           id="path27-5-8"
           inkscape:flatsided="false"
           sodipodi:sides="4"
           sodipodi:cx="7552.7876"
           sodipodi:cy="780.07355"
           sodipodi:r1="7.4320302"
           sodipodi:r2="5.0416274"
           sodipodi:arg1="1.3909428"
           sodipodi:arg2="2.176341"
           inkscape:rounded="0.31"
           inkscape:randomized="0"
           inkscape:transform-center-x="8.4984217e-05"
           inkscape:transform-center-y="-5.9063179e-05"
           transform="rotate(57.798597,9153.6738,2184.0231)"
           d="m 7554.1171,787.3857 c -1.6042,0.29167 -2.8587,-2.23889 -4.1992,-3.16697 -1.3406,-0.92808 -4.1508,-1.21153 -4.4425,-2.8157 -0.2916,-1.60417 2.2389,-2.85867 3.167,-4.19923 0.9281,-1.34056 1.2115,-4.15074 2.8157,-4.4424 1.6042,-0.29167 2.8587,2.23888 4.1992,3.16696 1.3406,0.92808 4.1508,1.21154 4.4424,2.81571 0.2917,1.60416 -2.2388,2.85866 -3.1669,4.19922 -0.9281,1.34056 -1.2116,4.15074 -2.8157,4.44241 z" />
        <path
           sodipodi:type="star"
           style="fill:#59afff;fill-opacity:1;stroke:#000000;stroke-width:4.23333;stroke-linecap:round;stroke-linejoin:round;stroke-dasharray:none;stroke-opacity:1;paint-order:markers stroke fill"
           id="path27-3-6-2"
           inkscape:flatsided="false"
           sodipodi:sides="4"
           sodipodi:cx="7552.7876"
           sodipodi:cy="780.07355"
           sodipodi:r1="7.4320302"
           sodipodi:r2="5.0416274"
           sodipodi:arg1="1.3909428"
           sodipodi:arg2="2.176341"
           inkscape:rounded="0.31"
           inkscape:randomized="0"
           inkscape:transform-center-x="9.5153224e-05"
           inkscape:transform-center-y="-9.8276982e-06"
           transform="translate(1888.7425,-680.40537)"
           d="m 7554.1171,787.3857 c -1.6042,0.29167 -2.8587,-2.23889 -4.1992,-3.16697 -1.3406,-0.92808 -4.1508,-1.21153 -4.4425,-2.8157 -0.2916,-1.60417 2.2389,-2.85867 3.167,-4.19923 0.9281,-1.34056 1.2115,-4.15074 2.8157,-4.4424 1.6042,-0.29167 2.8587,2.23888 4.1992,3.16696 1.3406,0.92808 4.1508,1.21154 4.4424,2.81571 0.2917,1.60416 -2.2388,2.85866 -3.1669,4.19922 -0.9281,1.34056 -1.2116,4.15074 -2.8157,4.44241 z" />
        <path
           sodipodi:type="star"
           style="fill:#59afff;fill-opacity:1;stroke:#000000;stroke-width:4.23333;stroke-linecap:round;stroke-linejoin:round;stroke-dasharray:none;stroke-opacity:1;paint-order:markers stroke fill"
           id="path27-3-0-4-9"
           inkscape:flatsided="false"
           sodipodi:sides="4"
           sodipodi:cx="7552.7876"
           sodipodi:cy="780.07355"
           sodipodi:r1="7.4320302"
           sodipodi:r2="5.0416274"
           sodipodi:arg1="1.3909428"
           sodipodi:arg2="2.176341"
           inkscape:rounded="0.31"
           inkscape:randomized="0"
           inkscape:transform-center-x="7.8798137e-05"
           inkscape:transform-center-y="-5.1236865e-05"
           transform="rotate(30,9767.2907,4122.0644)"
           d="m 7554.1171,787.3857 c -1.6042,0.29167 -2.8587,-2.23889 -4.1992,-3.16697 -1.3406,-0.92808 -4.1508,-1.21153 -4.4425,-2.8157 -0.2916,-1.60417 2.2389,-2.85867 3.167,-4.19923 0.9281,-1.34056 1.2115,-4.15074 2.8157,-4.4424 1.6042,-0.29167 2.8587,2.23888 4.1992,3.16696 1.3406,0.92808 4.1508,1.21154 4.4424,2.81571 0.2917,1.60416 -2.2388,2.85866 -3.1669,4.19922 -0.9281,1.34056 -1.2116,4.15074 -2.8157,4.44241 z" />
        <path
           sodipodi:type="star"
           style="fill:#fffcf9;fill-opacity:1;stroke:#000000;stroke-width:4.23333;stroke-linecap:round;stroke-linejoin:round;stroke-dasharray:none;stroke-opacity:1;paint-order:markers stroke fill"
           id="path29-3-1"
           inkscape:flatsided="false"
           sodipodi:sides="3"
           sodipodi:cx="7495.7734"
           sodipodi:cy="758.64917"
           sodipodi:r1="4.333581"
           sodipodi:r2="2.9397485"
           sodipodi:arg1="0.78539816"
           sodipodi:arg2="1.8325957"
           inkscape:rounded="0.31"
           inkscape:randomized="0"
           inkscape:transform-center-x="0.38883093"
           inkscape:transform-center-y="-0.38874605"
           transform="translate(1947.4637,-628.19595)"
           d="m 7498.8377,761.71347 c -0.8399,0.83994 -2.6778,0.0827 -3.8251,-0.22472 -1.1474,-0.30744 -3.1176,-0.5706 -3.4251,-1.71797 -0.3074,-1.14737 1.2673,-2.36039 2.1072,-3.20033 0.84,-0.83993 2.053,-2.41464 3.2004,-2.1072 1.1473,0.30744 1.4105,2.27769 1.7179,3.42506 0.3075,1.14737 1.0647,2.98523 0.2247,3.82516 z" />
        <path
           sodipodi:type="star"
           style="fill:#fffcf9;fill-opacity:1;stroke:#000000;stroke-width:4.23333;stroke-linecap:round;stroke-linejoin:round;stroke-dasharray:none;stroke-opacity:1;paint-order:markers stroke fill"
           id="path30-2-9"
           inkscape:flatsided="false"
           sodipodi:sides="3"
           sodipodi:cx="7537.6074"
           sodipodi:cy="770.8703"
           sodipodi:r1="4.7297153"
           sodipodi:r2="3.2084718"
           sodipodi:arg1="-1.0471976"
           sodipodi:arg2="0"
           inkscape:rounded="0.31"
           inkscape:randomized="0"
           inkscape:transform-center-x="0.7453245"
           inkscape:transform-center-y="-9.7117518e-06"
           transform="translate(1927.9982,-681.17888)"
           d="m 7539.9723,766.77425 c 1.1227,0.64821 0.8436,2.79962 0.8436,4.09605 0,1.29643 0.2791,3.44784 -0.8436,4.09605 -1.1228,0.64822 -2.8464,-0.66922 -3.9691,-1.31743 -1.1228,-0.64822 -3.1255,-1.48219 -3.1255,-2.77862 0,-1.29643 2.0027,-2.1304 3.1255,-2.77862 1.1227,-0.64821 2.8463,-1.96565 3.9691,-1.31743 z" />
        <path
           sodipodi:type="star"
           style="fill:#fffcf9;fill-opacity:1;stroke:#000000;stroke-width:4.23333;stroke-linecap:round;stroke-linejoin:round;stroke-dasharray:none;stroke-opacity:1;paint-order:markers stroke fill"
           id="path32-0-2-5"
           inkscape:flatsided="false"
           sodipodi:sides="3"
           sodipodi:cx="7548.6328"
           sodipodi:cy="809.15594"
           sodipodi:r1="2.5958967"
           sodipodi:r2="1.7609648"
           sodipodi:arg1="0.78539816"
           sodipodi:arg2="1.8325957"
           inkscape:rounded="0.31"
           inkscape:randomized="0"
           inkscape:transform-center-x="0.23295557"
           inkscape:transform-center-y="-0.23287067"
           transform="translate(1963.0169,-714.27693)"
           d="m 7550.4684,810.99152 c -0.5031,0.50314 -1.6041,0.0495 -2.2914,-0.13461 -0.6873,-0.18416 -1.8675,-0.3418 -2.0516,-1.0291 -0.1842,-0.68729 0.7591,-1.41392 1.2622,-1.91706 0.5032,-0.50313 1.2298,-1.44641 1.9171,-1.26225 0.6873,0.18416 0.8449,1.36438 1.0291,2.05167 0.1841,0.6873 0.6377,1.78821 0.1346,2.29135 z" />
      </g>
    </g>
  </g>
</svg>
