<?xml version="1.0" encoding="UTF-8" standalone="no"?>
<!-- Created with Inkscape (http://www.inkscape.org/) -->

<svg
   width="113.67609mm"
   height="90.136314mm"
   viewBox="0 0 113.67609 90.136314"
   version="1.1"
   id="svg1"
   xml:space="preserve"
   inkscape:version="1.3 (0e150ed6c4, 2023-07-21)"
   sodipodi:docname="nokorpo_logo.svg"
   xmlns:inkscape="http://www.inkscape.org/namespaces/inkscape"
   xmlns:sodipodi="http://sodipodi.sourceforge.net/DTD/sodipodi-0.dtd"
   xmlns="http://www.w3.org/2000/svg"
   xmlns:svg="http://www.w3.org/2000/svg"><sodipodi:namedview
     id="namedview1"
     pagecolor="#ffffff"
     bordercolor="#000000"
     borderopacity="0.25"
     inkscape:showpageshadow="2"
     inkscape:pageopacity="0.0"
     inkscape:pagecheckerboard="0"
     inkscape:deskcolor="#d1d1d1"
     inkscape:document-units="mm"
     showguides="true"
     inkscape:zoom="0.7313903"
     inkscape:cx="90.922726"
     inkscape:cy="242.00485"
     inkscape:window-width="1920"
     inkscape:window-height="1017"
     inkscape:window-x="-8"
     inkscape:window-y="-8"
     inkscape:window-maximized="1"
     inkscape:current-layer="layer1" /><defs
     id="defs1" /><g
     inkscape:label="Capa 1"
     inkscape:groupmode="layer"
     id="layer1"
     transform="translate(-41.904572,-161.89984)"><g
       inkscape:label="Layer 1"
       id="layer1-2"
       transform="matrix(0.92403856,0,0,0.92403856,-439.3369,681.86786)"
       style="display:inline"><path
         style="display:inline;fill:#ff597a;fill-opacity:1"
         d="m 152.80265,253.01153 c 0.49963,-0.62747 0.45049,-0.68879 -1.23793,-1.54484 -1.40804,-0.7139 -4.3627,-3.92997 -5.09367,-5.54433 -0.33602,-0.74211 -0.87044,-2.83756 -1.18762,-4.65657 -0.61721,-3.53983 -1.43865,-6.4352 -2.51834,-8.87656 -0.67066,-1.51649 -0.67066,-1.51649 4.17775,-6.44028 0.49597,-1.02686 7.78745,-8.88195 7.97431,-8.60266 1.11153,1.66131 0.36847,0.29462 1.49819,2.15702 1.55515,2.56372 3.29886,4.97786 4.17937,8.25348 1.88788,7.02316 1.59084,12.60688 -1.09991,17.61004 -0.90256,1.67821 -1.85837,3.17657 -4.27476,5.61027 -1.66159,1.67349 -2.66148,2.34099 -2.41739,2.03443 z m -65.462131,-2.53587 c -0.006,-0.045 -0.036,-1.39145 -0.0661,-2.99218 -0.0496,-2.63525 -0.12264,-3.0258 -0.7723,-4.1309 -0.75461,-1.28361 -1.97917,-2.46107 -3.30108,-3.17408 -0.71928,-0.38796 -0.854,-0.69373 -1.51556,-3.43958 -1.32149,-5.48495 -2.64963,-7.46541 -5.57718,-8.31647 -1.55266,-0.45137 -2.92669,-0.36433 -4.47753,0.28365 -1.41305,0.59041 -1.85976,1.31642 -2.00595,3.26013 -0.13229,1.75892 -0.13229,1.75892 -1.22919,1.67272 -0.60329,-0.0474 -1.53461,0.0347 -2.06959,0.18238 -0.74482,0.20565 -0.91424,0.19485 -0.7232,-0.0461 0.13722,-0.17306 0.33143,-1.47355 0.43158,-2.88997 0.32723,-4.62783 2.05955,-9.65782 4.66621,-13.54885 3.64081,-5.43473 6.71653,-8.36731 12.39332,-11.81653 6.9499,-4.22277 13.38113,-5.57753 22.975081,-5.91058 5.85998,-0.20343 10.52728,0.44748 8.08441,-0.0288 -1.39815,-0.27261 -9.00428,7.34861 -15.137341,14.96239 -4.54017,5.63632 -6.46904,9.0552 -7.31438,12.96458 -0.94927,4.39 0.0302,9.70263 2.52148,13.67591 0.58641,0.93527 1.07441,1.77206 1.0662,1.85867 -0.3837,4.05106 -7.86368,8.0477 -7.94884,7.43364 z m 1.31236,-21.33981 c 0.47267,-0.8832 -0.29603,-1.45598 -3.22403,-2.40232 -2.78063,-0.89871 -3.5056,-0.92491 -3.80772,-0.13761 -0.2645,0.68929 0.57104,1.25729 3.15902,2.14752 2.8654,0.98565 3.51975,1.05195 3.87273,0.39241 z m 2.25697,-4.51637 c 0.0813,-0.13161 0.079,-0.41882 -0.005,-0.63825 -0.17423,-0.45405 -5.68775,-3.61754 -6.30486,-3.61754 -0.48318,0 -1.00509,0.87696 -0.81567,1.37056 0.15632,0.40737 1.62939,1.35952 4.18273,2.70361 1.78116,0.9376 2.45027,0.9789 2.94301,0.18162 z m 33.238761,-8.06857 c -0.36102,-0.43501 -0.84386,-0.59299 3.80406,-5.62115 3.15851,-3.41688 4.06663,-4.92163 4.74833,-6.48599 0.23681,-0.54342 0.51743,-0.99209 0.93729,-0.84671 0.36104,0.12499 1.46598,0.80818 3.05629,1.73545 0.88202,0.76994 -0.363,0.40578 -2.30601,2.67574 -0.8218,0.97375 -2.13071,1.95138 -3.18118,3.80309 -4.26362,7.5157 -6.4463,5.47756 -7.05878,4.73957 z"
         id="path8-5"
         sodipodi:nodetypes="sssssssssssssssssssssssssssssssssssssssssssssssssscsss"
         transform="matrix(1.0822059,0,0,1.0744065,460.22752,-768.90241)"
         inkscape:export-filename="..\Web Assets\nokorpo_logo.svg"
         inkscape:export-xdpi="96"
         inkscape:export-ydpi="96" /><path
         style="display:inline;fill:#000000;fill-opacity:1;stroke:#000000;stroke-width:0.501812;stroke-dasharray:none;stroke-opacity:1"
         d="m 73.242489,256.99666 c -1.40562,-0.51562 -4.5013,-2.61489 -5.36303,-3.63682 -1.08798,-1.29026 -1.42969,-2.36365 -1.42969,-4.49101 0,-1.93895 0,-1.93895 -1.88617,-3.62768 -2.19967,-1.96941 -3.13432,-3.65862 -3.13833,-5.67192 -0.006,-3.17526 3.55085,-6.19846 6.97692,-5.92963 1.09029,0.0856 1.09029,0.0856 1.22258,-1.67337 0.14619,-1.94371 0.5929,-2.66972 2.00595,-3.26013 1.55084,-0.64798 2.92487,-0.73502 4.47753,-0.28365 2.92756,0.85106 4.25569,2.83152 5.57718,8.31647 0.66156,2.74585 0.79629,3.05162 1.51556,3.43958 1.32191,0.71301 2.54648,1.89047 3.30108,3.17408 0.65047,1.10647 0.72231,1.49237 0.76904,4.1309 0.0364,2.05658 0.15047,2.91584 0.35907,2.83483 6.3287,-2.45775 7.65918,-6.64745 7.65918,-7.27629 0,-0.087 -0.4798,-0.9234 -1.06621,-1.85867 -2.49124,-3.97328 -3.47075,-9.28591 -2.52148,-13.67591 0.84534,-3.90938 2.77421,-7.32826 7.31438,-12.96458 8.722501,-10.8284 17.393011,-20.32126 19.587231,-21.44498 2.89043,-1.48026 5.63468,-1.23833 9.70823,0.85587 4.06975,2.09224 5.67651,4.07384 5.68151,6.80468 0.005,2.58404 -1.29541,4.73628 -5.81425,9.62478 -4.76522,5.15506 -4.42274,5.75222 -3.98672,6.18824 0.20466,0.20466 1.2071,0.74799 1.44603,0.6563 0.42576,-0.16338 3.89338,-4.43058 8.23976,-9.14631 4.20676,-4.56424 6.30724,-6.71567 9.23716,-8.32921 1.33481,-0.7351 2.0892,-1.10746 4.0327,-1.19069 1.86887,-0.08 2.96894,0.16696 4.29372,0.60941 3.8673,1.29162 7.93092,6.53337 7.98204,10.29621 0.0429,3.15418 -1.76156,5.5806 -11.64722,15.66224 -5.66623,5.77855 -5.66623,5.77855 -5.00336,7.27743 1.07201,2.42401 1.89473,5.32711 2.51055,8.85895 0.31718,1.81901 0.8516,3.91446 1.18762,4.65657 0.77649,1.7149 3.79544,4.93051 5.32339,5.67018 0.64414,0.31182 1.19273,0.71269 1.31499,0.79968 0.36716,0.26125 -1.79648,1.73226 -2.95397,2.11426 -0.50556,0.16685 -1.1926,0.23475 -1.52676,0.15088 -0.33416,-0.0839 -1.48872,-1.07746 -2.56569,-2.20797 -2.66032,-2.79259 -3.7758,-5.04671 -4.48689,-9.06694 -1.1625,-6.57228 -2.04009,-9.73611 -3.17654,-11.45183 -0.72392,-1.09292 -0.78623,-1.3178 -0.4744,-1.71221 1.77548,-2.24565 6.49858,-7.46882 10.65787,-11.78627 5.51638,-5.72615 7.16523,-7.95866 6.87443,-9.30777 -0.52859,-2.45218 -3.43479,-5.66896 -5.74015,-6.35358 -2.29332,-0.68104 -3.64591,-0.53069 -6.22342,0.69179 -2.14758,1.01856 -2.45957,1.67126 -6.53706,5.7874 -2.4011,2.42384 -5.72968,5.89193 -7.39685,7.70685 -1.66717,1.81492 -3.17632,3.39009 -3.35367,3.50038 -0.28738,0.17871 -6.0933,-2.68071 -6.65734,-3.24472 -0.23914,-0.23912 2.03623,-3.09727 6.62144,-8.31736 4.00627,-4.56099 4.96997,-6.00938 4.96997,-7.46955 0,-2.18135 -2.3521,-4.43396 -5.74166,-5.4988 -1.28473,-0.40359 -1.53498,-0.406 -2.98959,-0.0287 -0.87313,0.22648 -2.06375,0.72469 -2.64584,1.10714 -1.62149,1.06538 -12.40462,12.20107 -15.02783,15.51918 -1.28031,1.61947 -2.92535,3.68954 -3.65565,4.60015 -2.324091,2.89791 -4.629341,6.56676 -5.353301,8.51993 -2.20464,5.94779 -1.29716,11.48924 2.5894,15.81204 0.66372,0.73821 1.20676,1.46285 1.20676,1.6103 0,0.96165 -3.17266,6.01924 -6.57353,8.39755 -3.14494,2.19934 -4.51047,1.16807 -6.2174,2.32943 -0.95709,0.65119 -6.49746,3.48323 -7.3553,3.52258 -1.93768,0.0889 -4.59938,0.24325 -6.13397,-0.31973 z m 5.45606,-1.975 c 2.36485,-0.73043 4.77902,-2.39116 5.65915,-3.89298 0.55132,-0.94077 0.73045,-1.65052 0.82388,-3.26439 0.25527,-4.40967 -1.84353,-5.97417 -5.95574,-4.43957 -2.08397,0.77771 -3.25229,1.96672 -3.24717,3.3047 0.005,1.31111 0.49072,2.25414 1.38077,2.68091 0.59032,0.28306 0.86873,0.27208 1.67822,-0.0661 1.50528,-0.62895 1.96419,-0.54115 1.96419,0.3758 0,0.42972 -0.13147,1.06986 -0.29216,1.42253 -0.27635,0.60652 -0.38734,0.63414 -2.05052,0.51026 -0.9671,-0.072 -2.12581,-0.29977 -2.57492,-0.50607 -1.60386,-0.73676 -2.65843,-3.93296 -1.97795,-5.99483 0.41544,-1.25877 1.82865,-2.45697 4.17825,-3.54256 2.27573,-1.05145 2.26912,-1.02478 1.30444,-5.26411 -0.69268,-3.04405 -1.2809,-4.21591 -2.54317,-5.06656 -1.5945,-1.07453 -4.88857,-0.57585 -5.08916,0.77044 -0.17373,1.16604 0.32588,3.42047 1.37986,6.22646 0.58038,1.54514 0.9836,2.87981 0.89605,2.96593 -0.0875,0.0861 -1.18989,-0.93708 -2.44964,-2.27378 -3.31299,-3.51536 -4.32798,-3.85589 -6.59601,-2.21293 -1.46577,1.06179 -2.01735,2.33141 -1.64242,3.78042 0.23453,0.90639 0.7594,1.57351 2.67683,3.4023 2.38508,2.27485 2.38508,2.27485 2.20328,4.11986 -0.15604,1.58359 -0.10241,2.00064 0.37852,2.94334 1.04851,2.05525 5.03374,4.47315 7.4745,4.53489 0.38485,0.01 1.47427,-0.22153 2.42092,-0.51392 z m 36.890341,-9.79489 c -1.58004,-0.26879 -3.20515,-1.20867 -4.4856,-2.59424 -0.91746,-0.99277 -1.04803,-1.05067 -1.85034,-0.82057 -2.22784,0.63893 -5.88357,-0.20531 -7.59869,-1.75482 -2.147981,-1.94057 -2.954491,-5.85815 -1.911301,-9.28402 1.393471,-4.57623 4.382841,-7.61158 7.817141,-7.93737 1.80474,-0.1712 3.38353,0.63736 4.73058,2.42273 1.08426,1.43706 1.09438,1.43979 2.84243,0.76607 2.99518,-1.1544 6.32678,-0.34906 8.0857,1.95452 2.10045,2.75089 2.79892,8.43707 1.45308,11.82955 -1.46387,3.69 -5.40877,6.04319 -9.083,5.41815 z m 3.69331,-2.0712 c 3.78464,-1.95052 5.56619,-5.88527 4.58596,-10.12861 -1.15889,-5.01673 -5.21177,-7.0465 -9.69258,-4.85425 -0.87876,0.42994 -1.56508,0.63045 -1.6177,0.47261 -0.75198,-2.25595 -2.23095,-3.63881 -4.20894,-3.93542 -4.30438,-0.64549 -8.465921,6.4381 -6.96252,11.85131 0.80514,2.89906 4.18333,4.3831 7.39669,3.24936 0.61867,-0.21828 1.18941,-0.39688 1.26831,-0.39688 0.0789,0 0.92713,0.83817 1.88497,1.86261 1.12105,1.199 2.11857,2.0015 2.79984,2.25248 1.31015,0.48263 3.18381,0.32881 4.54597,-0.37321 z m -0.61391,-4.20895 c -0.1657,-0.10691 -0.42913,-0.65946 -0.58539,-1.22789 -0.71688,-2.6077 -2.8779,-3.31905 -4.80204,-1.5807 -0.8775,0.79276 -1.12821,0.90108 -1.45597,0.62906 -0.63029,-0.52309 -0.46416,-1.30686 0.47636,-2.24737 0.82943,-0.82943 2.51288,-1.53298 3.18232,-1.32996 0.17105,0.0519 0.63623,0.16551 1.03375,0.25253 0.8837,0.19345 2.47504,1.55261 2.99493,2.55796 0.52581,1.0168 0.50505,2.78096 -0.0352,2.98826 -0.50287,0.19297 -0.43974,0.19624 -0.80881,-0.0419 z m -10.88985,-3.30472 c -0.15164,-0.18271 -0.35944,-0.6658 -0.46177,-1.07353 -0.10233,-0.40772 -0.46111,-0.92153 -0.79728,-1.1418 -0.64913,-0.42533 -1.28083,-0.25094 -2.29538,0.63368 -0.36806,0.32091 -0.53565,0.335 -0.85293,0.0717 -0.34816,-0.28895 -0.34893,-0.41657 -0.006,-1.07879 0.92194,-1.78285 2.92681,-2.12236 4.47998,-0.75866 1.11161,0.97601 1.72963,2.64833 1.21007,3.27436 -0.40809,0.49171 -0.90515,0.52017 -1.27622,0.0731 z"
         id="path7-5"
         sodipodi:nodetypes="ssssscsssssssssssssscssssssscssssssssssssssssssssssssssssssssssssssssscssssssssssssssssscssssssssssssssssssssssssssssssssssscsssscsscc"
         transform="matrix(1.0822059,0,0,1.0744065,460.22752,-768.90241)" /><g
         id="text1"
         style="font-size:24.762px;font-family:Souses;-inkscape-font-specification:Souses;letter-spacing:1.43167px;display:inline;fill:#fa0244;stroke:#000000;stroke-width:0.438694;stroke-linecap:round;stroke-dashoffset:10.9153"
         aria-label="NOKORPOO"><path
           style="letter-spacing:1.14533px;fill:#000000;stroke:none"
           d="m 520.80237,-477.02889 4.88214,1.79022 3.66563,-6.83188 0.23249,0.0853 0.51906,8.36635 5.12238,1.35083 9.05167,-14.61536 -4.87438,-2.31486 -4.58397,7.68198 -0.23248,-0.0852 -0.53842,-9.03281 -4.88214,-1.79022 z m 21.23232,-1.98426 c -2.05767,5.1357 -0.27289,9.55513 4.69639,10.59158 6.18129,1.28925 9.92746,-2.48248 11.58897,-6.68901 1.68575,-4.20148 1.2425,-9.3529 -4.69639,-10.59159 -5.45408,-1.13757 -9.53131,1.55332 -11.58897,6.68902 z m 9.92747,-2.48248 c 2.30283,0.4803 1.69717,3.26289 0.90381,5.24748 -0.79335,1.98459 -1.90391,4.15597 -4.44915,3.62511 -2.30283,-0.48031 -1.82044,-3.03566 -0.92805,-5.25254 0.79335,-1.9846 1.92815,-4.15092 4.47339,-3.62005 z m 23.344,16.18738 -4.82013,-9.19407 6.76359,-5.18397 -3.08725,-3.71856 -7.03401,5.78377 -0.24687,-0.0193 1.38728,-5.35583 -5.29373,-0.91052 -4.20897,17.30566 5.18421,0.40521 1.43127,-5.60076 0.24687,0.0193 2.64203,5.91914 z m 1.50478,-8.90254 c -0.66989,5.49187 2.18988,9.30481 7.25867,9.03048 6.30509,-0.34125 8.95713,-4.94846 9.48275,-9.4406 0.55035,-4.49346 -1.20085,-9.35833 -7.25867,-9.03047 -5.56331,0.3011 -8.81285,3.94872 -9.48275,9.44059 z m 8.95713,-4.94846 c 2.34895,-0.12713 2.47812,2.71768 2.22098,4.83944 -0.25714,2.12177 -0.77288,4.50552 -3.36909,4.64603 -2.34895,0.12713 -2.53892,-2.46641 -2.24571,-4.83811 0.25714,-2.12176 0.79761,-4.50685 3.39382,-4.64736 z m 15.75252,11.60837 -0.24173,-5.50328 0.48606,-0.0949 4.61399,5.15436 5.57243,-2.60157 -4.73783,-4.62559 10e-4,-0.25252 c 0,0 3.38514,-2.17458 3.30364,-5.56464 -0.0537,-4.15236 -3.03253,-5.84151 -8.84217,-4.45511 l -6.07698,1.43859 0.57471,17.54838 z m -0.61881,-13.25079 0.85062,-0.16605 c 2.18729,-0.42698 3.40129,-0.41167 3.44233,1.22023 0.0167,1.63664 -1.17645,2.37415 -4.09284,2.94346 z m 18.26542,9.46057 -0.81017,-5.21759 1.2891,-0.43932 c 5.6252,-1.91702 7.53573,-5.44575 6.93743,-9.42753 -0.65473,-4.22414 -5.1845,-4.77327 -8.93464,-3.49526 -2.8126,0.95851 -0.51564,0.17573 -6.06096,2.32713 l 2.474,17.46918 z m -2.11965,-13.66588 1.28911,-0.43932 c 1.64068,-0.55913 2.93504,-0.21542 3.12347,1.02839 0.18843,1.2438 -0.1579,2.14664 -2.50173,2.9454 l -1.28911,0.43932 z"
           id="path1" /><path
           style="fill:#000000;stroke:none"
           d="m 628.05185,-484.42696 c 1.57665,5.30317 5.72013,7.65867 10.25865,5.38496 5.64548,-2.82826 6.23933,-8.11098 4.92922,-12.43985 -1.28797,-4.33997 -4.83456,-8.10232 -10.25865,-5.38497 -4.9813,2.49553 -6.50587,7.13669 -4.92922,12.43986 z m 6.23933,-8.11098 c 2.10322,-1.05367 3.35657,1.50342 3.96724,3.55161 0.61067,2.0482 1.08872,4.43979 -1.23589,5.60437 -2.10322,1.05367 -3.31207,-1.24876 -3.98938,-3.54053 -0.61067,-2.04819 -1.06658,-4.45087 1.25803,-5.61545 z"
           id="path3"
           sodipodi:nodetypes="sscssssscs" /></g></g></g></svg>
