<?xml version="1.0" encoding="utf-8"?>
<!-- Generator: Adobe Illustrator 26.3.1, SVG Export Plug-In . SVG Version: 6.00 Build 0)  -->
<svg version="1.1" id="Capa_1" xmlns="http://www.w3.org/2000/svg" xmlns:xlink="http://www.w3.org/1999/xlink" x="0px" y="0px"
	 viewBox="0 0 986.5 279.7" style="enable-background:new 0 0 986.5 279.7;" xml:space="preserve">
<style type="text/css">
	.st0{clip-path:url(#SVGID_00000097495025898248522130000002156570721209139846_);}
	.st1{fill:#007BC4;}
	.st2{enable-background:new    ;}
</style>
<g>
	<defs>
		<rect id="SVGID_1_" width="195.8" height="279.7"/>
	</defs>
	<clipPath id="SVGID_00000091699909218646260350000000498520099282393512_">
		<use xlink:href="#SVGID_1_"  style="overflow:visible;"/>
	</clipPath>
	<g style="clip-path:url(#SVGID_00000091699909218646260350000000498520099282393512_);">
		<path class="st1" d="M0,279.7h195.8V0H0V279.7z M90.9,23.3h4.7v-4.7h4.7v4.7h4.7V28h-4.7v4.7h-4.7V28h-4.7
			C90.9,28,90.9,23.3,90.9,23.3z M55.9,223.7h-9.3v9.3h-9.3v-9.3H28v-9.3h9.3v-9.3h9.3v9.3h9.3V223.7L55.9,223.7z M55.9,167.8h-9.3
			v9.3h-9.3v-9.3H28v-9.3h9.3v-9.3h9.3v9.3h9.3V167.8z M55.9,111.9h-9.3v9.3h-9.3v-9.3H28v-9.3h9.3v-9.3h9.3v9.3h9.3V111.9z
			 M102.7,209.4c-0.1,1.6-0.2,3.3-0.2,5c0,13.9,4.3,26.7,11.7,37.3H81.5c7.4-10.6,11.7-23.4,11.7-37.3c0-1.7-0.1-3.4-0.2-5
			c-15.7-2.3-27.8-15.9-27.8-32.3h65.3C130.5,193.5,118.5,207.1,102.7,209.4 M111.9,102.6v9.3h-9.3v9.3h-9.3v-9.3h-9.3v-9.3h9.3
			v-9.3h9.3v9.3H111.9z M97.9,130.5c10.3,0,18.7,8.4,18.7,18.6s-8.3,18.6-18.7,18.6s-18.6-8.4-18.6-18.6S87.6,130.5,97.9,130.5
			 M130.5,81.6H65.2v-7h65.3V81.6z M137.1,62.7l-3.4,4.9H125l6.2-9c1.1-1.5,1.4-3.6,1.4-4.8c0-2.2-0.7-4-2.1-5.5
			c-1.7-1.7-3.7-2.6-6.2-2.6c-1,0-1.8,0.1-1.8,0.1l0,0c0.5,1.8,0.8,3.7,0.8,5.3c0,3-0.3,5.6-1.9,8.3l-4.8,8.2h-8.5l6.9-11.7
			c0.6-1.1,1.1-3.2,1.1-4.8c0-2.4-0.7-4.3-2.3-5.9c-1.8-1.9-3.9-2.8-6.2-2.8c-2.9,0-5,0.8-6.4,2.5v22.7h-7V44.9
			c-1.4-1.7-3.5-2.5-6.4-2.5c-2.3,0-4.4,0.9-6.2,2.8c-1.5,1.6-2.3,3.5-2.3,5.9c0,1.6,0.5,3.7,1.1,4.8l6.9,11.7h-8.5l-4.8-8.2
			c-1.6-2.7-1.9-5.3-1.9-8.3c0-1.7,0.3-3.5,0.8-5.3l0,0c0,0-0.7-0.1-1.8-0.1c-2.4,0-4.5,0.9-6.1,2.6c-1.4,1.4-2.1,3.3-2.1,5.5
			c0,1.3,0.4,3.3,1.4,4.8l6.2,9h-8.7l-3.4-4.9c-1.9-2.7-2.7-5.5-2.7-8.9c0-4.4,1.5-8,4.5-10.8c3-3.1,6.7-4.7,10.9-4.7
			c1.8,0,3.7,0.4,5.8,1c0.2-0.2,0.3-0.3,0.5-0.5C80.4,36.3,83.9,35,88,35c3.6,0,6.9,1.1,9.8,3.2c3-2.2,6.3-3.2,9.9-3.2
			c4.1,0,7.6,1.3,10.4,3.9c0.2,0.2,0.3,0.3,0.5,0.5c2-0.7,4-1,5.8-1c4.2,0,7.9,1.6,10.9,4.7c3,2.8,4.6,6.4,4.6,10.8
			C139.9,57.2,139,60,137.1,62.7 M167.8,223.7h-9.3v9.3h-9.3v-9.3h-9.3v-9.3h9.3v-9.3h9.3v9.3h9.3V223.7z M167.8,167.8h-9.3v9.3
			h-9.3v-9.3h-9.3v-9.3h9.3v-9.3h9.3v9.3h9.3V167.8z M167.8,111.9h-9.3v9.3h-9.3v-9.3h-9.3v-9.3h9.3v-9.3h9.3v9.3h9.3V111.9z"/>
	</g>
</g>
<g class="st2">
	<path class="st1" d="M341.8,28h4.7L370,83.9h-8l-5.4-13.7h-25L326,83.9h-7.7L341.8,28z M353.9,63.5L344.1,39l-9.9,24.5H353.9z"/>
	<path class="st1" d="M391.2,55.1L373.3,28h8.6l13.9,21.1L409.5,28h8.3l-17.9,27.3l18.9,28.6h-8.6l-14.9-22.6l-14.7,22.6h-8.3
		L391.2,55.1z"/>
	<path class="st1" d="M427.4,28h34.3l-2.3,6.8h-24.8v16.5h22.2v6.8h-22.2v19h25.1l2.3,6.8h-34.7V28z"/>
	<path class="st1" d="M472.6,28h6.2l28.6,39.8V28h7.3v55.9h-4.1l-30.6-42.7v42.7h-7.3V28z"/>
	<path class="st1" d="M526.3,55.5c0-17.3,9.5-28.8,24.6-28.8c6.6,0,13.5,2.4,18.6,6.2v8.5c-6.2-4.6-13-7.8-18.6-7.8
		c-9.7,0-16.8,8.3-16.8,21.9c0,14.1,6.8,22.7,16.8,22.7c5.7,0,12.5-3.2,18.6-7.8v8.5c-5.1,3.8-12.1,6.2-18.6,6.2
		C535.4,85.2,526.3,73.3,526.3,55.5z"/>
	<path class="st1" d="M581,28h7.3v55.9H581V28z"/>
	<path class="st1" d="M620.4,28h4.7l23.5,55.9h-8l-5.4-13.7h-25l-5.5,13.7h-7.7L620.4,28z M632.5,63.5L622.7,39l-9.9,24.5H632.5z"/>
	<path class="st1" d="M675.5,55.7c0-17.4,10.9-29,27.5-29c6.2,0,13.7,2.4,19.2,5.7v8.4c-6.9-4.3-14.3-7.1-19.2-7.1
		c-11.6,0-19.7,8.8-19.7,22c0,14,7,22.7,17.5,22.7c9.7,0,16.8-6.2,17.7-16.6h-15.6l-2.2-6.8h25c0.3,1.5,0.5,3.2,0.5,5.1
		c0,14.8-9.8,25.3-25.4,25.3S675.5,73.9,675.5,55.7z"/>
	<path class="st1" d="M754.8,28h4.7l23.5,55.9h-8l-5.4-13.7h-25L739,83.9h-7.7L754.8,28z M766.8,63.5L757,39l-9.9,24.5H766.8z"/>
	<path class="st1" d="M791.5,28h7.3v49.1h25.9l2.3,6.8h-35.5V28z"/>
	<path class="st1" d="M835.9,28h34.3l-2.3,6.8h-24.8v16.5h22.2v6.8h-22.2v19h25.1l2.3,6.8h-34.7V28z"/>
	<path class="st1" d="M876.9,55.7c0-17.4,10.9-29,27.5-29c6.2,0,13.7,2.4,19.2,5.7v8.4c-6.9-4.3-14.3-7.1-19.2-7.1
		c-11.6,0-19.7,8.8-19.7,22c0,14,7,22.7,17.5,22.7c9.7,0,16.8-6.2,17.7-16.6h-15.6L902,55h25c0.3,1.5,0.5,3.2,0.5,5.1
		c0,14.8-9.8,25.3-25.4,25.3S876.9,73.9,876.9,55.7z"/>
	<path class="st1" d="M956.2,28h4.7l23.5,55.9h-8l-5.4-13.7h-25l-5.5,13.7h-7.7L956.2,28z M968.3,63.5L958.5,39l-9.9,24.5H968.3z"/>
</g>
<g class="st2">
	<path class="st1" d="M369,139.4c0,18.1-10.4,28.3-25.8,28.3h-18.5v-55.9h17.7C358.4,111.9,369,121.9,369,139.4z M361.2,139.4
		c0-13.8-8-20.7-19-20.7H332V161h10.7C353.5,161,361.2,153.8,361.2,139.4z"/>
	<path class="st1" d="M396.3,111.9h4.7l23.5,55.9h-8l-5.4-13.7h-25l-5.5,13.7h-7.7L396.3,111.9z M408.4,147.5l-9.8-24.5l-9.9,24.5
		H408.4z"/>
	<path class="st1" d="M430.2,164.7v-7.8c4.7,3,10.5,5.3,14.7,5.3c7.5,0,12.3-3.6,12.3-9.2c0-5.3-4.8-7.9-11.3-11.1
		c-8.1-4-15-7.1-15-16.7c0-8.1,6.5-14.7,17.1-14.7c5.4,0,11,1.7,15.3,4v7.7c-5.3-2.8-10.9-4.9-15.3-4.9c-6.4,0-9.7,3.6-9.7,7.6
		c0,4.5,3.6,6.4,10.2,9.8c9.6,4.9,16.3,7.9,16.3,17.8c0,10.2-8,16.4-19.7,16.4C439.6,169.1,434,167.1,430.2,164.7z"/>
	<path class="st1" d="M497.8,111.9h7.3v55.9h-7.3V111.9z"/>
	<path class="st1" d="M520,111.9h6.2l28.6,39.8v-39.8h7.3v55.9h-4.1l-30.6-42.7v42.7H520V111.9z"/>
	<path class="st1" d="M621.3,139.4c0,18.1-10.4,28.3-25.8,28.3H577v-55.9h17.7C610.7,111.9,621.3,121.9,621.3,139.4z M613.5,139.4
		c0-13.8-8-20.7-19-20.7h-10.2V161H595C605.8,161,613.5,153.8,613.5,139.4z"/>
	<path class="st1" d="M632.5,149.1v-37.2h7.3v36.9c0,8.7,5.3,13.5,13.4,13.5c8.1,0,13.4-4.9,13.4-13.5v-36.9h7.3v37.2
		c0,12.6-8,20.2-20.7,20.2C640.5,169.2,632.5,161.6,632.5,149.1z"/>
	<path class="st1" d="M684.5,164.7v-7.8c4.7,3,10.5,5.3,14.7,5.3c7.5,0,12.3-3.6,12.3-9.2c0-5.3-4.8-7.9-11.3-11.1
		c-8.1-4-15-7.1-15-16.7c0-8.1,6.5-14.7,17.1-14.7c5.4,0,11,1.7,15.3,4v7.7c-5.3-2.8-10.9-4.9-15.3-4.9c-6.4,0-9.7,3.6-9.7,7.6
		c0,4.5,3.6,6.4,10.2,9.8c9.6,4.9,16.3,7.9,16.3,17.8c0,10.2-8,16.4-19.7,16.4C693.9,169.1,688.3,167.1,684.5,164.7z"/>
	<path class="st1" d="M746.6,118.7h-20.2l-2.3-6.8h52.3l-2.3,6.8h-20.2v49.1h-7.3V118.7z"/>
	<path class="st1" d="M784.8,111.9H801c11.7,0,18.9,5.9,18.9,16c0,9.6-6.6,15.6-17.2,16.2l21.5,23.7h-9.5l-20.8-23.7h-1.8v23.7h-7.3
		V111.9z M800.4,138c7,0,11.9-4,11.9-10c0-5.8-4.4-9.5-11.6-9.5h-8.6V138H800.4z"/>
	<path class="st1" d="M833.1,111.9h7.3v55.9h-7.3V111.9z"/>
	<path class="st1" d="M872.5,111.9h4.7l23.5,55.9h-8l-5.4-13.7h-25l-5.5,13.7H849L872.5,111.9z M884.5,147.5l-9.8-24.5l-9.9,24.5
		H884.5z"/>
	<path class="st1" d="M906.3,164.7v-7.8c4.7,3,10.5,5.3,14.7,5.3c7.5,0,12.3-3.6,12.3-9.2c0-5.3-4.8-7.9-11.3-11.1
		c-8.1-4-15-7.1-15-16.7c0-8.1,6.5-14.7,17.1-14.7c5.4,0,11,1.7,15.3,4v7.7c-5.3-2.8-10.9-4.9-15.3-4.9c-6.4,0-9.7,3.6-9.7,7.6
		c0,4.5,3.6,6.4,10.2,9.8c9.6,4.9,16.3,7.9,16.3,17.8c0,10.2-8,16.4-19.7,16.4C915.7,169.1,910.1,167.1,906.3,164.7z"/>
</g>
<g class="st2">
	<path class="st1" d="M321.4,223.4c0-17.3,9.5-28.8,24.6-28.8c6.6,0,13.5,2.4,18.6,6.2v8.5c-6.2-4.6-13-7.8-18.6-7.8
		c-9.7,0-16.8,8.3-16.8,21.9c0,14.1,6.8,22.7,16.8,22.7c5.7,0,12.5-3.2,18.6-7.8v8.5c-5.1,3.8-12.1,6.2-18.6,6.2
		C330.6,253,321.4,241.2,321.4,223.4z"/>
	<path class="st1" d="M375.7,233v-37.2h7.3v36.9c0,8.7,5.3,13.5,13.4,13.5c8.1,0,13.4-4.9,13.4-13.5v-36.9h7.3V233
		c0,12.6-8,20.2-20.7,20.2C383.7,253.2,375.7,245.5,375.7,233z"/>
	<path class="st1" d="M431.4,195.8h7.3v49.1h25.9l2.3,6.8h-35.5V195.8z"/>
	<path class="st1" d="M484.9,202.6h-20.2l-2.3-6.8h52.3l-2.3,6.8h-20.2v49.1h-7.3V202.6z"/>
	<path class="st1" d="M522.6,233v-37.2h7.3v36.9c0,8.7,5.3,13.5,13.4,13.5c8.1,0,13.4-4.9,13.4-13.5v-36.9h7.3V233
		c0,12.6-8,20.2-20.7,20.2C530.6,253.2,522.6,245.5,522.6,233z"/>
	<path class="st1" d="M578.3,195.8h16.2c11.7,0,18.9,5.9,18.9,16c0,9.6-6.6,15.6-17.2,16.2l21.5,23.7h-9.5L587.4,228h-1.8v23.7h-7.3
		V195.8z M593.9,221.9c7,0,11.9-4,11.9-10c0-5.8-4.4-9.5-11.6-9.5h-8.6v19.4H593.9z"/>
	<path class="st1" d="M643.8,195.8h4.7l23.5,55.9h-8l-5.4-13.7h-25l-5.5,13.7h-7.7L643.8,195.8z M655.9,231.4l-9.8-24.5l-9.9,24.5
		H655.9z"/>
	<path class="st1" d="M680.6,195.8h7.3v55.9h-7.3V195.8z"/>
	<path class="st1" d="M699,248.6v-7.8c4.7,3,10.5,5.3,14.7,5.3c7.5,0,12.3-3.6,12.3-9.2c0-5.3-4.8-7.9-11.3-11.1
		c-8.1-4-15-7.1-15-16.7c0-8.1,6.5-14.7,17.1-14.7c5.4,0,11,1.7,15.3,4v7.7c-5.3-2.8-10.9-4.9-15.3-4.9c-6.4,0-9.7,3.6-9.7,7.6
		c0,4.5,3.6,6.4,10.2,9.8c9.6,4.9,16.3,7.9,16.3,17.8c0,10.2-8,16.4-19.7,16.4C708.4,253,702.8,251.1,699,248.6z"/>
</g>
<rect x="251.9" y="0.1" class="st1" width="9.4" height="279.5"/>
</svg>
