<?xml version="1.0" encoding="UTF-8" standalone="no"?>
<svg
   height="256"
   width="256"
   version="1.1"
   id="svg7"
   sodipodi:docname="icon.svg"
   inkscape:version="1.3 (0e150ed6c4, 2023-07-21)"
   inkscape:export-filename="icon.png"
   inkscape:export-xdpi="96"
   inkscape:export-ydpi="96"
   xmlns:inkscape="http://www.inkscape.org/namespaces/inkscape"
   xmlns:sodipodi="http://sodipodi.sourceforge.net/DTD/sodipodi-0.dtd"
   xmlns="http://www.w3.org/2000/svg"
   xmlns:svg="http://www.w3.org/2000/svg">
  <defs
     id="defs7" />
  <sodipodi:namedview
     id="namedview7"
     pagecolor="#505050"
     bordercolor="#eeeeee"
     borderopacity="1"
     inkscape:showpageshadow="0"
     inkscape:pageopacity="0"
     inkscape:pagecheckerboard="0"
     inkscape:deskcolor="#505050"
     inkscape:zoom="0.55662826"
     inkscape:cx="248.81956"
     inkscape:cy="62.878589"
     inkscape:window-width="1920"
     inkscape:window-height="1017"
     inkscape:window-x="-8"
     inkscape:window-y="-8"
     inkscape:window-maximized="1"
     inkscape:current-layer="svg7" />
  <g
     id="path13-87-6-9"
     inkscape:label="foot right">
    <path
       id="path1"
       style="color:#000000;fill:#272727;-inkscape-stroke:none"
       d="m 202.33789,0.890625 c -8.53592,0 -14.4082,4.2480469 -14.4082,4.2480469 -2.70039,1.530526 -5.41143,3.390345 -7.9961,6.1035161 -7.68308,8.06508 -14.02249,21.290109 -17.35156,42.789062 -0.21978,1.419371 -0.22182,2.330465 -0.38672,3.617188 -7.08603,-0.674433 -15.41721,-0.549409 -24.05273,2.044921 -12.51103,3.758634 -25.23062,13.220913 -32.48242,30.615235 l 0.12304,-0.279297 c 0,0 -4.58193,8.401055 -11.183591,10.427733 l -22.716797,5.5918 c -2.062189,-4.59085 -4.243972,-9.410297 -5.755859,-12.949221 -2.224224,-5.206314 -3.82632,-9.535697 -3.925781,-9.90039 -1.223277,-4.485351 -4.409349,-8.300964 -7.986328,-10.236328 -3.57698,-1.935365 -7.204267,-2.351123 -10.431641,-2.273438 -3.227374,0.07769 -6.157731,0.68375 -8.71875,1.484375 -2.561018,0.800625 -4.555507,1.54713 -6.830078,3.269531 -12.879613,9.753054 -17.331557,25.467361 -13.492187,37.945311 2.136942,6.94506 6.975193,15.94098 11.40039,23.21485 L -0.37304688,176.9375 50.716797,164.36523 c 2.64264,2.45872 6.594167,5.89246 10.210937,9.08204 -0.219548,0.22353 -0.711926,0.61006 -0.8125,0.72265 -1.056533,0.85277 -4.374687,3.69009 -6.357422,9.07031 -2.315621,6.28355 -2.009902,15.58109 4.041016,25.48633 3.874731,6.34284 10.435121,9.56677 16.167969,10.38477 8.934442,1.58412 16.577027,-1.21956 21.347656,-3.53125 0.942718,-0.40843 1.855469,-0.82813 1.855469,-0.82813 l 0.738281,-0.36718 0.650391,-0.50977 c 0,0 0.555077,-0.43957 1.140625,-0.97852 l -0.708985,0.58204 c 0.929568,-0.67815 1.488966,-1.44129 2.187496,-2.17579 0.7163,1.03202 1.40095,2.10094 2.1543,3.05274 0.69528,0.87842 1.386,1.70193 2.27344,2.55664 0.88744,0.85471 1.54949,2.01091 4.81836,2.82812 4.27898,1.06976 5.44198,-0.31069 6.54492,-0.85742 1.10294,-0.54673 1.90608,-1.09246 2.74414,-1.69726 1.67612,-1.2096 3.37448,-2.66502 5.18164,-4.33399 1.39552,-1.2888 2.82394,-2.74701 4.23438,-4.20117 1.70278,1.6898 3.51638,3.25745 5.46093,4.67578 -4.49442,4.27977 -8.50032,9.60583 -11.43945,16.30274 -2.26615,5.16347 -3.5328,10.00613 -1.96875,15.16601 1.56405,5.1599 6.6321,8.61983 10.89648,9.60352 8.52879,1.96737 16.9961,-0.45272 26.15235,-3.29688 18.31249,-5.6883 37.73242,-15.51172 37.73242,-15.51172 l 1.53125,-0.76757 1.08594,-1.32618 c 0,0 3.21356,-3.72154 4.86133,-9.26562 0.82388,-2.77205 1.33077,-6.25455 0.45312,-10.07227 -0.0163,-0.071 -0.0529,-0.1418 -0.0703,-0.21289 0.12722,-0.0582 1.00747,-0.41493 1.00976,-0.41601 0.0421,-0.019 16.06867,-7.33144 24.94141,-24.4043 0.64193,-0.01 1.29627,-0.01 1.86719,-0.084 3.29649,-0.42752 5.72932,-1.51711 7.52344,-2.48829 4.92032,-2.66353 5.88968,-5.58923 7.3457,-8.04296 1.45602,-2.45375 2.44726,-4.63086 2.44726,-4.63086 l 0.1543,-0.33594 0.1211,-0.34766 c 0,0 0.53507,-1.69911 0.98046,-3.32031 5.47025,-10.60514 9.93768,-26.3902 1.27344,-41.48633 l -1.84375,-3.20898 -3.63281,-0.69922 c 0,0 -10.54504,-1.92202 -23.07031,2.35547 -1.78199,-2.97181 -3.72125,-5.99634 -5.9668,-9.12305 l -0.38281,-0.53516 -0.46875,-0.46875 -0.19532,-0.19531 -0.20312,-0.17773 c 0.32572,0.2848 -3.86471,-3.38411 -8.98438,-7.10742 -2.911,-2.11707 -6.18541,-4.35739 -9.71289,-6.30469 1.19018,-3.484199 1.92141,-7.246619 1.81836,-11.29883 7.26906,-4.006037 13.0736,-7.987259 13.71485,-8.435547 1.20388,-0.536537 10.07467,-4.540555 18.78711,-11.433594 4.65843,-3.685626 9.26953,-8.098119 12.23632,-13.978515 2.96681,-5.880397 3.61557,-14.06143 -0.375,-20.931641 l -0.6621,-1.140625 -0.99024,-0.86914 c 0,0 -6.14444,-5.225655 -15.36523,-5.908204 -2.20244,-0.163029 -4.60078,-0.02569 -7.11524,0.386719 0.98379,-3.401134 1.68455,-6.931665 1.37695,-10.742187 -0.0464,-0.574535 -0.23164,-1.161047 -0.33007,-1.742188 l 0.5332,-0.0059 -0.67383,-0.730469 c -1.01133,-4.892546 -3.738,-9.8303962 -8.32031,-13.1523438 l -1.06836,-0.7753906 -1.25977,-0.3925781 c 0,0 -3.13942,-0.92680789 -6.99609,-0.8828125 z M 179.61914,114.92773 c 0.0113,0.0586 0.0175,0.11516 0.0293,0.17383 -0.063,-0.01 -0.12836,-0.0193 -0.19141,-0.0293 0.0552,-0.0518 0.10665,-0.0921 0.16211,-0.14454 z m -60.09375,67.9961 c 0.0544,0.16989 0.13784,0.37612 0.25781,0.6289 -0.25179,-0.0995 -0.57257,-0.23986 -0.80468,-0.33007 0.1957,-0.10348 0.36941,-0.19956 0.54687,-0.29883 z m -13.54492,21.16797 c 4.6e-4,7.1e-4 -4.6e-4,0.001 0,0.002 l -0.0234,0.0527 c 0.004,-0.008 0.002,-0.009 0.006,-0.0176 0.006,-0.014 0.0121,-0.0254 0.0176,-0.0371 z m -0.76367,1.61132 -0.0606,0.11719 c 0.0178,-0.0337 0.0332,-0.0678 0.0508,-0.10156 0.003,-0.005 0.007,-0.0106 0.01,-0.0156 z"
       sodipodi:nodetypes="ccsscsccccssssscscccccssccccccccssssssccsssscccsscccccscccccccccccccscccsscccscscccccccccccccccccccccccc" />
  </g>
  <g
     id="g7"
     transform="matrix(0.6624078,0,0,0.6624078,-67.122587,-39.271613)">
    <g
       id="g2"
       transform="matrix(3.7795276,0,0,3.7795276,-91.711778,-200.64221)"
       style="display:inline"
       inkscape:label="rabbit">
      <path
         style="display:inline;fill:#c66e92;fill-opacity:1;stroke:#1a3e2e;stroke-width:0"
         d="m 102.73523,134.71637 c 0,0 -8.075755,-15.83913 -22.666637,-11.46133 -14.225936,4.2683 17.364811,17.63528 17.364811,17.63528 0,0 6.749296,-0.11726 5.301826,-6.17395 z"
         id="path13-87-6"
         sodipodi:nodetypes="cscc"
         inkscape:label="foot right" />
      <path
         style="display:inline;fill:#ccced1;fill-opacity:1;stroke:#1a3e2e;stroke-width:0"
         d="m 122.46439,96.467514 c 0,0 -19.11888,-7.391311 -26.209362,9.616036 -8.29176,19.88876 23.562712,10.96115 23.562712,10.96115 0,0 14.9808,-9.0644 2.64665,-20.577186 z"
         id="path13"
         sodipodi:nodetypes="cscc"
         inkscape:label="head" />
      <path
         style="display:inline;fill:#c66e92;fill-opacity:1;stroke:#1a3e2e;stroke-width:0"
         d="m 126.63601,151.95353 c 0,0 -17.29639,-4.1147 -23.4184,9.83449 -5.968886,13.6003 24.68432,-1.79556 24.68432,-1.79556 0,0 4.28477,-5.21608 -1.26592,-8.03893 z"
         id="path13-87"
         sodipodi:nodetypes="cscc"
         inkscape:label="foot left" />
      <path
         style="display:inline;fill:#ccced1;fill-opacity:1;stroke:#1a3e2e;stroke-width:0"
         d="m 148.73077,121.65885 c 0,0 -7.26414,-1.39852 -13.53736,4.38826 -15.53873,14.33381 9.08801,14.73561 9.08801,14.73561 0,0 9.65392,-10.05568 4.44935,-19.12387 z"
         id="path13-8"
         sodipodi:nodetypes="cscc"
         inkscape:label="tail" />
      <path
         style="display:inline;fill:#ccced1;fill-opacity:1;stroke:#1a3e2e;stroke-width:0"
         d="m 133.72803,72.557794 c 0,0 -11.15405,-3.497389 -14.5276,18.288858 -3.29736,21.294218 10.11098,-0.89761 10.11098,-0.89761 0,0 11.26388,-12.427332 4.41662,-17.391248 z"
         id="path13-0"
         sodipodi:nodetypes="cscc"
         inkscape:label="ear right" />
      <path
         style="display:inline;fill:#ccced1;fill-opacity:1;stroke:#1a3e2e;stroke-width:0"
         d="m 145.43186,85.108657 c 0,0 -8.7794,-7.717945 -20.69331,10.831454 -11.64484,18.130469 9.60712,3.277347 9.60712,3.277347 0,0 15.33401,-6.795699 11.08619,-14.108801 z"
         id="path13-0-6"
         sodipodi:nodetypes="cscc"
         inkscape:label="ear left" />
      <path
         style="display:inline;fill:#c66e92;fill-opacity:1;stroke:#1a3e2e;stroke-width:0"
         d="m 139.76587,90.103485 c 0,0 -5.19558,-4.604243 -12.24614,6.461652 -6.89131,10.815983 5.68543,1.955147 5.68543,1.955147 0,0 9.07453,-4.054066 6.56071,-8.416799 z"
         id="path13-0-6-1"
         sodipodi:nodetypes="cscc"
         inkscape:label="inner ear" />
      <path
         id="path13-3"
         style="display:inline;fill:#ccced1;fill-opacity:1;stroke:#1a3e2e;stroke-width:0"
         inkscape:label="body"
         d="m 124.2453,111.27739 c -1.67836,-0.0366 -1.77251,1.67233 -1.41284,3.47007 -11.48797,-1.82499 -26.751751,-1.48273 -25.832528,13.55783 2.360933,38.63021 34.524508,22.83737 34.524508,22.83737 0,0 20.73352,-9.61355 3.59875,-33.47186 l -5.2e-4,-5.2e-4 c -3.8e-4,-5.2e-4 -6.6e-4,-0.001 -0.001,-0.002 l -0.002,-5.2e-4 c -0.0174,-0.0152 -6.90295,-6.05202 -10.70167,-6.381 -0.0594,-0.005 -0.11723,-0.009 -0.17311,-0.01 z" />
      <path
         style="display:inline;fill:#999999;fill-opacity:1;stroke:#1a3e2e;stroke-width:0"
         d="m 100.01863,118.27464 c 0,0 5.95546,8.85205 9.75126,5.98079 21.77744,-16.47314 8.69461,-7.99018 -9.75126,-5.98079 z"
         id="path70"
         sodipodi:nodetypes="csc"
         inkscape:label="head shadow" />
      <path
         style="display:inline;fill:#ccced1;fill-opacity:1;stroke:#1a3e2e;stroke-width:0"
         d="m 77.272705,140.67095 c 0,0 -4.414577,3.15568 -0.360283,9.79249 3.259221,5.33528 11.542055,1.19971 11.542055,1.19971 0,0 5.736707,-4.42393 -0.375465,-10.13758 -6.422033,-6.00331 -10.806307,-0.85462 -10.806307,-0.85462 z"
         id="path14"
         sodipodi:nodetypes="cscsc"
         inkscape:label="hand right" />
      <path
         style="display:inline;fill:#999999;fill-opacity:1;stroke:#1a3e2e;stroke-width:0"
         d="m 99.433357,141.9585 c 0,0 4.493413,10.85825 14.956203,12.21275 8.31694,1.0767 17.25715,-2.65495 15.57568,-2.83194 -1.68146,-0.177 -21.94756,1.94696 -30.531883,-9.38081 z"
         id="path72"
         sodipodi:nodetypes="cssc"
         inkscape:label="body shadow" />
      <path
         style="display:inline;fill:#e6e6e6;fill-opacity:1;stroke:#1a3e2e;stroke-width:0"
         d="m 84.292142,98.935321 c 1.03161,-1.931777 1.87733,1.314129 1.87733,1.314129 0,0 -0.813509,3.62951 3.566928,6.25777 4.380439,2.62826 8.260254,2.87857 8.260254,2.87857 0,0 -12.222283,5.64471 -15.456688,-1.06382 -1.978406,-4.10344 1.752176,-9.386649 1.752176,-9.386649 z"
         id="path73"
         sodipodi:nodetypes="ccscsc"
         inkscape:label="white face"
         transform="translate(13.236101,6.7332334)" />
      <path
         style="display:inline;fill:#ffffff;fill-opacity:1;stroke:#1a3e2e;stroke-width:0"
         d="m 91.131034,105.05844 c 0.176996,-0.0885 7.93165,-3.93817 7.93165,-3.93817 l 0.674799,5.26564 -4.801026,0.5863 -3.484618,-0.79648 z"
         id="path68"
         inkscape:label="eye"
         transform="translate(13.236101,6.7332334)" />
      <path
         id="path1-6"
         style="display:inline;fill:#59564e"
         d="m 116.62927,105.62849 c -0.90207,0 -3.30974,1.01722 -5.3206,2.24792 -0.58208,0.35626 -2.36802,1.20529 -3.96875,1.88723 -1.60073,0.68194 -3.1455,1.45965 -3.43287,1.72806 -0.51876,0.48455 -0.51759,0.49319 0.1726,1.18339 0.38233,0.38233 1.27278,0.85016 1.97818,1.03973 3.00268,0.80701 7.5477,0.0839 10.10377,-1.60766 1.87574,-1.24132 2.85225,-4.11333 1.91048,-5.61878 -0.43651,-0.69739 -0.70822,-0.85989 -1.44281,-0.85989 z m -4.88445,3.05201 c 0.10129,-0.0215 0.1683,-0.0228 0.1912,0 0.35388,0.35304 0.69686,2.11321 0.60306,3.09645 -0.0766,0.80334 -0.24175,1.08505 -0.74775,1.27744 -0.80588,0.30638 -3.83191,0.27833 -5.23173,-0.0512 -0.57479,-0.13467 -1.25932,-0.43879 -1.52135,-0.67593 -0.45781,-0.41395 -0.45447,-0.4456 0.0506,-0.80046 0.28996,-0.2031 1.19076,-0.59753 2.00143,-0.87644 0.81068,-0.27891 2.19477,-0.8734 3.0763,-1.32136 0.66114,-0.33597 1.27431,-0.58404 1.5782,-0.64854 z m -7.84345,8.07651 c -0.22013,0.009 -0.48468,0.18142 -0.66249,0.51366 -0.35141,0.6566 -0.87762,0.65936 -2.30271,0.0124 -1.095807,-0.49762 -1.114822,-0.49367 -1.27382,0.003 -0.20489,0.64516 0.04486,1.06128 0.52658,0.87643 0.20479,-0.0786 0.58761,-0.0174 0.85111,0.13591 1.24194,0.72241 3.25717,0.0614 3.25717,-1.06867 0,-0.32536 -0.17571,-0.48137 -0.39584,-0.47284 z"
         inkscape:label="face"
         sodipodi:nodetypes="ssssscscscccccccsscccsccscscc" />
      <path
         style="display:inline;fill:#e6e6e6;fill-opacity:1;stroke:#1a3e2e;stroke-width:0"
         d="m 100.05284,118.32948 0.63055,0.94029 c 0,0 -1.718961,13.18217 7.41129,18.63268 11.01228,6.57403 2.66109,14.93583 2.13546,15.05196 -1.90271,0.42036 -9.46931,-6.12851 -10.796783,-11.17291 -1.327472,-5.0444 -5.221393,-17.52264 0.619483,-23.45202 z"
         id="path75"
         sodipodi:nodetypes="ccsssc"
         inkscape:label="white belly" />
      <path
         style="display:inline;fill:#cccccc;fill-opacity:1;stroke:#1a3e2e;stroke-width:0"
         d="m 112.73462,149.8484 c 0,0 -9.02857,-4.37076 -10.61543,-9.5579 -0.2194,-0.71719 -0.99496,-1.92603 -0.99496,-1.92603 0,0 -1.605538,3.27866 -2.293895,3.27866 -0.688353,0 6.920625,11.29909 11.401835,11.24946 2.08286,-0.0231 2.50245,-3.04419 2.50245,-3.04419 z"
         id="path76"
         sodipodi:nodetypes="cscssc"
         inkscape:label="white belly shadow" />
      <path
         style="display:inline;fill:#d3985e;fill-opacity:1;stroke:#1a3e2e;stroke-width:0"
         d="m 91.708519,147.53303 c 0,0 3.254039,5.63199 4.255283,5.8823 1.001242,0.25031 8.635718,-7.38417 7.884788,-8.63572 -0.75093,-1.25156 -6.382926,-3.25404 -6.382926,-3.25404 0,0 -3.128883,1.87733 -5.256524,1.00124 -2.127642,-0.87609 -18.272683,-35.54412 -19.399083,-39.67425 -1.126398,-4.130129 -7.15346,-2.40437 -8.510564,-1.37671 -3.921685,2.96968 -5.256527,8.38541 -4.255283,11.63945 1.001241,3.25404 5.38168,11.13883 6.508078,11.88976 1.1264,0.75093 1.501865,3.50435 25.156231,22.52797 z"
         id="path66"
         sodipodi:nodetypes="csscsssssc"
         inkscape:label="bat" />
      <path
         style="display:inline;fill:#ccced1;fill-opacity:1;stroke:#1a3e2e;stroke-width:0"
         d="m 89.510438,130.24929 c 0,0 -4.097739,3.85928 -1.365661,9.64934 2.73207,5.79007 11.38365,1.44752 11.38365,1.44752 0,0 4.211953,-5.92166 -0.341504,-10.65898 -4.553467,-4.73733 -9.676485,-0.43788 -9.676485,-0.43788 z"
         id="path14-7"
         sodipodi:nodetypes="cscsc"
         inkscape:label="hand left" />
      <path
         sodipodi:type="star"
         style="display:inline;fill:#ffcc00;fill-opacity:1;stroke:#1a3e2e;stroke-width:0"
         id="path69"
         inkscape:flatsided="false"
         sodipodi:sides="4"
         sodipodi:cx="67.169998"
         sodipodi:cy="282.39783"
         sodipodi:r1="107.17097"
         sodipodi:r2="42.7201"
         sodipodi:arg1="1.0016401"
         sodipodi:arg2="1.7870383"
         inkscape:rounded="0"
         inkscape:randomized="0"
         transform="matrix(0.18051975,-0.00833669,0.00833669,0.18051975,59.46742,72.756716)"
         inkscape:label="hit line"
         d="M 124.92673,372.67393 58.003946,324.123 -23.106109,340.15456 25.44482,273.23177 9.4132616,192.12172 76.33605,240.67265 l 81.11006,-16.03156 -48.55093,66.92279 z" />
      <path
         sodipodi:type="star"
         style="display:inline;fill:#ff6600;fill-opacity:1;stroke:#1a3e2e;stroke-width:0"
         id="path69-2"
         inkscape:flatsided="false"
         sodipodi:sides="4"
         sodipodi:cx="67.169998"
         sodipodi:cy="282.39783"
         sodipodi:r1="107.17097"
         sodipodi:r2="42.7201"
         sodipodi:arg1="1.0016401"
         sodipodi:arg2="1.7870383"
         inkscape:rounded="0"
         inkscape:randomized="0"
         transform="matrix(0.10623408,-0.00490606,0.00490606,0.10623408,65.526754,93.633379)"
         inkscape:label="hit"
         d="M 124.92673,372.67393 58.003946,324.123 -23.106109,340.15456 25.44482,273.23177 9.4132616,192.12172 76.33605,240.67265 l 81.11006,-16.03156 -48.55093,66.92279 z" />
      <path
         style="display:inline;fill:#999999;fill-opacity:1;stroke:#1a3e2e;stroke-width:0"
         d="m 89.521559,145.63118 c 0.53099,0.30974 1.637218,1.32747 1.637218,1.32747 0,0 -0.840733,3.58417 -2.699196,4.64615 -1.858462,1.06198 -6.724136,3.05734 -10.487039,0.0885 -1.258126,-0.99263 10.374843,0.26051 11.549017,-6.06212 z"
         id="path71"
         sodipodi:nodetypes="ccssc"
         inkscape:label="hand shadow right" />
      <path
         style="display:inline;fill:#999999;fill-opacity:1;stroke:#1a3e2e;stroke-width:0"
         d="m 101.12739,135.03021 c 0.48856,0.2925 0.35485,2.31732 0.35485,2.31732 0,0 -0.77355,3.38471 -2.483518,4.3876 -1.709964,1.00288 -6.186855,2.8872 -9.649089,0.0836 -1.157598,-0.93739 10.697407,-0.8177 11.777757,-6.78849 z"
         id="path71-6"
         sodipodi:nodetypes="ccssc"
         inkscape:label="hand shadow left" />
      <path
         style="display:inline;fill:#999999;fill-opacity:1;stroke:#1a3e2e;stroke-width:0"
         d="m 148.0482,134.72952 c 0.17239,0.3429 -0.46207,2.15264 -0.46207,2.15264 0,0 -1.34651,2.93695 -2.51534,3.56967 -1.16882,0.6327 -4.02208,1.61876 -5.03987,-1.47207 -0.34029,-1.03342 5.78971,0.97629 8.01728,-4.25023 z"
         id="path71-6-9"
         sodipodi:nodetypes="ccssc"
         inkscape:label="tail shadow" />
      <path
         style="display:inline;fill:#a05a2c;fill-opacity:1;stroke:#1a3e2e;stroke-width:0"
         d="m 86.119746,141.43464 2.727014,-0.50492 c 0,0 1.30134,2.48587 4.841267,2.13187 3.539929,-0.35399 4.131351,-0.47777 4.131351,-0.47777 0,0 -6.286961,2.34878 -6.054995,4.88214 0.0222,0.24243 -2.710314,-2.28117 -7.644742,-6.08982 z"
         id="path74"
         sodipodi:nodetypes="ccscscc"
         inkscape:label="bat shadow" />
    </g>
  </g>
</svg>
